<mxfile host="Electron" agent="Mozilla/5.0 (X11; Linux x86_64) AppleWebKit/537.36 (KHTML, like Gecko) draw.io/26.0.16 Chrome/132.0.6834.210 Electron/34.5.0 Safari/537.36" version="26.0.16" pages="4">
  <diagram name="SEXP structure" id="YR00yMzI4sneIKstyuUa">
    <mxGraphModel dx="1430" dy="874" grid="1" gridSize="10" guides="1" tooltips="1" connect="1" arrows="1" fold="1" page="1" pageScale="1" pageWidth="850" pageHeight="1100" math="0" shadow="0">
      <root>
        <mxCell id="0" />
        <mxCell id="1" parent="0" />
        <mxCell id="9NsEZO2iRndFjTKM0RAM-1" value="" style="rounded=0;whiteSpace=wrap;html=1;fillColor=none;fontFamily=LM Roman 10;fontSize=14;" parent="1" vertex="1">
          <mxGeometry x="160" y="460" width="440" height="140" as="geometry" />
        </mxCell>
        <mxCell id="9NsEZO2iRndFjTKM0RAM-4" value="" style="strokeWidth=1;html=1;shape=mxgraph.flowchart.annotation_2;align=left;labelPosition=right;pointerEvents=1;direction=north;fontFamily=LM Roman 10;fontSize=14;" parent="1" vertex="1">
          <mxGeometry x="160" y="600" width="160" height="30" as="geometry" />
        </mxCell>
        <mxCell id="9NsEZO2iRndFjTKM0RAM-5" value="sxpinfo" style="text;html=1;align=center;verticalAlign=middle;resizable=0;points=[];autosize=1;strokeColor=none;fillColor=none;fontFamily=LM Roman 10;fontStyle=1;fontSize=14;" parent="1" vertex="1">
          <mxGeometry x="205" y="630" width="70" height="30" as="geometry" />
        </mxCell>
        <mxCell id="9NsEZO2iRndFjTKM0RAM-8" value="" style="shape=partialRectangle;whiteSpace=wrap;html=1;right=0;top=0;bottom=0;fillColor=none;routingCenterX=-0.5;fontFamily=LM Roman 10;fontSize=14;" parent="1" vertex="1">
          <mxGeometry x="320" y="460" width="40" height="140" as="geometry" />
        </mxCell>
        <mxCell id="9NsEZO2iRndFjTKM0RAM-11" value="" style="shape=partialRectangle;whiteSpace=wrap;html=1;right=0;top=0;bottom=0;fillColor=none;routingCenterX=-0.5;fontFamily=LM Roman 10;fontSize=14;" parent="1" vertex="1">
          <mxGeometry x="200" y="460" width="120" height="140" as="geometry" />
        </mxCell>
        <mxCell id="9NsEZO2iRndFjTKM0RAM-12" value="SE&lt;span style=&quot;background-color: transparent; color: light-dark(rgb(0, 0, 0), rgb(255, 255, 255));&quot;&gt;XPTYPE&lt;/span&gt;" style="text;html=1;align=center;verticalAlign=middle;resizable=0;points=[];autosize=1;strokeColor=none;fillColor=none;rotation=270;fontFamily=LM Roman 10;fontSize=14;" parent="1" vertex="1">
          <mxGeometry x="135" y="515" width="90" height="30" as="geometry" />
        </mxCell>
        <mxCell id="9NsEZO2iRndFjTKM0RAM-13" value="Attributes" style="text;html=1;align=center;verticalAlign=middle;resizable=0;points=[];autosize=1;strokeColor=none;fillColor=none;fontFamily=LM Roman 10;fontSize=14;" parent="1" vertex="1">
          <mxGeometry x="215" y="515" width="90" height="30" as="geometry" />
        </mxCell>
        <mxCell id="9NsEZO2iRndFjTKM0RAM-15" value="" style="shape=partialRectangle;whiteSpace=wrap;html=1;right=0;top=0;bottom=0;fillColor=none;routingCenterX=-0.5;fontFamily=LM Roman 10;fontSize=14;" parent="1" vertex="1">
          <mxGeometry x="360" y="460" width="40" height="140" as="geometry" />
        </mxCell>
        <mxCell id="9NsEZO2iRndFjTKM0RAM-16" value="" style="shape=partialRectangle;whiteSpace=wrap;html=1;right=0;top=0;bottom=0;fillColor=none;routingCenterX=-0.5;fontFamily=LM Roman 10;fontSize=14;" parent="1" vertex="1">
          <mxGeometry x="400" y="460" width="200" height="140" as="geometry" />
        </mxCell>
        <mxCell id="9NsEZO2iRndFjTKM0RAM-17" value="Data" style="text;html=1;align=center;verticalAlign=middle;resizable=0;points=[];autosize=1;strokeColor=none;fillColor=none;fontFamily=LM Roman 10;fontSize=14;" parent="1" vertex="1">
          <mxGeometry x="475" y="515" width="50" height="30" as="geometry" />
        </mxCell>
        <mxCell id="9NsEZO2iRndFjTKM0RAM-18" value="" style="strokeWidth=1;html=1;shape=mxgraph.flowchart.annotation_2;align=left;labelPosition=right;pointerEvents=1;direction=south;fontFamily=LM Roman 10;fontSize=14;" parent="1" vertex="1">
          <mxGeometry x="160" y="430" width="240" height="30" as="geometry" />
        </mxCell>
        <mxCell id="9NsEZO2iRndFjTKM0RAM-19" value="SEXP&amp;nbsp;&lt;span style=&quot;background-color: transparent; color: light-dark(rgb(0, 0, 0), rgb(255, 255, 255));&quot;&gt;header&lt;/span&gt;" style="text;html=1;align=center;verticalAlign=middle;resizable=0;points=[];autosize=1;strokeColor=none;fillColor=none;fontFamily=LM Roman 10;fontStyle=1;fontSize=14;" parent="1" vertex="1">
          <mxGeometry x="230" y="400" width="100" height="30" as="geometry" />
        </mxCell>
        <mxCell id="9NsEZO2iRndFjTKM0RAM-20" value="GC next ndoe" style="text;html=1;align=center;verticalAlign=middle;resizable=0;points=[];autosize=1;strokeColor=none;fillColor=none;rotation=270;fontFamily=LM Roman 10;fontSize=14;" parent="1" vertex="1">
          <mxGeometry x="285" y="515" width="110" height="30" as="geometry" />
        </mxCell>
        <mxCell id="9NsEZO2iRndFjTKM0RAM-23" value="GC previous node" style="text;html=1;align=center;verticalAlign=middle;resizable=0;points=[];autosize=1;strokeColor=none;fillColor=none;rotation=270;fontFamily=LM Roman 10;fontSize=14;" parent="1" vertex="1">
          <mxGeometry x="315" y="515" width="130" height="30" as="geometry" />
        </mxCell>
      </root>
    </mxGraphModel>
  </diagram>
  <diagram id="7I0D_7rdRMUH2mo6Qv7h" name="Rsh object structure">
    <mxGraphModel dx="1185" dy="724" grid="1" gridSize="10" guides="1" tooltips="1" connect="1" arrows="1" fold="1" page="1" pageScale="1" pageWidth="850" pageHeight="1100" math="0" shadow="0">
      <root>
        <mxCell id="0" />
        <mxCell id="1" parent="0" />
        <mxCell id="iPaXtFeCyAr4iHF4T9OE-1" value="" style="strokeWidth=1;html=1;shape=mxgraph.flowchart.annotation_2;align=left;labelPosition=right;pointerEvents=1;direction=north;fontFamily=LM Roman 10;fontSize=14;" parent="1" vertex="1">
          <mxGeometry x="320" y="600" width="350" height="50" as="geometry" />
        </mxCell>
        <mxCell id="aQHvSilBC002_CPMMuI0-1" value="" style="rounded=0;whiteSpace=wrap;html=1;fillColor=none;fontFamily=LM Roman 10;fontSize=14;" parent="1" vertex="1">
          <mxGeometry x="120" y="460" width="560" height="140" as="geometry" />
        </mxCell>
        <mxCell id="aQHvSilBC002_CPMMuI0-5" value="" style="shape=partialRectangle;whiteSpace=wrap;html=1;right=0;top=0;bottom=0;fillColor=none;routingCenterX=-0.5;fontFamily=LM Roman 10;fontSize=14;" parent="1" vertex="1">
          <mxGeometry x="180" y="460" width="140" height="140" as="geometry" />
        </mxCell>
        <mxCell id="aQHvSilBC002_CPMMuI0-6" value="SE&lt;span style=&quot;background-color: transparent; color: light-dark(rgb(0, 0, 0), rgb(255, 255, 255));&quot;&gt;XPTYPE&lt;/span&gt;" style="text;html=1;align=center;verticalAlign=middle;resizable=0;points=[];autosize=1;strokeColor=none;fillColor=none;rotation=270;fontFamily=LM Roman 10;fontSize=14;" parent="1" vertex="1">
          <mxGeometry x="95" y="515" width="90" height="30" as="geometry" />
        </mxCell>
        <mxCell id="aQHvSilBC002_CPMMuI0-7" value="Rest of SEXP header" style="text;html=1;align=center;verticalAlign=middle;resizable=0;points=[];autosize=1;strokeColor=none;fillColor=none;fontFamily=LM Roman 10;fontSize=14;" parent="1" vertex="1">
          <mxGeometry x="175" y="515" width="150" height="30" as="geometry" />
        </mxCell>
        <mxCell id="aQHvSilBC002_CPMMuI0-11" value="" style="strokeWidth=1;html=1;shape=mxgraph.flowchart.annotation_2;align=left;labelPosition=right;pointerEvents=1;direction=north;fontFamily=LM Roman 10;fontSize=14;" parent="1" vertex="1">
          <mxGeometry x="150" y="600" width="160" height="40" as="geometry" />
        </mxCell>
        <mxCell id="aQHvSilBC002_CPMMuI0-12" value="&lt;div&gt;&lt;span style=&quot;background-color: transparent; color: light-dark(rgb(0, 0, 0), rgb(255, 255, 255));&quot;&gt;SEXP&amp;nbsp;&lt;/span&gt;&lt;span style=&quot;background-color: transparent; color: light-dark(rgb(0, 0, 0), rgb(255, 255, 255));&quot;&gt;header&lt;/span&gt;&lt;/div&gt;" style="text;html=1;align=center;verticalAlign=middle;resizable=0;points=[];autosize=1;strokeColor=none;fillColor=none;fontFamily=LM Roman 10;fontStyle=1;fontSize=14;" parent="1" vertex="1">
          <mxGeometry x="190" y="640" width="100" height="30" as="geometry" />
        </mxCell>
        <mxCell id="aQHvSilBC002_CPMMuI0-30" style="edgeStyle=orthogonalEdgeStyle;rounded=0;orthogonalLoop=1;jettySize=auto;html=1;exitX=0.995;exitY=0.443;exitDx=0;exitDy=0;entryX=0;entryY=0;entryDx=0;entryDy=0;exitPerimeter=0;fontFamily=LM Roman 10;fontSize=14;" parent="1" source="aQHvSilBC002_CPMMuI0-24" target="aQHvSilBC002_CPMMuI0-27" edge="1">
          <mxGeometry relative="1" as="geometry" />
        </mxCell>
        <mxCell id="aQHvSilBC002_CPMMuI0-17" value="" style="shape=partialRectangle;whiteSpace=wrap;html=1;right=0;top=0;bottom=0;fillColor=none;routingCenterX=-0.5;fontFamily=LM Roman 10;fontSize=14;" parent="1" vertex="1">
          <mxGeometry x="320" y="460" width="40" height="140" as="geometry" />
        </mxCell>
        <mxCell id="aQHvSilBC002_CPMMuI0-18" value="" style="shape=partialRectangle;whiteSpace=wrap;html=1;right=0;top=0;bottom=0;fillColor=none;routingCenterX=-0.5;fontFamily=LM Roman 10;fontSize=14;" parent="1" vertex="1">
          <mxGeometry x="360" y="460" width="40" height="140" as="geometry" />
        </mxCell>
        <mxCell id="aQHvSilBC002_CPMMuI0-19" value="" style="shape=partialRectangle;whiteSpace=wrap;html=1;right=0;top=0;bottom=0;fillColor=none;routingCenterX=-0.5;fontFamily=LM Roman 10;fontSize=14;" parent="1" vertex="1">
          <mxGeometry x="400" y="460" width="40" height="140" as="geometry" />
        </mxCell>
        <mxCell id="aQHvSilBC002_CPMMuI0-20" value="" style="shape=partialRectangle;whiteSpace=wrap;html=1;right=0;top=0;bottom=0;fillColor=none;routingCenterX=-0.5;fontFamily=LM Roman 10;fontSize=14;" parent="1" vertex="1">
          <mxGeometry x="440" y="460" width="120" height="140" as="geometry" />
        </mxCell>
        <mxCell id="aQHvSilBC002_CPMMuI0-23" value="" style="strokeWidth=1;html=1;shape=mxgraph.flowchart.annotation_2;align=left;labelPosition=right;pointerEvents=1;direction=north;fontFamily=LM Roman 10;fontSize=14;" parent="1" vertex="1">
          <mxGeometry x="330" y="600" width="100" height="40" as="geometry" />
        </mxCell>
        <mxCell id="aQHvSilBC002_CPMMuI0-22" value="Ř header" style="text;html=1;align=center;verticalAlign=middle;resizable=0;points=[];autosize=1;strokeColor=none;fillColor=none;fontFamily=LM Roman 10;fontStyle=1;fontSize=14;" parent="1" vertex="1">
          <mxGeometry x="345" y="640" width="80" height="30" as="geometry" />
        </mxCell>
        <mxCell id="aQHvSilBC002_CPMMuI0-24" value="GC area start" style="text;html=1;align=center;verticalAlign=middle;resizable=0;points=[];autosize=1;strokeColor=none;fillColor=none;rotation=270;fontFamily=LM Roman 10;fontSize=14;" parent="1" vertex="1">
          <mxGeometry x="290" y="515" width="100" height="30" as="geometry" />
        </mxCell>
        <mxCell id="aQHvSilBC002_CPMMuI0-25" value="GC area length" style="text;html=1;align=center;verticalAlign=middle;resizable=0;points=[];autosize=1;strokeColor=none;fillColor=none;rotation=270;fontFamily=LM Roman 10;fontSize=14;" parent="1" vertex="1">
          <mxGeometry x="320" y="515" width="120" height="30" as="geometry" />
        </mxCell>
        <mxCell id="aQHvSilBC002_CPMMuI0-26" value="Magic number" style="text;html=1;align=center;verticalAlign=middle;resizable=0;points=[];autosize=1;strokeColor=none;fillColor=none;rotation=270;fontFamily=LM Roman 10;fontSize=14;" parent="1" vertex="1">
          <mxGeometry x="365" y="515" width="110" height="30" as="geometry" />
        </mxCell>
        <mxCell id="aQHvSilBC002_CPMMuI0-27" value="" style="shape=partialRectangle;whiteSpace=wrap;html=1;right=0;top=0;bottom=0;fillColor=none;routingCenterX=-0.5;fontFamily=LM Roman 10;fontSize=14;" parent="1" vertex="1">
          <mxGeometry x="560" y="460" width="40" height="140" as="geometry" />
        </mxCell>
        <mxCell id="aQHvSilBC002_CPMMuI0-28" value="" style="shape=partialRectangle;whiteSpace=wrap;html=1;right=0;top=0;bottom=0;fillColor=none;routingCenterX=-0.5;fontFamily=LM Roman 10;fontSize=14;" parent="1" vertex="1">
          <mxGeometry x="600" y="460" width="40" height="140" as="geometry" />
        </mxCell>
        <mxCell id="aQHvSilBC002_CPMMuI0-29" value="" style="shape=partialRectangle;whiteSpace=wrap;html=1;right=0;top=0;bottom=0;fillColor=none;routingCenterX=-0.5;fontFamily=LM Roman 10;fontSize=14;" parent="1" vertex="1">
          <mxGeometry x="640" y="460" width="40" height="140" as="geometry" />
        </mxCell>
        <mxCell id="aQHvSilBC002_CPMMuI0-32" value="" style="strokeWidth=1;html=1;shape=mxgraph.flowchart.annotation_2;align=left;labelPosition=right;pointerEvents=1;direction=south;fontFamily=LM Roman 10;fontSize=14;" parent="1" vertex="1">
          <mxGeometry x="570" y="430" width="100" height="30" as="geometry" />
        </mxCell>
        <mxCell id="aQHvSilBC002_CPMMuI0-33" style="edgeStyle=orthogonalEdgeStyle;rounded=0;orthogonalLoop=1;jettySize=auto;html=1;exitX=1.009;exitY=0.534;exitDx=0;exitDy=0;entryX=0;entryY=0.5;entryDx=0;entryDy=0;entryPerimeter=0;exitPerimeter=0;endArrow=none;startFill=0;fontFamily=LM Roman 10;fontSize=14;" parent="1" source="aQHvSilBC002_CPMMuI0-25" target="aQHvSilBC002_CPMMuI0-32" edge="1">
          <mxGeometry relative="1" as="geometry">
            <Array as="points">
              <mxPoint x="381" y="410" />
              <mxPoint x="620" y="410" />
            </Array>
          </mxGeometry>
        </mxCell>
        <mxCell id="aQHvSilBC002_CPMMuI0-34" value="C++ data" style="text;html=1;align=center;verticalAlign=middle;resizable=0;points=[];autosize=1;strokeColor=none;fillColor=none;fontFamily=LM Roman 10;fontSize=14;" parent="1" vertex="1">
          <mxGeometry x="460" y="515" width="80" height="30" as="geometry" />
        </mxCell>
        <mxCell id="aQHvSilBC002_CPMMuI0-35" value="SEXP" style="text;html=1;align=center;verticalAlign=middle;resizable=0;points=[];autosize=1;strokeColor=none;fillColor=none;rotation=270;fontFamily=LM Roman 10;fontSize=14;" parent="1" vertex="1">
          <mxGeometry x="550" y="515" width="60" height="30" as="geometry" />
        </mxCell>
        <mxCell id="aQHvSilBC002_CPMMuI0-36" value="SEXP" style="text;html=1;align=center;verticalAlign=middle;resizable=0;points=[];autosize=1;strokeColor=none;fillColor=none;rotation=270;fontFamily=LM Roman 10;fontSize=14;" parent="1" vertex="1">
          <mxGeometry x="630" y="515" width="60" height="30" as="geometry" />
        </mxCell>
        <mxCell id="aQHvSilBC002_CPMMuI0-37" value="\dots" style="text;html=1;align=center;verticalAlign=middle;resizable=0;points=[];autosize=1;strokeColor=none;fillColor=none;rotation=0;fontFamily=LM Roman 10;fontSize=14;" parent="1" vertex="1">
          <mxGeometry x="590" y="515" width="60" height="30" as="geometry" />
        </mxCell>
        <mxCell id="aQHvSilBC002_CPMMuI0-38" value="(&lt;span style=&quot;background-color: transparent; color: light-dark(rgb(0, 0, 0), rgb(255, 255, 255));&quot;&gt;EXTERNALSXP)&lt;/span&gt;" style="text;html=1;align=center;verticalAlign=middle;resizable=0;points=[];autosize=1;strokeColor=none;fillColor=none;rotation=270;fontFamily=LM Roman 10;fontSize=14;" parent="1" vertex="1">
          <mxGeometry x="100" y="515" width="120" height="30" as="geometry" />
        </mxCell>
        <mxCell id="iPaXtFeCyAr4iHF4T9OE-2" value="RirRuntimeObject" style="text;html=1;align=center;verticalAlign=middle;resizable=0;points=[];autosize=1;strokeColor=none;fillColor=none;fontFamily=LM Roman 10;fontStyle=1;fontSize=14;" parent="1" vertex="1">
          <mxGeometry x="445" y="650" width="130" height="30" as="geometry" />
        </mxCell>
      </root>
    </mxGraphModel>
  </diagram>
  <diagram id="t11Zxhy9GAeE4k5rA9TY" name="Type Feedback structure">
    <mxGraphModel dx="1659" dy="1014" grid="1" gridSize="10" guides="1" tooltips="1" connect="1" arrows="1" fold="1" page="1" pageScale="1" pageWidth="850" pageHeight="1100" background="none" math="1" shadow="0">
      <root>
        <mxCell id="0" />
        <mxCell id="1" value="Elements" parent="0" />
        <mxCell id="_FOgOhI5XCwtI4hoziWZ-10" value="&lt;span style=&quot;font-size: 14px;&quot;&gt;GC area length&lt;/span&gt;" style="text;html=1;align=center;verticalAlign=middle;resizable=0;points=[];autosize=1;strokeColor=none;fillColor=#FFE599;fontFamily=LM Roman 10;fontSize=12;fontColor=default;" vertex="1" parent="1">
          <mxGeometry x="40" y="100" width="120" height="30" as="geometry" />
        </mxCell>
        <mxCell id="_FOgOhI5XCwtI4hoziWZ-8" value="" style="rounded=0;whiteSpace=wrap;html=1;align=center;verticalAlign=middle;fontFamily=LM Roman 10;fontSize=12;fontColor=default;autosize=1;resizable=1;fillColor=none;gradientColor=none;movable=1;rotatable=1;deletable=1;editable=1;locked=0;connectable=1;" vertex="1" parent="1">
          <mxGeometry x="40" y="100" width="120" height="30" as="geometry" />
        </mxCell>
        <mxCell id="_FOgOhI5XCwtI4hoziWZ-7" value="&lt;span style=&quot;font-size: 14px; text-wrap-mode: nowrap;&quot;&gt;SEXP h&lt;/span&gt;&lt;span style=&quot;color: light-dark(rgb(0, 0, 0), rgb(255, 255, 255)); font-size: 14px; text-wrap-mode: nowrap; background-color: transparent;&quot;&gt;eader&lt;/span&gt;" style="rounded=0;whiteSpace=wrap;html=1;align=center;verticalAlign=middle;fontFamily=LM Roman 10;fontSize=12;fontColor=default;autosize=1;resizable=1;fillColor=#D5E8D4;gradientColor=none;movable=1;rotatable=1;deletable=1;editable=1;locked=0;connectable=1;" vertex="1" parent="1">
          <mxGeometry x="570" y="460" width="120" height="30" as="geometry" />
        </mxCell>
        <mxCell id="nKrELA4dg6fPKe1PAYPH-73" value="" style="shape=partialRectangle;whiteSpace=wrap;html=1;right=1;top=1;bottom=1;fillColor=#D5E8D4;routingCenterX=-0.5;direction=south;strokeColor=default;strokeWidth=1;perimeterSpacing=0;fontFamily=LM Roman 10;fontSize=14;" parent="1" vertex="1">
          <mxGeometry x="40.000000000000114" y="40" width="120" height="30" as="geometry" />
        </mxCell>
        <mxCell id="saBZGnL8zDT00RnZJ5Cs-44" value="GC area length" style="text;align=center;verticalAlign=middle;resizable=0;points=[];autosize=1;strokeColor=default;fillColor=#FFE599;fontFamily=LM Roman 10;textShadow=0;fontSize=14;" parent="1" vertex="1">
          <mxGeometry x="350" y="90" width="120" height="30" as="geometry" />
        </mxCell>
        <mxCell id="_FOgOhI5XCwtI4hoziWZ-6" value="SEXP header" style="shape=partialRectangle;whiteSpace=wrap;html=1;right=0;top=1;bottom=1;fillColor=#D5E8D4;routingCenterX=-0.5;direction=south;strokeColor=default;strokeWidth=1;perimeterSpacing=0;fontFamily=LM Roman 10;fontSize=14;" vertex="1" parent="1">
          <mxGeometry x="350" y="30" width="120" height="30" as="geometry" />
        </mxCell>
        <mxCell id="saBZGnL8zDT00RnZJ5Cs-31" value="GC area start" style="shape=partialRectangle;whiteSpace=wrap;html=1;right=1;top=1;bottom=1;fillColor=#FFE599;routingCenterX=-0.5;direction=south;strokeColor=default;strokeWidth=1;perimeterSpacing=0;fontFamily=LM Roman 10;fontSize=14;" parent="1" vertex="1">
          <mxGeometry x="350" y="60" width="120" height="30" as="geometry" />
        </mxCell>
        <mxCell id="nKrELA4dg6fPKe1PAYPH-27" value="" style="shape=partialRectangle;whiteSpace=wrap;html=1;right=1;top=1;bottom=1;fillColor=#FFE599;routingCenterX=-0.5;direction=south;strokeColor=default;strokeWidth=1;perimeterSpacing=0;fontFamily=LM Roman 10;fontSize=14;" parent="1" vertex="1">
          <mxGeometry x="570" y="490" width="120" height="50" as="geometry" />
        </mxCell>
        <mxCell id="nKrELA4dg6fPKe1PAYPH-31" value="owner" style="shape=partialRectangle;whiteSpace=wrap;html=1;right=1;top=1;bottom=1;fillColor=#C3ABD0;routingCenterX=-0.5;direction=south;strokeColor=default;fontFamily=LM Roman 10;fontSize=14;" parent="1" vertex="1">
          <mxGeometry x="570" y="540" width="120" height="30" as="geometry" />
        </mxCell>
        <mxCell id="nKrELA4dg6fPKe1PAYPH-37" value="Ř header" style="text;html=1;align=center;verticalAlign=middle;resizable=0;points=[];autosize=1;strokeColor=none;fillColor=none;fontFamily=LM Roman 10;fontSize=14;" parent="1" vertex="1">
          <mxGeometry x="590" y="490" width="80" height="30" as="geometry" />
        </mxCell>
        <mxCell id="nKrELA4dg6fPKe1PAYPH-38" value="(empty GC area)" style="text;html=1;align=center;verticalAlign=middle;resizable=0;points=[];autosize=1;strokeColor=none;fillColor=none;fontFamily=LM Roman 10;fontSize=14;" parent="1" vertex="1">
          <mxGeometry x="570" y="510" width="120" height="30" as="geometry" />
        </mxCell>
        <mxCell id="nKrELA4dg6fPKe1PAYPH-40" value="slots counts" style="shape=partialRectangle;whiteSpace=wrap;html=1;right=1;top=1;bottom=1;fillColor=#C3ABD0;routingCenterX=-0.5;direction=south;strokeColor=default;fontFamily=LM Roman 10;fontSize=14;" parent="1" vertex="1">
          <mxGeometry x="570" y="570" width="120" height="30" as="geometry" />
        </mxCell>
        <mxCell id="nKrELA4dg6fPKe1PAYPH-41" value="" style="shape=partialRectangle;whiteSpace=wrap;html=1;right=1;top=1;bottom=1;fillColor=#C3ABD0;routingCenterX=-0.5;direction=south;strokeColor=default;fontFamily=LM Roman 10;fontSize=14;" parent="1" vertex="1">
          <mxGeometry x="570" y="600" width="120" height="30" as="geometry" />
        </mxCell>
        <mxCell id="nKrELA4dg6fPKe1PAYPH-42" value="" style="shape=partialRectangle;whiteSpace=wrap;html=1;right=1;top=1;bottom=1;fillColor=#C3ABD0;routingCenterX=-0.5;direction=south;strokeColor=default;fontFamily=LM Roman 10;fontSize=14;" parent="1" vertex="1">
          <mxGeometry x="570" y="630" width="120" height="30" as="geometry" />
        </mxCell>
        <mxCell id="nKrELA4dg6fPKe1PAYPH-43" value="" style="shape=partialRectangle;whiteSpace=wrap;html=1;right=1;top=1;bottom=1;fillColor=#C3ABD0;routingCenterX=-0.5;direction=south;strokeColor=default;fontFamily=LM Roman 10;fontSize=14;" parent="1" vertex="1">
          <mxGeometry x="570" y="660" width="120" height="30" as="geometry" />
        </mxCell>
        <mxCell id="nKrELA4dg6fPKe1PAYPH-44" value="Call\#0" style="shape=partialRectangle;whiteSpace=wrap;html=1;right=1;top=1;bottom=1;fillColor=#C3ABD0;routingCenterX=-0.5;direction=south;strokeColor=default;fontFamily=LM Roman 10;fontSize=14;" parent="1" vertex="1">
          <mxGeometry x="570" y="690" width="120" height="30" as="geometry" />
        </mxCell>
        <mxCell id="nKrELA4dg6fPKe1PAYPH-45" value="Call\#1" style="shape=partialRectangle;whiteSpace=wrap;html=1;right=1;top=1;bottom=1;fillColor=#C3ABD0;routingCenterX=-0.5;direction=south;strokeColor=default;fontFamily=LM Roman 10;fontSize=14;" parent="1" vertex="1">
          <mxGeometry x="570" y="720" width="120" height="30" as="geometry" />
        </mxCell>
        <mxCell id="nKrELA4dg6fPKe1PAYPH-46" value="Test\#0" style="shape=partialRectangle;whiteSpace=wrap;html=1;right=1;top=1;bottom=1;fillColor=#C3ABD0;routingCenterX=-0.5;direction=south;strokeColor=default;fontFamily=LM Roman 10;fontSize=14;" parent="1" vertex="1">
          <mxGeometry x="570" y="750" width="120" height="30" as="geometry" />
        </mxCell>
        <mxCell id="nKrELA4dg6fPKe1PAYPH-47" value="Type\#0" style="shape=partialRectangle;whiteSpace=wrap;html=1;right=1;top=1;bottom=1;fillColor=#C3ABD0;routingCenterX=-0.5;direction=south;strokeColor=default;fontFamily=LM Roman 10;fontSize=14;" parent="1" vertex="1">
          <mxGeometry x="570" y="780" width="120" height="30" as="geometry" />
        </mxCell>
        <mxCell id="nKrELA4dg6fPKe1PAYPH-48" value="Type\#1" style="shape=partialRectangle;whiteSpace=wrap;html=1;right=1;top=1;bottom=1;fillColor=#C3ABD0;routingCenterX=-0.5;direction=south;strokeColor=default;fontFamily=LM Roman 10;fontSize=14;" parent="1" vertex="1">
          <mxGeometry x="570" y="810" width="120" height="30" as="geometry" />
        </mxCell>
        <mxCell id="nKrELA4dg6fPKe1PAYPH-49" value="Type\#2" style="shape=partialRectangle;whiteSpace=wrap;html=1;right=1;top=1;bottom=1;fillColor=#C3ABD0;routingCenterX=-0.5;direction=south;strokeColor=default;fontFamily=LM Roman 10;fontSize=14;" parent="1" vertex="1">
          <mxGeometry x="570" y="840" width="120" height="30" as="geometry" />
        </mxCell>
        <mxCell id="nKrELA4dg6fPKe1PAYPH-50" value="Type\#3" style="shape=partialRectangle;whiteSpace=wrap;html=1;right=1;top=1;bottom=1;fillColor=#C3ABD0;routingCenterX=-0.5;direction=south;strokeColor=default;fontFamily=LM Roman 10;fontSize=14;" parent="1" vertex="1">
          <mxGeometry x="570" y="870" width="120" height="30" as="geometry" />
        </mxCell>
        <mxCell id="nKrELA4dg6fPKe1PAYPH-51" value="Type\#4" style="shape=partialRectangle;whiteSpace=wrap;html=1;right=1;top=1;bottom=1;fillColor=#C3ABD0;routingCenterX=-0.5;direction=south;strokeColor=default;fontFamily=LM Roman 10;fontSize=14;" parent="1" vertex="1">
          <mxGeometry x="570" y="900" width="120" height="30" as="geometry" />
        </mxCell>
        <mxCell id="nKrELA4dg6fPKe1PAYPH-56" value="&lt;span style=&quot;text-wrap-mode: wrap;&quot;&gt;callees&lt;/span&gt;" style="text;html=1;align=center;verticalAlign=middle;resizable=0;points=[];autosize=1;strokeColor=none;fillColor=none;fontFamily=LM Roman 10;fontSize=14;" parent="1" vertex="1">
          <mxGeometry x="595" y="600" width="70" height="30" as="geometry" />
        </mxCell>
        <mxCell id="nKrELA4dg6fPKe1PAYPH-57" value="&lt;span style=&quot;text-wrap-mode: wrap;&quot;&gt;tests&lt;/span&gt;" style="text;html=1;align=center;verticalAlign=middle;resizable=0;points=[];autosize=1;strokeColor=none;fillColor=none;fontFamily=LM Roman 10;fontSize=14;" parent="1" vertex="1">
          <mxGeometry x="605" y="630" width="50" height="30" as="geometry" />
        </mxCell>
        <mxCell id="nKrELA4dg6fPKe1PAYPH-58" value="&lt;span style=&quot;text-wrap-mode: wrap;&quot;&gt;types&lt;/span&gt;" style="text;html=1;align=center;verticalAlign=middle;resizable=0;points=[];autosize=1;strokeColor=none;fillColor=none;fontFamily=LM Roman 10;fontSize=14;" parent="1" vertex="1">
          <mxGeometry x="600" y="660" width="60" height="30" as="geometry" />
        </mxCell>
        <mxCell id="saBZGnL8zDT00RnZJ5Cs-36" value="" style="shape=partialRectangle;whiteSpace=wrap;html=1;right=1;top=1;bottom=1;fillColor=none;routingCenterX=-0.5;direction=south;fontFamily=LM Roman 10;fontSize=14;strokeColor=default;" parent="1" vertex="1">
          <mxGeometry x="350" y="90" width="120" height="30" as="geometry" />
        </mxCell>
        <mxCell id="saBZGnL8zDT00RnZJ5Cs-38" value="&lt;span style=&quot;text-wrap-mode: nowrap;&quot;&gt;s&lt;/span&gt;&lt;span style=&quot;text-wrap-mode: nowrap; background-color: transparent; color: light-dark(rgb(0, 0, 0), rgb(255, 255, 255));&quot;&gt;tatistics&lt;/span&gt;" style="shape=partialRectangle;whiteSpace=wrap;html=1;right=1;top=1;bottom=1;fillColor=#C3ABD0;routingCenterX=-0.5;direction=south;fontFamily=LM Roman 10;fontSize=14;strokeColor=default;" parent="1" vertex="1">
          <mxGeometry x="350" y="150" width="120" height="30" as="geometry" />
        </mxCell>
        <mxCell id="saBZGnL8zDT00RnZJ5Cs-48" value="&lt;span style=&quot;text-wrap-mode: nowrap;&quot;&gt;signature&lt;/span&gt;" style="shape=partialRectangle;whiteSpace=wrap;html=1;right=1;top=1;bottom=1;fillColor=#C3ABD0;routingCenterX=-0.5;direction=south;fontFamily=LM Roman 10;fontSize=14;strokeColor=default;" parent="1" vertex="1">
          <mxGeometry x="350" y="180" width="120" height="30" as="geometry" />
        </mxCell>
        <UserObject label="&lt;span style=&quot;text-wrap-mode: nowrap;&quot;&gt;context&lt;/span&gt;" tags="" id="saBZGnL8zDT00RnZJ5Cs-49">
          <mxCell style="shape=partialRectangle;whiteSpace=wrap;html=1;right=1;top=1;bottom=1;fillColor=#C3ABD0;routingCenterX=-0.5;direction=south;fontFamily=LM Roman 10;fontSize=14;strokeColor=default;" parent="1" vertex="1">
            <mxGeometry x="350" y="210" width="120" height="30" as="geometry" />
          </mxCell>
        </UserObject>
        <mxCell id="saBZGnL8zDT00RnZJ5Cs-50" value="&lt;span style=&quot;text-wrap-mode: nowrap;&quot;&gt;dispatchTable&lt;/span&gt;" style="shape=partialRectangle;whiteSpace=wrap;html=1;right=1;top=1;bottom=1;fillColor=#C3ABD0;routingCenterX=-0.5;direction=south;fontFamily=LM Roman 10;fontSize=14;strokeColor=default;" parent="1" vertex="1">
          <mxGeometry x="350" y="240" width="120" height="30" as="geometry" />
        </mxCell>
        <mxCell id="saBZGnL8zDT00RnZJ5Cs-52" value="&lt;span style=&quot;text-wrap-mode: nowrap;&quot;&gt;Body&lt;/span&gt;" style="shape=partialRectangle;whiteSpace=wrap;html=1;right=1;top=1;bottom=1;fillColor=#F19C99;routingCenterX=-0.5;direction=south;fontFamily=LM Roman 10;fontSize=14;strokeColor=default;" parent="1" vertex="1">
          <mxGeometry x="350" y="270" width="120" height="30" as="geometry" />
        </mxCell>
        <mxCell id="saBZGnL8zDT00RnZJ5Cs-54" value="&lt;span style=&quot;text-wrap-mode: nowrap;&quot;&gt;TypeFeedback&lt;/span&gt;" style="shape=partialRectangle;whiteSpace=wrap;html=1;right=1;top=1;bottom=1;fillColor=#F19C99;routingCenterX=-0.5;direction=south;fontFamily=LM Roman 10;fontSize=14;strokeColor=default;" parent="1" vertex="1">
          <mxGeometry x="350" y="300" width="120" height="30" as="geometry" />
        </mxCell>
        <mxCell id="saBZGnL8zDT00RnZJ5Cs-55" value="&lt;span style=&quot;text-wrap-mode: nowrap;&quot;&gt;Default arg 0&lt;/span&gt;" style="shape=partialRectangle;whiteSpace=wrap;html=1;right=1;top=1;bottom=1;fillColor=#F19C99;routingCenterX=-0.5;direction=south;fontFamily=LM Roman 10;fontSize=14;strokeColor=default;" parent="1" vertex="1">
          <mxGeometry x="350" y="330" width="120" height="30" as="geometry" />
        </mxCell>
        <mxCell id="saBZGnL8zDT00RnZJ5Cs-56" value="&lt;span style=&quot;text-wrap-mode: nowrap;&quot;&gt;\dots&lt;/span&gt;" style="shape=partialRectangle;whiteSpace=wrap;html=1;right=1;top=1;bottom=1;fillColor=#F19C99;routingCenterX=-0.5;direction=south;fontFamily=LM Roman 10;fontSize=14;strokeColor=default;" parent="1" vertex="1">
          <mxGeometry x="350" y="360" width="120" height="30" as="geometry" />
        </mxCell>
        <mxCell id="saBZGnL8zDT00RnZJ5Cs-58" value="&lt;span style=&quot;text-wrap-mode: nowrap;&quot;&gt;Default arg N&lt;/span&gt;" style="shape=partialRectangle;whiteSpace=wrap;html=1;right=1;top=1;bottom=1;fillColor=#F19C99;routingCenterX=-0.5;direction=south;fontFamily=LM Roman 10;fontSize=14;strokeColor=default;" parent="1" vertex="1">
          <mxGeometry x="350" y="390" width="120" height="30" as="geometry" />
        </mxCell>
        <mxCell id="tePN7J4xJUsrcynRNcJN-3" value="" style="shape=partialRectangle;whiteSpace=wrap;html=1;right=0;top=1;bottom=1;fillColor=#FFE599;routingCenterX=-0.5;direction=south;strokeColor=default;strokeWidth=1;perimeterSpacing=0;fontFamily=LM Roman 10;fontSize=14;" parent="1" vertex="1">
          <mxGeometry x="40" y="70" width="120" height="30" as="geometry" />
        </mxCell>
        <mxCell id="tePN7J4xJUsrcynRNcJN-5" value="" style="shape=partialRectangle;whiteSpace=wrap;html=1;right=0;top=0;bottom=0;fillColor=none;routingCenterX=-0.5;direction=south;fontFamily=LM Roman 10;fontSize=14;" parent="1" vertex="1">
          <mxGeometry x="40" y="100" width="120" height="30" as="geometry" />
        </mxCell>
        <mxCell id="tePN7J4xJUsrcynRNcJN-4" value="SEXP h&lt;span style=&quot;background-color: transparent; color: light-dark(rgb(0, 0, 0), rgb(255, 255, 255));&quot;&gt;eader&lt;/span&gt;" style="text;html=1;align=center;verticalAlign=middle;resizable=0;points=[];autosize=1;strokeColor=none;fillColor=none;fontFamily=LM Roman 10;fontSize=14;" parent="1" vertex="1">
          <mxGeometry x="50" y="40" width="100" height="30" as="geometry" />
        </mxCell>
        <mxCell id="nKrELA4dg6fPKe1PAYPH-2" value="&lt;span style=&quot;text-wrap-mode: nowrap;&quot;&gt;Magic number&lt;/span&gt;" style="shape=partialRectangle;whiteSpace=wrap;html=1;right=1;top=1;bottom=1;fillColor=#FFE599;routingCenterX=-0.5;direction=south;strokeColor=default;fontFamily=LM Roman 10;fontSize=14;" parent="1" vertex="1">
          <mxGeometry x="40" y="130" width="120" height="30" as="geometry" />
        </mxCell>
        <mxCell id="nKrELA4dg6fPKe1PAYPH-5" value="&lt;span style=&quot;text-wrap-mode: nowrap;&quot;&gt;Size&lt;/span&gt;" style="shape=partialRectangle;whiteSpace=wrap;html=1;right=1;top=1;bottom=1;fillColor=#C3ABD0;routingCenterX=-0.5;direction=south;fontFamily=LM Roman 10;fontSize=14;" parent="1" vertex="1">
          <mxGeometry x="40" y="160" width="120" height="30" as="geometry" />
        </mxCell>
        <mxCell id="nKrELA4dg6fPKe1PAYPH-8" value="Entry 1 (baseline)" style="shape=partialRectangle;whiteSpace=wrap;html=1;right=1;top=1;bottom=1;fillColor=#F19C99;routingCenterX=-0.5;direction=south;fontFamily=LM Roman 10;fontSize=14;" parent="1" vertex="1">
          <mxGeometry x="40" y="190" width="120" height="30" as="geometry" />
        </mxCell>
        <mxCell id="nKrELA4dg6fPKe1PAYPH-10" value="Entry 2" style="shape=partialRectangle;whiteSpace=wrap;html=1;right=1;top=1;bottom=1;fillColor=#F19C99;routingCenterX=-0.5;direction=south;fontFamily=LM Roman 10;fontSize=14;" parent="1" vertex="1">
          <mxGeometry x="40" y="220" width="120" height="30" as="geometry" />
        </mxCell>
        <mxCell id="nKrELA4dg6fPKe1PAYPH-11" value="\dots" style="shape=partialRectangle;whiteSpace=wrap;html=1;right=1;top=1;bottom=1;fillColor=#F19C99;routingCenterX=-0.5;direction=south;strokeColor=default;fontFamily=LM Roman 10;fontSize=14;" parent="1" vertex="1">
          <mxGeometry x="40" y="250" width="120" height="30" as="geometry" />
        </mxCell>
        <mxCell id="nKrELA4dg6fPKe1PAYPH-12" value="Entry N" style="shape=partialRectangle;whiteSpace=wrap;html=1;right=1;top=1;bottom=1;fillColor=#F19C99;routingCenterX=-0.5;direction=south;fontFamily=LM Roman 10;fontSize=14;" parent="1" vertex="1">
          <mxGeometry x="40" y="280" width="120" height="30" as="geometry" />
        </mxCell>
        <mxCell id="nKrELA4dg6fPKe1PAYPH-14" value="GC area start" style="text;html=1;align=center;verticalAlign=middle;resizable=0;points=[];autosize=1;strokeColor=none;fillColor=none;fontFamily=LM Roman 10;fontSize=14;" parent="1" vertex="1">
          <mxGeometry x="50" y="70" width="100" height="30" as="geometry" />
        </mxCell>
        <mxCell id="OBAYQmw87Z6NY-3DPIVF-1" value="" style="shape=image;aspect=fixed;image=data:image/svg+xml,PHN2ZyB4bWxuczp4bGluaz0iaHR0cDovL3d3dy53My5vcmcvMTk5OS94bGluayIgeG1sbnM9Imh0dHA6Ly93d3cudzMub3JnLzIwMDAvc3ZnIiB2aWV3Qm94PSItNDMuMzY0NjQzMDk2OTIzODMgLTQzLjY1MzU2MDYzODQyNzczNCAxODcuNjI2NDAzODA4NTkzNzUgNTU3Ljc5ODI3ODgwODU5MzgiIGhlaWdodD0iNTU3Ljc5ODI3ODgwODU5MzgiIHdpZHRoPSIxODcuNjI2NDAzODA4NTkzNzUiIHZlcnNpb249IjEuMSI+JiN4YTs8ZGVmcz4mI3hhOzxwYXRoIGQ9Ik01LjE3MDYxLS4zMDg4NDJDNS4xNzA2MS0uNjA3NzIxIDQuOTIxNTQ0LS42MDc3MjEgNC43NzIxMDUtLjYwNzcyMUM0LjM1MzY3NC0uNjA3NzIxIDQuMjU0MDQ3LS42NTc1MzQgNC4xNzQzNDYtLjY4NzQyMlYtMi44MzkzNTJDNC4xNzQzNDYtMy41NDY3IDMuNjM2MzY0LTQuMzgzNTYyIDIuMjAxNzQzLTQuMzgzNTYyQzEuNzczMzUtNC4zODM1NjIgLjc1NzE2MS00LjM4MzU2MiAuNzU3MTYxLTMuNjU2Mjg5Qy43NTcxNjEtMy4zNTc0MSAuOTY2Mzc2LTMuMTk4MDA3IDEuMjA1NDc5LTMuMTk4MDA3QzEuMzU0OTE5LTMuMTk4MDA3IDEuNjMzODczLTMuMjg3NjcxIDEuNjQzODM2LTMuNjU2Mjg5QzEuNjQzODM2LTMuNzM1OTkgMS42NTM3OTgtMy43NDU5NTMgMS44NTMwNTEtMy43NjU4NzhDMS45OTI1MjgtMy43NzU4NDEgMi4xMjIwNDItMy43NzU4NDEgMi4yMTE3MDYtMy43NzU4NDFDMi45Njg4NjctMy43NzU4NDEgMy40ODY5MjQtMy40NjY5OTkgMy40ODY5MjQtMi43NTk2NTFDMS43MjM1MzctMi43Mjk3NjMgLjQ5ODEzMi0yLjIzMTYzMSAuNDk4MTMyLTEuMjc1MjE4Qy40OTgxMzItLjU4Nzc5NiAxLjEyNTc3OCAuMDU5Nzc2IDIuMTQxOTY4IC4wNTk3NzZDMi41MTA1ODUgLjA1OTc3NiAzLjEyODI2OS0uMDA5OTYzIDMuNTk2NTEzLS4zMTg4MDRDMy44MTU2OTEtLjAwOTk2MyA0LjI5Mzg5OCAwIDQuNjcyNDc4IDBDNC45NTE0MzIgMCA1LjE3MDYxIDAgNS4xNzA2MS0uMzA4ODQyWk0zLjQ4NjkyNC0xLjMzNDk5NEMzLjQ4NjkyNC0xLjEwNTg1MyAzLjQ4NjkyNC0uODk2NjM4IDMuMDk4MzgxLS43MTczMUMyLjczOTcyNi0uNTQ3OTQ1IDIuMjkxNDA3LS41NDc5NDUgMi4yMTE3MDYtLjU0Nzk0NUMxLjU5NDAyMi0uNTQ3OTQ1IDEuMTg1NTU0LS44ODY2NzUgMS4xODU1NTQtMS4yNzUyMThDMS4xODU1NTQtMS43NjMzODcgMi4wNDIzNDEtMi4xMzIwMDUgMy40ODY5MjQtMi4xNzE4NTZWLTEuMzM0OTk0WiIgaWQ9ImcwLTI4Ii8+JiN4YTs8cGF0aCBkPSJNNC44NjE3NjgtMi4xNTE5M0M0Ljg2MTc2OC0zLjM3NzMzNSAzLjk3NTA5My00LjM1MzY3NCAyLjkxOTA1NC00LjM1MzY3NEMyLjQ0MDg0Ny00LjM1MzY3NCAxLjk5MjUyOC00LjE3NDM0NiAxLjY1Mzc5OC0zLjg2NTUwNFYtNS42Nzg3MDVDMS42NTM3OTgtNS45ODc1NDcgMS41OTQwMjItNi4wODcxNzMgMS4yNTUyOTMtNi4wODcxNzNILjUyODAyQy4zNjg2MTgtNi4wODcxNzMgLjExOTU1Mi02LjA4NzE3MyAuMTE5NTUyLTUuNzc4MzMxQy4xMTk1NTItNS40Nzk0NTIgLjM3ODU4LTUuNDc5NDUyIC41MTgwNTctNS40Nzk0NTJILjk2NjM3NlYtLjQwODQ2OEMuOTY2Mzc2LS4yMDkyMTUgLjk2NjM3NiAwIDEuMzE1MDY4IDBDMS42NTM3OTggMCAxLjY1Mzc5OC0uMTk5MjUzIDEuNjUzNzk4LS40NDgzMTlDMi4wNjIyNjctLjAyOTg4OCAyLjQ5MDY2IC4wNTk3NzYgMi44MDk0NjUgLjA1OTc3NkMzLjg5NTM5MiAuMDU5Nzc2IDQuODYxNzY4LS44ODY2NzUgNC44NjE3NjgtMi4xNTE5M1pNNC4xNzQzNDYtMi4xNTE5M0M0LjE3NDM0Ni0xLjE5NTUxNyAzLjQ3Njk2MS0uNTQ3OTQ1IDIuNzc5NTc3LS41NDc5NDVDMi4wMDI0OTEtLjU0Nzk0NSAxLjY1Mzc5OC0xLjQyNDY1OCAxLjY1Mzc5OC0xLjkwMjg2NFYtMi42MzAxMzdDMS42NTM3OTgtMy4yMTc5MzMgMi4yMzE2MzEtMy43NDU5NTMgMi44NTkyNzgtMy43NDU5NTNDMy41OTY1MTMtMy43NDU5NTMgNC4xNzQzNDYtMy4wMTg2OCA0LjE3NDM0Ni0yLjE1MTkzWiIgaWQ9ImcwLTM1Ii8+JiN4YTs8cGF0aCBkPSJNNC42NTI1NTMgLjUxODA1N0M0LjY1MjU1MyAuMjI5MTQxIDQuNDAzNDg3IC4yMTkxNzggNC4zMTM4MjMgLjIxOTE3OEMyLjk1ODkwNCAuMTg5MjkgMi45NTg5MDQtLjE2OTM2NSAyLjk1ODkwNC0uNDc4MjA3Vi0yLjA4MjE5MkMyLjk1ODkwNC0yLjMzMTI1OCAyLjkyOTAxNi0yLjczOTcyNiAyLjM4MTA3MS0zLjAzODYwNUMyLjc5OTUwMi0zLjI4NzY3MSAyLjk0ODk0MS0zLjYxNjQzOCAyLjk1ODkwNC0zLjg2NTUwNFYtNS4xODA1NzNDMi45NTg5MDQtNS40Mjk2MzkgMi45NTg5MDQtNS44MjgxNDQgMi45ODg3OTItNS45MDc4NDZDMy4xNjgxMi02LjI4NjQyNiA0LjA0NDgzMi02LjMwNjM1MSA0LjM5MzUyNC02LjMwNjM1MUM0LjQ1MzMtNi4zMDYzNTEgNC42NTI1NTMtNi4zNjYxMjcgNC42NTI1NTMtNi42MDUyM0M0LjY1MjU1My02LjkxNDA3MiA0LjQxMzQ1LTYuOTE0MDcyIDQuMjM0MTIyLTYuOTE0MDcyQzMuNTM2NzM3LTYuOTE0MDcyIDIuNDUwODA5LTYuNzg0NTU4IDIuMjgxNDQ1LTUuOTA3ODQ2QzIuMjcxNDgyLTUuODQ4MDcgMi4yNzE0ODItNS4zNDk5MzggMi4yNzE0ODItNS4wNzA5ODRWLTQuMTc0MzQ2QzIuMjcxNDgyLTMuODE1NjkxIDIuMjcxNDgyLTMuNjY2MjUyIDEuOTEyODI3LTMuNTA2ODQ5QzEuNTU0MTcyLTMuMzU3NDEgMS4wNTYwNC0zLjM0NzQ0NyAuODI2ODk5LTMuMzQ3NDQ3Qy43NjcxMjMtMy4zNDc0NDcgLjU2Nzg3LTMuMjg3NjcxIC41Njc4Ny0zLjA0ODU2OEMuNTY3ODctMi43NDk2ODkgLjgwNjk3NC0yLjczOTcyNiAuOTA2Ni0yLjczOTcyNkMxLjE2NTYyOS0yLjcyOTc2MyAyLjI1MTU1Ny0yLjY5OTg3NSAyLjI3MTQ4Mi0yLjE2MTg5M1YtLjUwODA5NUMyLjI3MTQ4Mi0uMjA5MjE1IDIuMjcxNDgyIC4yMzkxMDMgMi43ODk1MzkgLjUyODAyQzMuMjA3OTcgLjc1NzE2MSAzLjc1NTkxNSAuODI2ODk5IDQuMjM0MTIyIC44MjY4OTlDNC40MTM0NSAuODI2ODk5IDQuNjUyNTUzIC44MjY4OTkgNC42NTI1NTMgLjUxODA1N1oiIGlkPSJnMC0zOCIvPiYjeGE7PHBhdGggZD0iTTQuNjUyNTUzLTMuMDM4NjA1QzQuNjUyNTUzLTMuMzM3NDg0IDQuNDEzNDUtMy4zNDc0NDcgNC4zMTM4MjMtMy4zNDc0NDdDNC4wNzQ3Mi0zLjM1NzQxIDIuOTc4ODI5LTMuMzc3MzM1IDIuOTU4OTA0LTMuOTM1MjQzVi01LjU5OTAwNEMyLjk1ODkwNC01Ljg3Nzk1OCAyLjk1ODkwNC02LjMyNjI3NiAyLjQ0MDg0Ny02LjYxNTE5M0MxLjk2MjY0LTYuODc0MjIyIDEuMzM0OTk0LTYuOTE0MDcyIC45ODYzMDEtNi45MTQwNzJDLjgxNjkzNi02LjkxNDA3MiAuNTY3ODctNi45MTQwNzIgLjU2Nzg3LTYuNjA1MjNDLjU2Nzg3LTYuMzQ2MjAyIC43NTcxNjEtNi4zMDYzNTEgLjg5NjYzOC02LjMwNjM1MUMyLjI3MTQ4Mi02LjI4NjQyNiAyLjI3MTQ4Mi01LjkyNzc3MSAyLjI3MTQ4Mi01LjU5OTAwNFYtMy45OTUwMTlDMi4yNzE0ODItMy41OTY1MTMgMi40MjA5MjItMy4yNzc3MDkgMi44NDkzMTUtMy4wNDg1NjhDMi4yOTE0MDctMi43Mjk3NjMgMi4yNzE0ODItMi4yNjE1MTkgMi4yNzE0ODItMi4yMjE2NjlWLS40NDgzMTlDMi4yNzE0ODItLjE1OTQwMiAyLjI3MTQ4MiAuMTk5MjUzIC44MjY4OTkgLjIxOTE3OEMuNzY3MTIzIC4yMTkxNzggLjU2Nzg3IC4yNzg5NTQgLjU2Nzg3IC41MTgwNTdDLjU2Nzg3IC44MjY4OTkgLjgxNjkzNiAuODI2ODk5IC45ODYzMDEgLjgyNjg5OUMxLjg1MzA1MSAuODI2ODk5IDIuNzk5NTAyIC42Mjc2NDYgMi45NDg5NDEtLjE3OTMyOEMyLjk1ODkwNC0uMjM5MTAzIDIuOTU4OTA0LS43MzcyMzUgMi45NTg5MDQtMS4wMTYxODlWLTEuOTEyODI3QzIuOTU4OTA0LTIuMjcxNDgyIDIuOTU4OTA0LTIuNDIwOTIyIDMuMzE3NTU5LTIuNTgwMzI0QzMuNjc2MjE0LTIuNzI5NzYzIDQuMTU0NDIxLTIuNzM5NzI2IDQuMzkzNTI0LTIuNzM5NzI2QzQuNDUzMy0yLjczOTcyNiA0LjY1MjU1My0yLjc5OTUwMiA0LjY1MjU1My0zLjAzODYwNVoiIGlkPSJnMC0zOSIvPiYjeGE7PHBhdGggZD0iTTQuODExOTU1IC41MjgwMkM0LjgxMTk1NSAuMjE5MTc4IDQuNTcyODUyIC4yMTkxNzggNC40MTM0NSAuMjE5MTc4SDIuODk5MTI4Vi02LjMwNjM1MUg0LjQxMzQ1QzQuNTYyODg5LTYuMzA2MzUxIDQuODExOTU1LTYuMzA2MzUxIDQuODExOTU1LTYuNjA1MjNDNC44MTE5NTUtNi45MTQwNzIgNC41NzI4NTItNi45MTQwNzIgNC40MTM0NS02LjkxNDA3MkgyLjYxMDIxMkMyLjI4MTQ0NS02LjkxNDA3MiAyLjIxMTcwNi02LjgyNDQwOCAyLjIxMTcwNi02LjUwNTYwNFYuNDE4NDMxQzIuMjExNzA2IC43MjcyNzMgMi4yNzE0ODIgLjgyNjg5OSAyLjYxMDIxMiAuODI2ODk5SDQuNDEzNDVDNC41NjI4ODkgLjgyNjg5OSA0LjgxMTk1NSAuODI2ODk5IDQuODExOTU1IC41MjgwMloiIGlkPSJnMC00MCIvPiYjeGE7PHBhdGggZD0iTTMuMDA4NzE3IC40MTg0MzFWLTYuNTA1NjA0QzMuMDA4NzE3LTYuODE0NDQ2IDIuOTQ4OTQxLTYuOTE0MDcyIDIuNjEwMjEyLTYuOTE0MDcySC44MDY5NzRDLjY1NzUzNC02LjkxNDA3MiAuNDA4NDY4LTYuOTE0MDcyIC40MDg0NjgtNi42MTUxOTNDLjQwODQ2OC02LjMwNjM1MSAuNjQ3NTcyLTYuMzA2MzUxIC44MDY5NzQtNi4zMDYzNTFIMi4zMjEyOTVWLjIxOTE3OEguODA2OTc0Qy42NTc1MzQgLjIxOTE3OCAuNDA4NDY4IC4yMTkxNzggLjQwODQ2OCAuNTE4MDU3Qy40MDg0NjggLjgyNjg5OSAuNjQ3NTcyIC44MjY4OTkgLjgwNjk3NCAuODI2ODk5SDIuNjEwMjEyQzIuOTM4OTc5IC44MjY4OTkgMy4wMDg3MTcgLjczNzIzNSAzLjAwODcxNyAuNDE4NDMxWiIgaWQ9ImcwLTQxIi8+JiN4YTs8cGF0aCBkPSJNNC44MjE5MTgtMS42NzM3MjRDNC44MjE5MTgtMi4wMDI0OTEgNC41ODI4MTQtMi4wMDI0OTEgNC40NzMyMjUtMi4wMDI0OTFDNC4zODM1NjItMi4wMDI0OTEgNC4xNTQ0MjEtMi4wMDI0OTEgNC4xMzQ0OTYtMS43MTM1NzRDNC4wNjQ3NTctLjczNzIzNSAzLjI1Nzc4My0uNDk4MTMyIDIuODQ5MzE1LS40OTgxMzJDMS45NDI3MTUtLjQ5ODEzMiAxLjA4NTkyOC0xLjU1NDE3MiAxLjA4NTkyOC0zLjA0ODU2OEMxLjA4NTkyOC00LjUzMzAwMSAxLjk1MjY3Ny01LjU4OTA0MSAyLjgzOTM1Mi01LjU4OTA0MUMzLjQzNzExMS01LjU4OTA0MSAzLjk4NTA1Ni01LjEzMDc2IDQuMTI0NTMzLTQuMzIzNzg2QzQuMTU0NDIxLTQuMTU0NDIxIDQuMTc0MzQ2LTMuOTk1MDE5IDQuNDczMjI1LTMuOTk1MDE5QzQuODIxOTE4LTMuOTk1MDE5IDQuODIxOTE4LTQuMjA0MjM0IDQuODIxOTE4LTQuNDAzNDg3Vi01Ljc4ODI5NEM0LjgyMTkxOC01Ljk0NzY5NiA0LjgyMTkxOC02LjE5Njc2MiA0LjUyMzAzOS02LjE5Njc2MkM0LjM0MzcxMS02LjE5Njc2MiA0LjI5Mzg5OC02LjA5NzEzNiA0LjI0NDA4NS02LjAyNzM5N0M0LjIyNDE1OS01Ljk4NzU0NyA0LjIyNDE1OS01Ljk2NzYyMSA0LjA5NDY0NS01LjcxODU1NUMzLjc2NTg3OC01Ljk5NzUwOSAzLjMwNzU5Ny02LjE5Njc2MiAyLjc5OTUwMi02LjE5Njc2MkMxLjUxNDMyMS02LjE5Njc2MiAuMzk4NTA2LTQuODYxNzY4IC4zOTg1MDYtMy4wNDg1NjhDLjM5ODUwNi0xLjIyNTQwNSAxLjUxNDMyMSAuMTA5NTg5IDIuODA5NDY1IC4xMDk1ODlDMy45NjUxMzEgLjEwOTU4OSA0LjgyMTkxOC0uNzc3MDg2IDQuODIxOTE4LTEuNjczNzI0WiIgaWQ9ImcwLTQyIi8+JiN4YTs8cGF0aCBkPSJNNC42NDI1OS0xLjA4NTkyOEM0LjY0MjU5LTEuMzY0ODgyIDQuMzUzNjc0LTEuMzY0ODgyIDQuMjkzODk4LTEuMzY0ODgyQzQuMTM0NDk2LTEuMzY0ODgyIDQuMDM0ODY5LTEuMzQ0OTU2IDMuOTY1MTMxLTEuMTQ1NzA0QzMuOTA1MzU1LTEuMDE2MTg5IDMuNzE2MDY1LS41NDc5NDUgMi45Nzg4MjktLjU0Nzk0NUMyLjEzMjAwNS0uNTQ3OTQ1IDEuNDE0Njk1LTEuMjQ1MzMgMS40MTQ2OTUtMi4xNTE5M0MxLjQxNDY5NS0yLjYzMDEzNyAxLjY5MzY0OS0zLjc3NTg0MSAzLjAzODYwNS0zLjc3NTg0MUMzLjI0NzgyMS0zLjc3NTg0MSAzLjYzNjM2NC0zLjc3NTg0MSAzLjYzNjM2NC0zLjY4NjE3N0MzLjY0NjMyNi0zLjMzNzQ4NCAzLjgzNTYxNi0zLjE5ODAwNyA0LjA3NDcyLTMuMTk4MDA3UzQuNTIzMDM5LTMuMzY3MzcyIDQuNTIzMDM5LTMuNjU2Mjg5QzQuNTIzMDM5LTQuMzgzNTYyIDMuNDg2OTI0LTQuMzgzNTYyIDMuMDM4NjA1LTQuMzgzNTYyQzEuMzI1MDMxLTQuMzgzNTYyIC43MjcyNzMtMy4wMjg2NDMgLjcyNzI3My0yLjE1MTkzQy43MjcyNzMtLjk1NjQxMyAxLjY2Mzc2MSAuMDU5Nzc2IDIuOTE5MDU0IC4wNTk3NzZDNC4zMDM4NjEgLjA1OTc3NiA0LjY0MjU5LS45MTY1NjMgNC42NDI1OS0xLjA4NTkyOFoiIGlkPSJnMC00MyIvPiYjeGE7PHBhdGggZD0iTTMuMjM3ODU4LTMuNjY2MjUyQzMuMjM3ODU4LTQuMDM0ODY5IDIuOTM4OTc5LTQuMjkzODk4IDIuNjIwMTc0LTQuMjkzODk4QzIuMjQxNTk0LTQuMjkzODk4IDEuOTkyNTI4LTMuOTg1MDU2IDEuOTkyNTI4LTMuNjc2MjE0QzEuOTkyNTI4LTMuMzA3NTk3IDIuMjkxNDA3LTMuMDQ4NTY4IDIuNjEwMjEyLTMuMDQ4NTY4QzIuOTg4NzkyLTMuMDQ4NTY4IDMuMjM3ODU4LTMuMzU3NDEgMy4yMzc4NTgtMy42NjYyNTJaTTMuMjM3ODU4LS42MTc2ODRDMy4yMzc4NTgtLjk4NjMwMSAyLjkzODk3OS0xLjI0NTMzIDIuNjIwMTc0LTEuMjQ1MzNDMi4yNDE1OTQtMS4yNDUzMyAxLjk5MjUyOC0uOTM2NDg4IDEuOTkyNTI4LS42Mjc2NDZDMS45OTI1MjgtLjI1OTAyOSAyLjI5MTQwNyAwIDIuNjEwMjEyIDBDMi45ODg3OTIgMCAzLjIzNzg1OC0uMzA4ODQyIDMuMjM3ODU4LS42MTc2ODRaIiBpZD0iZzAtNDQiLz4mI3hhOzxwYXRoIGQ9Ik0zLjQ0NzA3My0uMjQ5MDY2QzMuNDQ3MDczLS44NTY3ODcgMy4wNTg1MzEtMS4yNDUzMyAyLjYyMDE3NC0xLjI0NTMzQzIuMjIxNjY5LTEuMjQ1MzMgMS45OTI1MjgtLjk0NjQ1MSAxLjk5MjUyOC0uNjI3NjQ2QzEuOTkyNTI4LS4yNDkwNjYgMi4yODE0NDUgMCAyLjYxMDIxMiAwQzIuNjY5OTg4IDAgMi43Mzk3MjYtLjAwOTk2MyAyLjgwOTQ2NS0uMDI5ODg4QzIuNjYwMDI1IC41ODc3OTYgMi4xOTE3ODEgLjc0NzE5OCAyLjA3MjIyOSAuNzg3MDQ5QzEuOTcyNjAzIC44MTY5MzYgMS43OTMyNzUgLjg2Njc1IDEuNzkzMjc1IDEuMDY2MDAyQzEuNzkzMjc1IDEuMjE1NDQyIDEuOTQyNzE1IDEuMzg0ODA3IDIuMTEyMDggMS4zODQ4MDdDMi40MzA4ODQgMS4zODQ4MDcgMy40NDcwNzMgLjg0NjgyNCAzLjQ0NzA3My0uMjQ5MDY2WiIgaWQ9ImcwLTQ1Ii8+JiN4YTs8cGF0aCBkPSJNNS4xMDA4NzItLjMwODg0MkM1LjEwMDg3Mi0uNjA3NzIxIDQuODQxODQzLS42MDc3MjEgNC43MDIzNjYtLjYwNzcyMUg0LjI1NDA0N1YtNS42Nzg3MDVDNC4yNTQwNDctNS45ODc1NDcgNC4xOTQyNzEtNi4wODcxNzMgMy44NTU1NDItNi4wODcxNzNIMy4xMjgyNjlDMi45Njg4NjctNi4wODcxNzMgMi43MTk4MDEtNi4wODcxNzMgMi43MTk4MDEtNS43NzgzMzFDMi43MTk4MDEtNS40Nzk0NTIgMi45Nzg4MjktNS40Nzk0NTIgMy4xMTgzMDYtNS40Nzk0NTJIMy41NjY2MjVWLTMuOTA1MzU1QzMuMjM3ODU4LTQuMTk0MjcxIDIuODI5MzktNC4zNTM2NzQgMi40MDA5OTYtNC4zNTM2NzRDMS4zMTUwNjgtNC4zNTM2NzQgLjM1ODY1NS0zLjQwNzIyMyAuMzU4NjU1LTIuMTQxOTY4Qy4zNTg2NTUtLjkwNjYgMS4yNTUyOTMgLjA1OTc3NiAyLjMxMTMzMyAuMDU5Nzc2QzIuODY5MjQgLjA1OTc3NiAzLjI4NzY3MS0uMjA5MjE1IDMuNTY2NjI1LS40OTgxMzJDMy41NjY2MjUtLjEzOTQ3NyAzLjU2NjYyNSAwIDMuOTY1MTMxIDBINC42OTI0MDNDNC44NTE4MDYgMCA1LjEwMDg3MiAwIDUuMTAwODcyLS4zMDg4NDJaTTMuNTY2NjI1LTEuOTMyNzUyQzMuNTY2NjI1LTEuMzc0ODQ0IDMuMTE4MzA2LS41NDc5NDUgMi4zNTExODMtLjU0Nzk0NUMxLjY0MzgzNi0uNTQ3OTQ1IDEuMDQ2MDc3LTEuMjU1MjkzIDEuMDQ2MDc3LTIuMTQxOTY4QzEuMDQ2MDc3LTMuMDk4MzgxIDEuNzQzNDYyLTMuNzQ1OTUzIDIuNDQwODQ3LTMuNzQ1OTUzQzMuMDc4NDU2LTMuNzQ1OTUzIDMuNTY2NjI1LTMuMTg4MDQ1IDMuNTY2NjI1LTIuNjQwMVYtMS45MzI3NTJaIiBpZD0iZzAtNDciLz4mI3hhOzxwYXRoIGQ9Ik00LjYyMjY2NS0xLjA4NTkyOEM0LjYyMjY2NS0xLjM2NDg4MiA0LjMzMzc0OC0xLjM2NDg4MiA0LjI3Mzk3My0xLjM2NDg4MkM0LjA5NDY0NS0xLjM2NDg4MiA0LjAxNDk0NC0xLjMzNDk5NCAzLjk0NTIwNS0xLjE0NTcwNEMzLjcyNjAyNy0uNjM3NjA5IDMuMTg4MDQ1LS41NDc5NDUgMi45MDkwOTEtLjU0Nzk0NUMyLjE2MTg5My0uNTQ3OTQ1IDEuNDE0Njk1LTEuMDQ2MDc3IDEuMjU1MjkzLTEuOTAyODY0SDQuMjI0MTU5QzQuNDMzMzc1LTEuOTAyODY0IDQuNjIyNjY1LTEuOTAyODY0IDQuNjIyNjY1LTIuMjcxNDgyQzQuNjIyNjY1LTMuNDA3MjIzIDMuOTg1MDU2LTQuMzgzNTYyIDIuNjg5OTEzLTQuMzgzNTYyQzEuNTA0MzU5LTQuMzgzNTYyIC41NDc5NDUtMy4zODcyOTggLjU0Nzk0NS0yLjE2MTg5M0MuNTQ3OTQ1LS45NDY0NTEgMS41NTQxNzIgLjA1OTc3NiAyLjgzOTM1MiAuMDU5Nzc2QzQuMTU0NDIxIC4wNTk3NzYgNC42MjI2NjUtLjgzNjg2MiA0LjYyMjY2NS0xLjA4NTkyOFpNMy45MTUzMTgtMi41MDA2MjNIMS4yNjUyNTVDMS40MDQ3MzItMy4yMjc4OTUgMS45OTI1MjgtMy43NzU4NDEgMi42ODk5MTMtMy43NzU4NDFDMy4yMDc5Ny0zLjc3NTg0MSAzLjgyNTY1NC0zLjUyNjc3NSAzLjkxNTMxOC0yLjUwMDYyM1oiIGlkPSJnMC01MCIvPiYjeGE7PHBhdGggZD0iTTQuNzgyMDY3LTEuNzMzNDk5QzQuNzgyMDY3LTIuNDgwNjk3IDQuMTM0NDk2LTMuMDY4NDkzIDMuMzk3MjYtMy4yNzc3MDlDNC4xOTQyNzEtMy41NDY3IDQuNjQyNTktNC4wMzQ4NjkgNC42NDI1OS00LjYwMjc0QzQuNjQyNTktNS40MTk2NzYgMy43OTU3NjYtNi4xOTY3NjIgMi42MTAyMTItNi4xOTY3NjJDMS40MTQ2OTUtNi4xOTY3NjIgLjU3NzgzMy01LjQwOTcxNCAuNTc3ODMzLTQuNjAyNzRDLjU3NzgzMy00LjAzNDg2OSAxLjAzNjExNS0zLjUzNjczNyAxLjgyMzE2My0zLjI3NzcwOUMxLjA3NTk2NS0zLjA2ODQ5MyAuNDM4MzU2LTIuNDgwNjk3IC40MzgzNTYtMS43MzM0OTlDLjQzODM1Ni0uNzY3MTIzIDEuMzY0ODgyIC4xMDk1ODkgMi42MTAyMTIgLjEwOTU4OUMzLjg2NTUwNCAuMTA5NTg5IDQuNzgyMDY3LS43NjcxMjMgNC43ODIwNjctMS43MzM0OTlaTTMuOTU1MTY4LTQuNTkyNzc3QzMuOTU1MTY4LTQuMDI0OTA3IDMuMzM3NDg0LTMuNTg2NTUgMi42MTAyMTItMy41ODY1NVMxLjI2NTI1NS00LjAzNDg2OSAxLjI2NTI1NS00LjU5Mjc3N0MxLjI2NTI1NS01LjExMDgzNCAxLjgyMzE2My01LjU4OTA0MSAyLjYxMDIxMi01LjU4OTA0MUMzLjM4NzI5OC01LjU4OTA0MSAzLjk1NTE2OC01LjExMDgzNCAzLjk1NTE2OC00LjU5Mjc3N1pNNC4wOTQ2NDUtMS43NDM0NjJDNC4wOTQ2NDUtMS4wNTYwNCAzLjQzNzExMS0uNDk4MTMyIDIuNjEwMjEyLS40OTgxMzJTMS4xMjU3NzgtMS4wNTYwNCAxLjEyNTc3OC0xLjc0MzQ2MkMxLjEyNTc3OC0yLjM1MTE4MyAxLjcwMzYxMS0yLjk3ODgyOSAyLjYxMDIxMi0yLjk3ODgyOUMzLjUyNjc3NS0yLjk3ODgyOSA0LjA5NDY0NS0yLjM1MTE4MyA0LjA5NDY0NS0xLjc0MzQ2MloiIGlkPSJnMC01MSIvPiYjeGE7PHBhdGggZD0iTTQuMzUzNjc0LTUuNTQ5MTkxQzQuMzUzNjc0LTYuMTQ2OTQ5IDMuNTU2NjYzLTYuMTQ2OTQ5IDMuMzk3MjYtNi4xNDY5NDlDMi42MDAyNDktNi4xNDY5NDkgMS44MzMxMjYtNS42ODg2NjcgMS44MzMxMjYtNC44MjE5MThWLTQuMjkzODk4SC44MzY4NjJDLjY3NzQ2LTQuMjkzODk4IC40MjgzOTQtNC4yOTM4OTggLjQyODM5NC0zLjk4NTA1NkMuNDI4Mzk0LTMuNjg2MTc3IC42Nzc0Ni0zLjY4NjE3NyAuODI2ODk5LTMuNjg2MTc3SDEuODMzMTI2Vi0uNjA3NzIxSC44MjY4OTlDLjY3NzQ2LS42MDc3MjEgLjQxODQzMS0uNjA3NzIxIC40MTg0MzEtLjMwODg0MkMuNDE4NDMxIDAgLjY3NzQ2IDAgLjgyNjg5OSAwSDMuNTI2Nzc1QzMuNjc2MjE0IDAgMy45MzUyNDMgMCAzLjkzNTI0My0uMjk4ODc5QzMuOTM1MjQzLS42MDc3MjEgMy42NzYyMTQtLjYwNzcyMSAzLjUyNjc3NS0uNjA3NzIxSDIuNTIwNTQ4Vi0zLjY4NjE3N0gzLjczNTk5QzMuODg1NDMtMy42ODYxNzcgNC4xMzQ0OTYtMy42ODYxNzcgNC4xMzQ0OTYtMy45ODUwNTZDNC4xMzQ0OTYtNC4yOTM4OTggMy44OTUzOTItNC4yOTM4OTggMy43MzU5OS00LjI5Mzg5OEgyLjUyMDU0OFYtNC43NjIxNDJDMi41MjA1NDgtNS41MzkyMjggMy4xODgwNDUtNS41MzkyMjggMy40ODY5MjQtNS41MzkyMjhDMy40ODY5MjQtNS40OTkzNzcgMy41NzY1ODgtNS4xMTA4MzQgMy45MjUyOC01LjExMDgzNEM0LjEyNDUzMy01LjExMDgzNCA0LjM1MzY3NC01LjI3MDIzNyA0LjM1MzY3NC01LjU0OTE5MVoiIGlkPSJnMC01NSIvPiYjeGE7PHBhdGggZD0iTTQuNzAyMzY2LTEuODkyOTAyQzQuNzAyMzY2LTIuODk5MTI4IDMuOTM1MjQzLTMuODc1NDY3IDIuNzU5NjUxLTMuODc1NDY3QzIuNDEwOTU5LTMuODc1NDY3IDEuOTcyNjAzLTMuODA1NzI5IDEuNTY0MTM0LTMuNTg2NTVWLTUuNDc5NDUySDMuOTU1MTY4QzQuMTA0NjA4LTUuNDc5NDUyIDQuMzUzNjc0LTUuNDc5NDUyIDQuMzUzNjc0LTUuNzc4MzMxQzQuMzUzNjc0LTYuMDg3MTczIDQuMTE0NTctNi4wODcxNzMgMy45NTUxNjgtNi4wODcxNzNIMS4yNzUyMThDLjk0NjQ1MS02LjA4NzE3MyAuODc2NzEyLTUuOTk3NTA5IC44NzY3MTItNS42Nzg3MDVWLTMuMDI4NjQzQy44NzY3MTItMi44NDkzMTUgLjg3NjcxMi0yLjYyMDE3NCAxLjE5NTUxNy0yLjYyMDE3NEMxLjM3NDg0NC0yLjYyMDE3NCAxLjQxNDY5NS0yLjY2OTk4OCAxLjQ5NDM5Ni0yLjc2OTYxNEMxLjc2MzM4Ny0zLjA4ODQxOCAyLjE3MTg1Ni0zLjI2Nzc0NiAyLjc0OTY4OS0zLjI2Nzc0NkMzLjU2NjYyNS0zLjI2Nzc0NiA0LjAxNDk0NC0yLjU0MDQ3MyA0LjAxNDk0NC0xLjg5MjkwMkM0LjAxNDk0NC0xLjA5NTg5IDMuMzA3NTk3LS40OTgxMzIgMi40NzA3MzUtLjQ5ODEzMkMyLjE5MTc4MS0uNDk4MTMyIDEuNTU0MTcyLS41Nzc4MzMgMS4yNzUyMTgtMS4xMjU3NzhDMS4zMjUwMzEtMS4xNzU1OTIgMS40MDQ3MzItMS4yNDUzMyAxLjQwNDczMi0xLjQ0NDU4M0MxLjQwNDczMi0xLjczMzQ5OSAxLjE3NTU5Mi0xLjg5MjkwMiAuOTY2Mzc2LTEuODkyOTAyQy44MTY5MzYtMS44OTI5MDIgLjUxODA1Ny0xLjgwMzIzOCAuNTE4MDU3LTEuNDE0Njk1Qy41MTgwNTctLjU4Nzc5NiAxLjM1NDkxOSAuMTA5NTg5IDIuNDcwNzM1IC4xMDk1ODlDMy43MTYwNjUgLjEwOTU4OSA0LjcwMjM2Ni0uNzg3MDQ5IDQuNzAyMzY2LTEuODkyOTAyWiIgaWQ9ImcwLTU2Ii8+JiN4YTs8cGF0aCBkPSJNNC45MzE1MDctMS45ODI1NjVDNC45MzE1MDctMi4yOTE0MDcgNC42OTI0MDMtMi4yOTE0MDcgNC41MzMwMDEtMi4yOTE0MDdIMy43NTU5MTVWLTUuNzk4MjU3QzMuNzU1OTE1LTYuMTI3MDI0IDMuNjg2MTc3LTYuMjA2NzI1IDMuMzQ3NDQ3LTYuMjA2NzI1SDMuMDY4NDkzQzIuODI5MzktNi4yMDY3MjUgMi43Nzk1NzctNi4xOTY3NjIgMi42NTAwNjItNS45OTc1MDlMLjM3ODU4LTIuNDMwODg0Qy4yODg5MTctMi4zMDEzNyAuMjg4OTE3LTIuMjgxNDQ1IC4yODg5MTctMi4wODIxOTJDLjI4ODkxNy0xLjc1MzQyNSAuMzc4NTgtMS42ODM2ODYgLjY4NzQyMi0xLjY4MzY4NkgzLjE5ODAwN1YtLjYwNzcyMUgyLjU4MDMyNEMyLjQyMDkyMi0uNjA3NzIxIDIuMTgxODE4LS42MDc3MjEgMi4xODE4MTgtLjI5ODg3OUMyLjE4MTgxOCAwIDIuNDMwODg0IDAgMi41ODAzMjQgMEg0LjM3MzU5OUM0LjUyMzAzOSAwIDQuNzcyMTA1IDAgNC43NzIxMDUtLjI5ODg3OUM0Ljc3MjEwNS0uNjA3NzIxIDQuNTMzMDAxLS42MDc3MjEgNC4zNzM1OTktLjYwNzcyMUgzLjc1NTkxNVYtMS42ODM2ODZINC41MzMwMDFDNC42ODI0NDEtMS42ODM2ODYgNC45MzE1MDctMS42ODM2ODYgNC45MzE1MDctMS45ODI1NjVaTTMuMTk4MDA3LTIuMjkxNDA3SC45ODYzMDFMMy4xOTgwMDctNS43NjgzNjlWLTIuMjkxNDA3WiIgaWQ9ImcwLTU3Ii8+JiN4YTs8cGF0aCBkPSJNNS4wNzA5ODQtMy44NjU1MDRDNS4wNzA5ODQtNC4wOTQ2NDUgNC44ODE2OTQtNC40MDM0ODcgNC4zNDM3MTEtNC40MDM0ODdDNC4yMzQxMjItNC40MDM0ODcgMy43NDU5NTMtNC4zOTM1MjQgMy4yODc2NzEtNC4wNTQ3OTVDMy4xMjgyNjktNC4xNjQzODQgMi43Nzk1NzctNC4zNTM2NzQgMi4zMjEyOTUtNC4zNTM2NzRDMS4zODQ4MDctNC4zNTM2NzQgLjY3NzQ2LTMuNjA2NDc2IC42Nzc0Ni0yLjc1OTY1MUMuNjc3NDYtMi4zMzEyNTggLjg0NjgyNC0yLjAwMjQ5MSAuOTk2MjY0LTEuODEzMkMuODg2Njc1LTEuNjUzNzk4IC43OTcwMTEtMS40MzQ2MiAuNzk3MDExLTEuMTM1NzQxQy43OTcwMTEtLjc4NzA0OSAuOTM2NDg4LS41Mzc5ODMgMS4wMjYxNTItLjQxODQzMUMuMjg4OTE3IC4wMjk4ODggLjI4ODkxNyAuNzA3MzQ3IC4yODg5MTcgLjgxNjkzNkMuMjg4OTE3IDEuNjczNzI0IDEuMzM0OTk0IDIuMjgxNDQ1IDIuNjEwMjEyIDIuMjgxNDQ1UzQuOTMxNTA3IDEuNjYzNzYxIDQuOTMxNTA3IC44MTY5MzZDNC45MzE1MDcgLjQ0ODMxOSA0Ljc1MjE3OS0uMDQ5ODEzIDQuMjQ0MDg1LS4zMTg4MDRDNC4xMTQ1Ny0uMzg4NTQzIDMuNjk2MTM5LS42MDc3MjEgMi43OTk1MDItLjYwNzcyMUgyLjEwMjExN0MyLjAyMjQxNi0uNjA3NzIxIDEuODkyOTAyLS42MDc3MjEgMS44MTMyLS42Mjc2NDZDMS42NjM3NjEtLjYyNzY0NiAxLjYwMzk4NS0uNjI3NjQ2IDEuNDg0NDMzLS43NjcxMjNDMS4zNzQ4NDQtLjkwNjYgMS4zNjQ4ODItMS4xMjU3NzggMS4zNjQ4ODItMS4xMjU3NzhDMS4zNjQ4ODItMS4xNjU2MjkgMS4zODQ4MDctMS4zMDUxMDYgMS40MjQ2NTgtMS40MDQ3MzJDMS40NTQ1NDUtMS4zODQ4MDcgMS44MzMxMjYtMS4xNTU2NjYgMi4zMjEyOTUtMS4xNTU2NjZDMy4yMzc4NTgtMS4xNTU2NjYgMy45NjUxMzEtMS44NzI5NzYgMy45NjUxMzEtMi43NTk2NTFDMy45NjUxMzEtMy4wNTg1MzEgMy44NzU0NjctMy4zNDc0NDcgMy43MDYxMDItMy42MjY0MDFDMy45MTUzMTgtMy43NDU5NTMgNC4xNTQ0MjEtMy43ODU4MDMgNC4yODM5MzUtMy43OTU3NjZDNC4zNDM3MTEtMy41MjY3NzUgNC41NzI4NTItMy40NTcwMzYgNC42NzI0NzgtMy40NTcwMzZDNC44NDE4NDMtMy40NTcwMzYgNS4wNzA5ODQtMy41NzY1ODggNS4wNzA5ODQtMy44NjU1MDRaTTMuMjc3NzA5LTIuNzU5NjUxQzMuMjc3NzA5LTIuMTkxNzgxIDIuODM5MzUyLTEuNzUzNDI1IDIuMzIxMjk1LTEuNzUzNDI1QzEuNzgzMzEzLTEuNzUzNDI1IDEuMzY0ODgyLTIuMjIxNjY5IDEuMzY0ODgyLTIuNzQ5Njg5QzEuMzY0ODgyLTMuMzE3NTU5IDEuODAzMjM4LTMuNzU1OTE1IDIuMzIxMjk1LTMuNzU1OTE1QzIuODU5Mjc4LTMuNzU1OTE1IDMuMjc3NzA5LTMuMjg3NjcxIDMuMjc3NzA5LTIuNzU5NjUxWk00LjM1MzY3NCAuODE2OTM2QzQuMzUzNjc0IDEuMjU1MjkzIDMuNjA2NDc2IDEuNjgzNjg2IDIuNjEwMjEyIDEuNjgzNjg2Uy44NjY3NSAxLjI1NTI5MyAuODY2NzUgLjgxNjkzNkMuODY2NzUgLjYzNzYwOSAuOTU2NDEzIC4zMTg4MDQgMS4yNzUyMTggLjExOTU1MkMxLjUyNDI4NC0uMDM5ODUxIDEuNjEzOTQ4LS4wMzk4NTEgMi4zNDEyMi0uMDM5ODUxQzMuMjI3ODk1LS4wMzk4NTEgNC4zNTM2NzQtLjAzOTg1MSA0LjM1MzY3NCAuODE2OTM2WiIgaWQ9ImcwLTU5Ii8+JiN4YTs8cGF0aCBkPSJNNC42NjI1MTYtMy4wNDg1NjhDNC42NjI1MTYtMy4xNzgwODIgNC41ODI4MTQtMy4yODc2NzEgNC40ODMxODgtMy4zNTc0MUwxLjE2NTYyOS01LjQzOTYwMUMxLjAyNjE1Mi01LjUyOTI2NSAuOTk2MjY0LTUuNTM5MjI4IC45MDY2LTUuNTM5MjI4Qy43NDcxOTgtNS41MzkyMjggLjU1NzkwOC01LjQxOTY3NiAuNTU3OTA4LTUuMTkwNTM1Qy41NTc5MDgtNS4wMDEyNDUgLjY4NzQyMi00LjkyMTU0NCAuNzk3MDExLTQuODUxODA2TDMuNjU2Mjg5LTMuMDQ4NTY4TC43OTcwMTEtMS4yNDUzM0MuNjg3NDIyLTEuMTc1NTkyIC41NTc5MDgtMS4wOTU4OSAuNTU3OTA4LS45MDY2Qy41NTc5MDgtLjY3NzQ2IC43NDcxOTgtLjU1NzkwOCAuOTA2Ni0uNTU3OTA4Qy45OTYyNjQtLjU1NzkwOCAxLjAyNjE1Mi0uNTY3ODcgMS4xNjU2MjktLjY1NzUzNEw0LjQ0MzMzNy0yLjcxOTgwMUM0LjUzMzAwMS0yLjc3OTU3NyA0LjY2MjUxNi0yLjg1OTI3OCA0LjY2MjUxNi0zLjA0ODU2OFoiIGlkPSJnMC02MSIvPiYjeGE7PHBhdGggZD0iTTUuMTAwODcyLS4yOTg4NzlDNS4xMDA4NzItLjYwNzcyMSA0Ljg1MTgwNi0uNjA3NzIxIDQuNjkyNDAzLS42MDc3MjFINC4yNTQwNDdWLTIuOTE5MDU0QzQuMjU0MDQ3LTMuOTI1MjggMy43NDU5NTMtNC4zNTM2NzQgMi45NTg5MDQtNC4zNTM2NzRDMi4yOTE0MDctNC4zNTM2NzQgMS44NDMwODgtNC4wMTQ5NDQgMS42NTM3OTgtMy44MjU2NTRWLTUuNjc4NzA1QzEuNjUzNzk4LTUuOTg3NTQ3IDEuNTk0MDIyLTYuMDg3MTczIDEuMjU1MjkzLTYuMDg3MTczSC41MjgwMkMuMzY4NjE4LTYuMDg3MTczIC4xMTk1NTItNi4wODcxNzMgLjExOTU1Mi01Ljc3ODMzMUMuMTE5NTUyLTUuNDc5NDUyIC4zNzg1OC01LjQ3OTQ1MiAuNTE4MDU3LTUuNDc5NDUySC45NjYzNzZWLS42MDc3MjFILjUyODAyQy4zNjg2MTgtLjYwNzcyMSAuMTE5NTUyLS42MDc3MjEgLjExOTU1Mi0uMjk4ODc5Qy4xMTk1NTIgMCAuMzc4NTggMCAuNTE4MDU3IDBIMi4xMDIxMTdDMi4yNDE1OTQgMCAyLjUwMDYyMyAwIDIuNTAwNjIzLS4yOTg4NzlDMi41MDA2MjMtLjYwNzcyMSAyLjI1MTU1Ny0uNjA3NzIxIDIuMDkyMTU0LS42MDc3MjFIMS42NTM3OThWLTIuMzcxMTA4QzEuNjUzNzk4LTMuMzY3MzcyIDIuMzkxMDM0LTMuNzQ1OTUzIDIuODk5MTI4LTMuNzQ1OTUzQzMuNDI3MTQ4LTMuNzQ1OTUzIDMuNTY2NjI1LTMuNDY2OTk5IDMuNTY2NjI1LTIuODY5MjRWLS42MDc3MjFIMy4xNzgwODJDMy4wMTg2OC0uNjA3NzIxIDIuNzY5NjE0LS42MDc3MjEgMi43Njk2MTQtLjI5ODg3OUMyLjc2OTYxNCAwIDMuMDM4NjA1IDAgMy4xNzgwODIgMEg0LjcwMjM2NkM0Ljg0MTg0MyAwIDUuMTAwODcyIDAgNS4xMDA4NzItLjI5ODg3OVoiIGlkPSJnMC02MyIvPiYjeGE7PHBhdGggZD0iTTQuNTMzMDAxLS4yOTg4NzlDNC41MzMwMDEtLjYwNzcyMSA0LjI3Mzk3My0uNjA3NzIxIDQuMTI0NTMzLS42MDc3MjFIMy4wNzg0NTZWLTMuODg1NDNDMy4wNzg0NTYtNC4xOTQyNzEgMy4wMTg2OC00LjI5Mzg5OCAyLjY3OTk1LTQuMjkzODk4SDEuMjY1MjU1QzEuMTE1ODE2LTQuMjkzODk4IC44NTY3ODctNC4yOTM4OTggLjg1Njc4Ny0zLjk5NTAxOUMuODU2Nzg3LTMuNjg2MTc3IDEuMTE1ODE2LTMuNjg2MTc3IDEuMjY1MjU1LTMuNjg2MTc3SDIuMzkxMDM0Vi0uNjA3NzIxSDEuMTg1NTU0QzEuMDI2MTUyLS42MDc3MjEgLjc3NzA4Ni0uNjA3NzIxIC43NzcwODYtLjI5ODg3OUMuNzc3MDg2IDAgMS4wMzYxMTUgMCAxLjE4NTU1NCAwSDQuMTI0NTMzQzQuMjczOTczIDAgNC41MzMwMDEgMCA0LjUzMzAwMS0uMjk4ODc5Wk0zLjExODMwNi01LjUyOTI2NUMzLjExODMwNi01LjgwODIxOSAyLjg5OTEyOC02LjAyNzM5NyAyLjYyMDE3NC02LjAyNzM5N1MyLjEyMjA0Mi01LjgwODIxOSAyLjEyMjA0Mi01LjUyOTI2NVMyLjM0MTIyLTUuMDMxMTMzIDIuNjIwMTc0LTUuMDMxMTMzUzMuMTE4MzA2LTUuMjUwMzExIDMuMTE4MzA2LTUuNTI5MjY1WiIgaWQ9ImcwLTY2Ii8+JiN4YTs8cGF0aCBkPSJNNS4wNjEwMjEtLjI5ODg3OUM1LjA2MTAyMS0uNjA3NzIxIDQuODAxOTkzLS42MDc3MjEgNC42NTI1NTMtLjYwNzcyMUg0LjM0MzcxMUwyLjg1OTI3OC0yLjU0MDQ3M0w0LjA4NDY4Mi0zLjY4NjE3N0g0LjQzMzM3NUM0LjU4MjgxNC0zLjY4NjE3NyA0Ljg0MTg0My0zLjY4NjE3NyA0Ljg0MTg0My0zLjk4NTA1NkM0Ljg0MTg0My00LjI5Mzg5OCA0LjU4MjgxNC00LjI5Mzg5OCA0LjQzMzM3NS00LjI5Mzg5OEgyLjg5OTEyOEMyLjczOTcyNi00LjI5Mzg5OCAyLjUwMDYyMy00LjI5Mzg5OCAyLjUwMDYyMy0zLjk4NTA1NkMyLjUwMDYyMy0zLjY4NjE3NyAyLjc0OTY4OS0zLjY4NjE3NyAyLjg5OTEyOC0zLjY4NjE3N0gzLjI2Nzc0NkwxLjY1Mzc5OC0yLjE3MTg1NlYtNS42Nzg3MDVDMS42NTM3OTgtNS45ODc1NDcgMS41OTQwMjItNi4wODcxNzMgMS4yNTUyOTMtNi4wODcxNzNILjYwNzcyMUMuNDU4MjgxLTYuMDg3MTczIC4yMDkyMTUtNi4wODcxNzMgLjIwOTIxNS01Ljc4ODI5NEMuMjA5MjE1LTUuNDc5NDUyIC40NDgzMTktNS40Nzk0NTIgLjYwNzcyMS01LjQ3OTQ1MkgxLjA5NTg5Vi0uNjA3NzIxSC42MDc3MjFDLjQ1ODI4MS0uNjA3NzIxIC4yMDkyMTUtLjYwNzcyMSAuMjA5MjE1LS4zMDg4NDJDLjIwOTIxNSAwIC40NDgzMTkgMCAuNjA3NzIxIDBIMi4xNDE5NjhDMi4yOTE0MDcgMCAyLjU0MDQ3MyAwIDIuNTQwNDczLS4yOTg4NzlDMi41NDA0NzMtLjYwNzcyMSAyLjMwMTM3LS42MDc3MjEgMi4xNDE5NjgtLjYwNzcyMUgxLjY1Mzc5OFYtMS40MTQ2OTVMMi40NTA4MDktMi4xNTE5M0wzLjYzNjM2NC0uNjA3NzIxQzMuMjc3NzA5LS42MDc3MjEgMy4wNzg0NTYtLjYwNzcyMSAzLjA3ODQ1Ni0uMjk4ODc5QzMuMDc4NDU2IDAgMy4zMjc1MjIgMCAzLjQ3Njk2MSAwSDQuNjUyNTUzQzQuODAxOTkzIDAgNS4wNjEwMjEgMCA1LjA2MTAyMS0uMjk4ODc5WiIgaWQ9ImcwLTcwIi8+JiN4YTs8cGF0aCBkPSJNNC42NTI1NTMtLjI5ODg3OUM0LjY1MjU1My0uNjA3NzIxIDQuNDEzNDUtLjYwNzcyMSA0LjI1NDA0Ny0uNjA3NzIxSDIuOTU4OTA0Vi01LjY3ODcwNUMyLjk1ODkwNC01Ljk4NzU0NyAyLjg5OTEyOC02LjA4NzE3MyAyLjU2MDM5OS02LjA4NzE3M0guOTg2MzAxQy44MjY4OTktNi4wODcxNzMgLjU3NzgzMy02LjA4NzE3MyAuNTc3ODMzLTUuNzc4MzMxQy41Nzc4MzMtNS40Nzk0NTIgLjgzNjg2Mi01LjQ3OTQ1MiAuOTc2MzM5LTUuNDc5NDUySDIuMjcxNDgyVi0uNjA3NzIxSC45ODYzMDFDLjgyNjg5OS0uNjA3NzIxIC41Nzc4MzMtLjYwNzcyMSAuNTc3ODMzLS4yOTg4NzlDLjU3NzgzMyAwIC44MzY4NjIgMCAuOTc2MzM5IDBINC4yNTQwNDdDNC40MDM0ODcgMCA0LjY1MjU1MyAwIDQuNjUyNTUzLS4yOTg4NzlaIiBpZD0iZzAtNzIiLz4mI3hhOzxwYXRoIGQ9Ik00LjY2MjUxNi0uOTA2NkM0LjY2MjUxNi0xLjA5NTg5IDQuNTMzMDAxLTEuMTc1NTkyIDQuNDIzNDEyLTEuMjQ1MzNMMS41NjQxMzQtMy4wNDg1NjhMNC40MjM0MTItNC44NTE4MDZDNC41MzMwMDEtNC45MjE1NDQgNC42NjI1MTYtNS4wMDEyNDUgNC42NjI1MTYtNS4xOTA1MzVDNC42NjI1MTYtNS40MTk2NzYgNC40NzMyMjUtNS41MzkyMjggNC4zMTM4MjMtNS41MzkyMjhDNC4yMjQxNTktNS41MzkyMjggNC4xOTQyNzEtNS41MjkyNjUgNC4wNTQ3OTUtNS40Mzk2MDFMLjc3NzA4Ni0zLjM3NzMzNUMuNjg3NDIyLTMuMzE3NTU5IC41NTc5MDgtMy4yMzc4NTggLjU1NzkwOC0zLjA0ODU2OEMuNTU3OTA4LTIuOTE5MDU0IC42Mzc2MDktMi44MDk0NjUgLjczNzIzNS0yLjczOTcyNkw0LjA1NDc5NS0uNjU3NTM0QzQuMTk0MjcxLS41Njc4NyA0LjIyNDE1OS0uNTU3OTA4IDQuMzEzODIzLS41NTc5MDhDNC40NzMyMjUtLjU1NzkwOCA0LjY2MjUxNi0uNjc3NDYgNC42NjI1MTYtLjkwNjZaIiBpZD0iZzAtNzMiLz4mI3hhOzxwYXRoIGQ9Ik01LjE0MDcyMi0uMjk4ODc5QzUuMTQwNzIyLS42MDc3MjEgNC45MzE1MDctLjYwNzcyMSA0LjU3Mjg1Mi0uNjA3NzIxVi0zLjAxODY4QzQuNTcyODUyLTMuMjE3OTMzIDQuNTcyODUyLTQuMzUzNjc0IDMuNjg2MTc3LTQuMzUzNjc0QzMuMzg3Mjk4LTQuMzUzNjc0IDIuOTc4ODI5LTQuMjI0MTU5IDIuNjk5ODc1LTMuODM1NjE2QzIuNTUwNDM2LTQuMTc0MzQ2IDIuMjcxNDgyLTQuMzUzNjc0IDEuOTQyNzE1LTQuMzUzNjc0QzEuNjIzOTEtNC4zNTM2NzQgMS4zMjUwMzEtNC4yMTQxOTcgMS4wODU5MjgtMy45OTUwMTlDMS4wNjYwMDItNC4yOTM4OTggLjg2Njc1LTQuMjkzODk4IC42ODc0MjItNC4yOTM4OThILjM2ODYxOEMuMjE5MTc4LTQuMjkzODk4LS4wMzk4NTEtNC4yOTM4OTgtLjAzOTg1MS0zLjk5NTAxOUMtLjAzOTg1MS0zLjY4NjE3NyAuMTY5MzY1LTMuNjg2MTc3IC41MjgwMi0zLjY4NjE3N1YtLjYwNzcyMUMuMTY5MzY1LS42MDc3MjEtLjAzOTg1MS0uNjA3NzIxLS4wMzk4NTEtLjI5ODg3OUMtLjAzOTg1MSAwIC4yMjkxNDEgMCAuMzY4NjE4IDBIMS4yNDUzM0MxLjM5NDc3IDAgMS42NTM3OTggMCAxLjY1Mzc5OC0uMjk4ODc5QzEuNjUzNzk4LS42MDc3MjEgMS40NDQ1ODMtLjYwNzcyMSAxLjA4NTkyOC0uNjA3NzIxVi0yLjM5MTAzNEMxLjA4NTkyOC0zLjI3NzcwOSAxLjQ5NDM5Ni0zLjc0NTk1MyAxLjkwMjg2NC0zLjc0NTk1M0MyLjEzMjAwNS0zLjc0NTk1MyAyLjI3MTQ4Mi0zLjU3NjU4OCAyLjI3MTQ4Mi0yLjkyOTAxNlYtLjYwNzcyMUMyLjA4MjE5Mi0uNjA3NzIxIDEuODMzMTI2LS42MDc3MjEgMS44MzMxMjYtLjI5ODg3OUMxLjgzMzEyNiAwIDIuMTAyMTE3IDAgMi4yNDE1OTQgMEgyLjk4ODc5MkMzLjEzODIzMiAwIDMuMzk3MjYgMCAzLjM5NzI2LS4yOTg4NzlDMy4zOTcyNi0uNjA3NzIxIDMuMTg4MDQ1LS42MDc3MjEgMi44MjkzOS0uNjA3NzIxVi0yLjM5MTAzNEMyLjgyOTM5LTMuMjc3NzA5IDMuMjM3ODU4LTMuNzQ1OTUzIDMuNjQ2MzI2LTMuNzQ1OTUzQzMuODc1NDY3LTMuNzQ1OTUzIDQuMDE0OTQ0LTMuNTc2NTg4IDQuMDE0OTQ0LTIuOTI5MDE2Vi0uNjA3NzIxQzMuODI1NjU0LS42MDc3MjEgMy41NzY1ODgtLjYwNzcyMSAzLjU3NjU4OC0uMjk4ODc5QzMuNTc2NTg4IDAgMy44NDU1NzkgMCAzLjk4NTA1NiAwSDQuNzMyMjU0QzQuODgxNjk0IDAgNS4xNDA3MjIgMCA1LjE0MDcyMi0uMjk4ODc5WiIgaWQ9ImcwLTc1Ii8+JiN4YTs8cGF0aCBkPSJNNS4xMDA4NzItLjI5ODg3OUM1LjEwMDg3Mi0uNjA3NzIxIDQuODUxODA2LS42MDc3MjEgNC42OTI0MDMtLjYwNzcyMUg0LjI1NDA0N1YtMi45MTkwNTRDNC4yNTQwNDctMy45MjUyOCAzLjc0NTk1My00LjM1MzY3NCAyLjk1ODkwNC00LjM1MzY3NEMyLjI5MTQwNy00LjM1MzY3NCAxLjg0MzA4OC00LjAxNDk0NCAxLjY1Mzc5OC0zLjgyNTY1NEMxLjY1Mzc5OC00LjE0NDQ1OCAxLjY1Mzc5OC00LjI5Mzg5OCAxLjI1NTI5My00LjI5Mzg5OEguNTI4MDJDLjM2ODYxOC00LjI5Mzg5OCAuMTE5NTUyLTQuMjkzODk4IC4xMTk1NTItMy45ODUwNTZDLjExOTU1Mi0zLjY4NjE3NyAuMzc4NTgtMy42ODYxNzcgLjUxODA1Ny0zLjY4NjE3N0guOTY2Mzc2Vi0uNjA3NzIxSC41MjgwMkMuMzY4NjE4LS42MDc3MjEgLjExOTU1Mi0uNjA3NzIxIC4xMTk1NTItLjI5ODg3OUMuMTE5NTUyIDAgLjM3ODU4IDAgLjUxODA1NyAwSDIuMTAyMTE3QzIuMjQxNTk0IDAgMi41MDA2MjMgMCAyLjUwMDYyMy0uMjk4ODc5QzIuNTAwNjIzLS42MDc3MjEgMi4yNTE1NTctLjYwNzcyMSAyLjA5MjE1NC0uNjA3NzIxSDEuNjUzNzk4Vi0yLjM3MTEwOEMxLjY1Mzc5OC0zLjM2NzM3MiAyLjM5MTAzNC0zLjc0NTk1MyAyLjg5OTEyOC0zLjc0NTk1M0MzLjQyNzE0OC0zLjc0NTk1MyAzLjU2NjYyNS0zLjQ2Njk5OSAzLjU2NjYyNS0yLjg2OTI0Vi0uNjA3NzIxSDMuMTc4MDgyQzMuMDE4NjgtLjYwNzcyMSAyLjc2OTYxNC0uNjA3NzIxIDIuNzY5NjE0LS4yOTg4NzlDMi43Njk2MTQgMCAzLjAzODYwNSAwIDMuMTc4MDgyIDBINC43MDIzNjZDNC44NDE4NDMgMCA1LjEwMDg3MiAwIDUuMTAwODcyLS4yOTg4NzlaIiBpZD0iZzAtNzciLz4mI3hhOzxwYXRoIGQ9Ik00LjY5MjQwMy0zLjEwODM0NEM0LjY5MjQwMy01LjUwOTM0IDMuNTg2NTUtNi4xOTY3NjIgMi42NDAxLTYuMTk2NzYyQzEuNTM0MjQ3LTYuMTk2NzYyIC41MjgwMi01LjM2OTg2MyAuNTI4MDItNC4xNjQzODRDLjUyODAyLTMuMDI4NjQzIDEuNDA0NzMyLTIuMTQxOTY4IDIuNTAwNjIzLTIuMTQxOTY4QzMuMDE4NjgtMi4xNDE5NjggMy41MzY3MzctMi4zMTEzMzMgMy45ODUwNTYtMi43MTk4MDFDMy44ODU0My0xLjQ4NDQzMyAzLjEwODM0NC0uNDk4MTMyIDIuMTUxOTMtLjQ5ODEzMkMyLjA2MjI2Ny0uNDk4MTMyIDEuNzAzNjExLS41MDgwOTUgMS40OTQzOTYtLjY2NzQ5N0MxLjUzNDI0Ny0uNzE3MzEgMS41ODQwNi0uNzc3MDg2IDEuNTg0MDYtLjk0NjQ1MUMxLjU4NDA2LTEuMTg1NTU0IDEuNDA0NzMyLTEuMzg0ODA3IDEuMTQ1NzA0LTEuMzg0ODA3Qy44OTY2MzgtMS4zODQ4MDcgLjY5NzM4NS0xLjIxNTQ0MiAuNjk3Mzg1LS45MTY1NjNDLjY5NzM4NS0uNTk3NzU4IC44NzY3MTIgLjEwOTU4OSAyLjE1MTkzIC4xMDk1ODlDMy40NjY5OTkgLjEwOTU4OSA0LjY5MjQwMy0xLjEzNTc0MSA0LjY5MjQwMy0zLjEwODM0NFpNMy45MTUzMTgtMy44NzU0NjdDMy45MTUzMTgtMy4zMjc1MjIgMy4zNzczMzUtMi43NTk2NTEgMi41NTA0MzYtMi43NTk2NTFDMS43NDM0NjItMi43NTk2NTEgMS4yMTU0NDItMy40MjcxNDggMS4yMTU0NDItNC4xNjQzODRDMS4yMTU0NDItNS4wMzExMzMgMS45MjI3OS01LjU4OTA0MSAyLjY0MDEtNS41ODkwNDFDMy4wNjg0OTMtNS41ODkwNDEgMy4zNDc0NDctNS4zNTk5IDMuNTA2ODQ5LTUuMTYwNjQ4QzMuODI1NjU0LTQuNzcyMTA1IDMuOTE1MzE4LTQuNTgyODE0IDMuOTE1MzE4LTMuODc1NDY3WiIgaWQ9ImcwLTc4Ii8+JiN4YTs8cGF0aCBkPSJNNC44NzE3MzEtMS45NzI2MDNDNC44NzE3MzEtMi4zMjEyOTUgNC41MjMwMzktMi4zMjEyOTUgNC40MDM0ODctMi4zMjEyOTVIMy43NDU5NTNMMy45MjUyOC0zLjc3NTg0MUg0LjQwMzQ4N0M0LjUyMzAzOS0zLjc3NTg0MSA0Ljg3MTczMS0zLjc3NTg0MSA0Ljg3MTczMS00LjEyNDUzM1M0LjUyMzAzOS00LjQ3MzIyNSA0LjQwMzQ4Ny00LjQ3MzIyNUg0LjAyNDkwN0w0LjE2NDM4NC01LjYxODkyOUM0LjIxNDE5Ny01Ljk4NzU0NyAzLjk3NTA5My02LjA4NzE3MyAzLjgyNTY1NC02LjA4NzE3M0MzLjUxNjgxMi02LjA4NzE3MyAzLjQ3Njk2MS01Ljc5ODI1NyAzLjQ2Njk5OS01LjY3ODcwNUwzLjMxNzU1OS00LjQ3MzIyNUgyLjI5MTQwN0wyLjQzMDg4NC01LjYxODkyOUMyLjQ4MDY5Ny01Ljk4NzU0NyAyLjI0MTU5NC02LjA4NzE3MyAyLjA5MjE1NC02LjA4NzE3M0MxLjc4MzMxMy02LjA4NzE3MyAxLjc0MzQ2Mi01Ljc5ODI1NyAxLjczMzQ5OS01LjY3ODcwNUwxLjU4NDA2LTQuNDczMjI1SC44MTY5MzZDLjY5NzM4NS00LjQ3MzIyNSAuMzQ4NjkyLTQuNDczMjI1IC4zNDg2OTItNC4xMjQ1MzNTLjY5NzM4NS0zLjc3NTg0MSAuODE2OTM2LTMuNzc1ODQxSDEuNDg0NDMzTDEuMzA1MTA2LTIuMzIxMjk1SC44MTY5MzZDLjY5NzM4NS0yLjMyMTI5NSAuMzQ4NjkyLTIuMzIxMjk1IC4zNDg2OTItMS45NzI2MDNTLjY5NzM4NS0xLjYyMzkxIC44MTY5MzYtMS42MjM5MUgxLjIwNTQ3OUMxLjA0NjA3Ny0uMzk4NTA2IDEuMDQ2MDc3LS4zNDg2OTIgMS4wNDYwNzctLjM0ODY5MkMxLjA0NjA3Ny0uMTY5MzY1IDEuMTg1NTU0IDAgMS4zOTQ3NyAwQzEuNzAzNjExIDAgMS43MzM0OTktLjI4ODkxNyAxLjc1MzQyNS0uNDA4NDY4TDEuOTEyODI3LTEuNjIzOTFIMi45Mzg5NzlDMi43Nzk1NzctLjM5ODUwNiAyLjc3OTU3Ny0uMzQ4NjkyIDIuNzc5NTc3LS4zNDg2OTJDMi43Nzk1NzctLjE2OTM2NSAyLjkxOTA1NCAwIDMuMTI4MjY5IDBDMy40MzcxMTEgMCAzLjQ2Njk5OS0uMjg4OTE3IDMuNDg2OTI0LS40MDg0NjhMMy42NDYzMjYtMS42MjM5MUg0LjQwMzQ4N0M0LjUyMzAzOS0xLjYyMzkxIDQuODcxNzMxLTEuNjIzOTEgNC44NzE3MzEtMS45NzI2MDNaTTMuMjE3OTMzLTMuNzc1ODQxTDMuMDM4NjA1LTIuMzIxMjk1SDIuMDEyNDUzTDIuMTkxNzgxLTMuNzc1ODQxSDMuMjE3OTMzWiIgaWQ9ImcwLTc5Ii8+JiN4YTs8cGF0aCBkPSJNNC42NTI1NTMtMi4xNTE5M0M0LjY1MjU1My0zLjM5NzI2IDMuNzI2MDI3LTQuMzgzNTYyIDIuNjEwMjEyLTQuMzgzNTYyUy41Njc4Ny0zLjM5NzI2IC41Njc4Ny0yLjE1MTkzQy41Njc4Ny0uODg2Njc1IDEuNTE0MzIxIC4wNTk3NzYgMi42MTAyMTIgLjA1OTc3NlM0LjY1MjU1My0uODk2NjM4IDQuNjUyNTUzLTIuMTUxOTNaTTMuOTY1MTMxLTIuMjIxNjY5QzMuOTY1MTMxLTEuMjk1MTQzIDMuMzQ3NDQ3LS41NDc5NDUgMi42MTAyMTItLjU0Nzk0NVMxLjI1NTI5My0xLjI5NTE0MyAxLjI1NTI5My0yLjIyMTY2OUMxLjI1NTI5My0zLjEyODI2OSAxLjkwMjg2NC0zLjc3NTg0MSAyLjYxMDIxMi0zLjc3NTg0MUMzLjMyNzUyMi0zLjc3NTg0MSAzLjk2NTEzMS0zLjEyODI2OSAzLjk2NTEzMS0yLjIyMTY2OVoiIGlkPSJnMC04MSIvPiYjeGE7PHBhdGggZD0iTTQuNDAzNDg3LS4yOTg4NzlDNC40MDM0ODctLjYwNzcyMSA0LjE2NDM4NC0uNjA3NzIxIDQuMDA0OTgxLS42MDc3MjFIMy4wOTgzODFWLTUuNzg4Mjk0QzMuMDk4MzgxLTUuOTQ3Njk2IDMuMDk4MzgxLTYuMTk2NzYyIDIuNzk5NTAyLTYuMTk2NzYyQzIuNjEwMjEyLTYuMTk2NzYyIDIuNTUwNDM2LTYuMDc3MjEgMi41MDA2MjMtNS45NTc2NTlDMi4xMjIwNDItNS4xMTA4MzQgMS42MDM5ODUtNS4wMDEyNDUgMS40MTQ2OTUtNC45ODEzMkMxLjI1NTI5My00Ljk3MTM1NyAxLjA0NjA3Ny00Ljk1MTQzMiAxLjA0NjA3Ny00LjY3MjQ3OEMxLjA0NjA3Ny00LjQyMzQxMiAxLjIyNTQwNS00LjM3MzU5OSAxLjM3NDg0NC00LjM3MzU5OUMxLjU2NDEzNC00LjM3MzU5OSAxLjk3MjYwMy00LjQzMzM3NSAyLjQxMDk1OS00LjgxMTk1NVYtLjYwNzcyMUgxLjUwNDM1OUMxLjM0NDk1Ni0uNjA3NzIxIDEuMTA1ODUzLS42MDc3MjEgMS4xMDU4NTMtLjI5ODg3OUMxLjEwNTg1MyAwIDEuMzU0OTE5IDAgMS41MDQzNTkgMEg0LjAwNDk4MUM0LjE1NDQyMSAwIDQuNDAzNDg3IDAgNC40MDM0ODctLjI5ODg3OVoiIGlkPSJnMC04MiIvPiYjeGE7PHBhdGggZD0iTTQuNzgyMDY3LTQuMjY0MDFDNC43ODIwNjctNS4xOTA1MzUgNC4wNDQ4MzItNi4wODcxNzMgMi44OTkxMjgtNi4wODcxNzNILjY2NzQ5N0MuNTE4MDU3LTYuMDg3MTczIC4yNTkwMjktNi4wODcxNzMgLjI1OTAyOS01Ljc4ODI5NEMuMjU5MDI5LTUuNDc5NDUyIC41MTgwNTctNS40Nzk0NTIgLjY2NzQ5Ny01LjQ3OTQ1MkguOTY2Mzc2Vi0uNjA3NzIxSC42Njc0OTdDLjUwODA5NS0uNjA3NzIxIC4yNTkwMjktLjYwNzcyMSAuMjU5MDI5LS4yOTg4NzlDLjI1OTAyOSAwIC41MTgwNTcgMCAuNjY3NDk3IDBIMS45NTI2NzdDMi4xMDIxMTcgMCAyLjM2MTE0NiAwIDIuMzYxMTQ2LS4yOTg4NzlDMi4zNjExNDYtLjYwNzcyMSAyLjEwMjExNy0uNjA3NzIxIDEuOTUyNjc3LS42MDc3MjFIMS42NTM3OThWLTIuNDQwODQ3SDIuODk5MTI4QzQuMDU0Nzk1LTIuNDQwODQ3IDQuNzgyMDY3LTMuMzM3NDg0IDQuNzgyMDY3LTQuMjY0MDFaTTQuMDk0NjQ1LTQuMjY0MDFDNC4wOTQ2NDUtMy43MzU5OSAzLjY2NjI1Mi0zLjA0ODU2OCAyLjcwOTgzOC0zLjA0ODU2OEgxLjY1Mzc5OFYtNS40Nzk0NTJIMi43MDk4MzhDMy42NjYyNTItNS40Nzk0NTIgNC4wOTQ2NDUtNC43OTIwMyA0LjA5NDY0NS00LjI2NDAxWiIgaWQ9ImcwLTgzIi8+JiN4YTs8cGF0aCBkPSJNNC44NjE3NjgtMi4xNTE5M0M0Ljg2MTc2OC0zLjM3NzMzNSAzLjk3NTA5My00LjM1MzY3NCAyLjkxOTA1NC00LjM1MzY3NEMyLjQ0MDg0Ny00LjM1MzY3NCAxLjk5MjUyOC00LjE3NDM0NiAxLjY1Mzc5OC0zLjg2NTUwNEMxLjY1Mzc5OC00LjE1NDQyMSAxLjYzMzg3My00LjI5Mzg5OCAxLjI1NTI5My00LjI5Mzg5OEguNTI4MDJDLjM2ODYxOC00LjI5Mzg5OCAuMTE5NTUyLTQuMjkzODk4IC4xMTk1NTItMy45ODUwNTZDLjExOTU1Mi0zLjY4NjE3NyAuMzc4NTgtMy42ODYxNzcgLjUxODA1Ny0zLjY4NjE3N0guOTY2Mzc2VjEuNjAzOTg1SC41MjgwMkMuMzY4NjE4IDEuNjAzOTg1IC4xMTk1NTIgMS42MDM5ODUgLjExOTU1MiAxLjkxMjgyN0MuMTE5NTUyIDIuMjExNzA2IC4zNzg1OCAyLjIxMTcwNiAuNTE4MDU3IDIuMjExNzA2SDIuMTAyMTE3QzIuMjQxNTk0IDIuMjExNzA2IDIuNTAwNjIzIDIuMjExNzA2IDIuNTAwNjIzIDEuOTEyODI3QzIuNTAwNjIzIDEuNjAzOTg1IDIuMjUxNTU3IDEuNjAzOTg1IDIuMDkyMTU0IDEuNjAzOTg1SDEuNjUzNzk4Vi0uNDQ4MzE5QzIuMDYyMjY3LS4wMjk4ODggMi40OTA2NiAuMDU5Nzc2IDIuODA5NDY1IC4wNTk3NzZDMy44OTUzOTIgLjA1OTc3NiA0Ljg2MTc2OC0uODg2Njc1IDQuODYxNzY4LTIuMTUxOTNaTTQuMTc0MzQ2LTIuMTUxOTNDNC4xNzQzNDYtMS4xOTU1MTcgMy40NzY5NjEtLjU0Nzk0NSAyLjc3OTU3Ny0uNTQ3OTQ1QzIuMDAyNDkxLS41NDc5NDUgMS42NTM3OTgtMS40MjQ2NTggMS42NTM3OTgtMS45MDI4NjRWLTIuNjMwMTM3QzEuNjUzNzk4LTMuMjE3OTMzIDIuMjMxNjMxLTMuNzQ1OTUzIDIuODU5Mjc4LTMuNzQ1OTUzQzMuNTk2NTEzLTMuNzQ1OTUzIDQuMTc0MzQ2LTMuMDE4NjggNC4xNzQzNDYtMi4xNTE5M1oiIGlkPSJnMC04NCIvPiYjeGE7PHBhdGggZD0iTTQuMzUzNjc0IC41Mzc5ODNDNC4zNTM2NzQgLjM4ODU0MyA0LjI4MzkzNSAuMzQ4NjkyIDQuMTA0NjA4IC4yMjkxNDFDMi44NjkyNC0uNjA3NzIxIDIuNDEwOTU5LTEuOTMyNzUyIDIuNDEwOTU5LTMuMDQ4NTY4QzIuNDEwOTU5LTQuMDQ0ODMyIDIuNzg5NTM5LTUuNDI5NjM5IDQuMTI0NTMzLTYuMzM2MjM5QzQuMjgzOTM1LTYuNDQ1ODI4IDQuMzUzNjc0LTYuNDg1Njc5IDQuMzUzNjc0LTYuNjM1MTE4QzQuMzUzNjc0LTYuNzE0ODE5IDQuMzAzODYxLTYuOTE0MDcyIDQuMDQ0ODMyLTYuOTE0MDcyQzMuNzU1OTE1LTYuOTE0MDcyIDEuNzIzNTM3LTUuNTk5MDA0IDEuNzIzNTM3LTMuMDQ4NTY4QzEuNzIzNTM3LTEuODYzMDE0IDIuMTgxODE4LS45NjYzNzYgMi41MzA1MTEtLjQ2ODI0NEMzLjA1ODUzMSAuMjU5MDI5IDMuODA1NzI5IC44MTY5MzYgNC4wNDQ4MzIgLjgxNjkzNkM0LjMwMzg2MSAuODE2OTM2IDQuMzUzNjc0IC42MTc2ODQgNC4zNTM2NzQgLjUzNzk4M1oiIGlkPSJnMC04NSIvPiYjeGE7PHBhdGggZD0iTTMuNTA2ODQ5LTMuMDQ4NTY4QzMuNTA2ODQ5LTQuMjM0MTIyIDMuMDQ4NTY4LTUuMTMwNzYgMi42OTk4NzUtNS42Mjg4OTJDMi4xNzE4NTYtNi4zNTYxNjQgMS40MjQ2NTgtNi45MTQwNzIgMS4xODU1NTQtNi45MTQwNzJDLjkzNjQ4OC02LjkxNDA3MiAuODc2NzEyLTYuNzE0ODE5IC44NzY3MTItNi42MzUxMThDLjg3NjcxMi02LjQ4NTY3OSAuOTg2MzAxLTYuNDE1OTQgMS4wMzYxMTUtNi4zODYwNTJDMi42Njk5ODgtNS4zMDAxMjUgMi44MTk0MjctMy42OTYxMzkgMi44MTk0MjctMy4wNDg1NjhDMi44MTk0MjctMi4wNTIzMDQgMi40NTA4MDktLjY2NzQ5NyAxLjEwNTg1MyAuMjM5MTAzQy45NTY0MTMgLjMzODczIC44NzY3MTIgLjM4ODU0MyAuODc2NzEyIC41Mzc5ODNDLjg3NjcxMiAuNjE3Njg0IC45MzY0ODggLjgxNjkzNiAxLjE4NTU1NCAuODE2OTM2QzEuNDc0NDcxIC44MTY5MzYgMy41MDY4NDktLjQ5ODEzMiAzLjUwNjg0OS0zLjA0ODU2OFoiIGlkPSJnMC04NiIvPiYjeGE7PHBhdGggZD0iTTMuMjM3ODU4LS42MTc2ODRDMy4yMzc4NTgtLjk4NjMwMSAyLjkzODk3OS0xLjI0NTMzIDIuNjIwMTc0LTEuMjQ1MzNDMi4yNDE1OTQtMS4yNDUzMyAxLjk5MjUyOC0uOTM2NDg4IDEuOTkyNTI4LS42Mjc2NDZDMS45OTI1MjgtLjI1OTAyOSAyLjI5MTQwNyAwIDIuNjEwMjEyIDBDMi45ODg3OTIgMCAzLjIzNzg1OC0uMzA4ODQyIDMuMjM3ODU4LS42MTc2ODRaIiBpZD0iZzAtODgiLz4mI3hhOzxwYXRoIGQ9Ik00LjYwMjc0LTQuOTExNTgyQzQuNjAyNzQtNS4yODAxOTkgNC4zNTM2NzQtNi4xNDY5NDkgMi41MTA1ODUtNi4xNDY5NDlDMS4xMDU4NTMtNi4xNDY5NDkgLjYxNzY4NC01LjQ4OTQxNSAuNjE3Njg0LTQuOTMxNTA3Qy42MTc2ODQtNC42MTI3MDIgLjg1Njc4Ny00LjQ2MzI2MyAxLjA2NjAwMi00LjQ2MzI2M1MxLjUwNDM1OS00LjYzMjYyOCAxLjUwNDM1OS00LjkxMTU4MkMxLjUwNDM1OS01LjAzMTEzMyAxLjQ1NDU0NS01LjEzMDc2IDEuNDA0NzMyLTUuMTkwNTM1QzEuNjUzNzk4LTUuNDY5NDg5IDIuMTIyMDQyLTUuNTM5MjI4IDIuNTEwNTg1LTUuNTM5MjI4QzMuNTI2Nzc1LTUuNTM5MjI4IDMuOTE1MzE4LTUuMjIwNDIzIDMuOTE1MzE4LTQuOTExNTgyQzMuOTE1MzE4LTQuNjUyNTUzIDMuNjk2MTM5LTQuNTMzMDAxIDMuNTA2ODQ5LTQuNDMzMzc1QzIuMDYyMjY3LTMuNjM2MzY0IDIuMDYyMjY3LTIuNzQ5Njg5IDIuMDYyMjY3LTIuMzUxMTgzQzIuMDYyMjY3LTEuOTYyNjQgMi4wNjIyNjctMS44MzMxMjYgMi40NjA3NzItMS44MzMxMjZDMi43NTk2NTEtMS44MzMxMjYgMi44NTkyNzgtMS44OTI5MDIgMi44NTkyNzgtMi4yMzE2MzFWLTIuNDAwOTk2QzIuODU5Mjc4LTIuODY5MjQgMy4wMTg2OC0zLjQzNzExMSAzLjk0NTIwNS0zLjk0NTIwNUM0LjIzNDEyMi00LjEwNDYwOCA0LjYwMjc0LTQuMzkzNTI0IDQuNjAyNzQtNC45MTE1ODJaTTIuOTU4OTA0LS40OTgxMzJDMi45NTg5MDQtLjc3NzA4NiAyLjczOTcyNi0uOTk2MjY0IDIuNDYwNzcyLS45OTYyNjRTMS45NjI2NC0uNzc3MDg2IDEuOTYyNjQtLjQ5ODEzMlMyLjE4MTgxOCAwIDIuNDYwNzcyIDBTMi45NTg5MDQtLjIxOTE3OCAyLjk1ODkwNC0uNDk4MTMyWiIgaWQ9ImcwLTkyIi8+JiN4YTs8cGF0aCBkPSJNNC44NTE4MDYtMy43MzU5OUM0Ljg1MTgwNi0zLjkzNTI0MyA0LjczMjI1NC00LjM1MzY3NCAzLjkwNTM1NS00LjM1MzY3NEMzLjM5NzI2LTQuMzUzNjc0IDIuNzU5NjUxLTQuMTc0MzQ2IDIuMjExNzA2LTMuNTQ2N1YtMy44ODU0M0MyLjIxMTcwNi00LjE5NDI3MSAyLjE1MTkzLTQuMjkzODk4IDEuODEzMi00LjI5Mzg5OEguNzE3MzFDLjU2Nzg3LTQuMjkzODk4IC4zMTg4MDQtNC4yOTM4OTggLjMxODgwNC0zLjk5NTAxOUMuMzE4ODA0LTMuNjg2MTc3IC41NTc5MDgtMy42ODYxNzcgLjcxNzMxLTMuNjg2MTc3SDEuNTI0Mjg0Vi0uNjA3NzIxSC43MTczMUMuNTY3ODctLjYwNzcyMSAuMzE4ODA0LS42MDc3MjEgLjMxODgwNC0uMzA4ODQyQy4zMTg4MDQgMCAuNTU3OTA4IDAgLjcxNzMxIDBIMy4zMTc1NTlDMy40NjY5OTkgMCAzLjcyNjAyNyAwIDMuNzI2MDI3LS4yOTg4NzlDMy43MjYwMjctLjYwNzcyMSAzLjQ2Njk5OS0uNjA3NzIxIDMuMzE3NTU5LS42MDc3MjFIMi4yMTE3MDZWLTEuODUzMDUxQzIuMjExNzA2LTIuNzg5NTM5IDIuNzk5NTAyLTMuNzQ1OTUzIDQuMDA0OTgxLTMuNzQ1OTUzQzQuMDE0OTQ0LTMuNTA2ODQ5IDQuMTg0MzA5LTMuMzA3NTk3IDQuNDMzMzc1LTMuMzA3NTk3QzQuNjUyNTUzLTMuMzA3NTk3IDQuODUxODA2LTMuNDY2OTk5IDQuODUxODA2LTMuNzM1OTlaIiBpZD0iZzAtOTYiLz4mI3hhOzxwYXRoIGQ9Ik00LjU3Mjg1Mi0xLjI0NTMzQzQuNTcyODUyLTIuMjgxNDQ1IDMuMjg3NjcxLTIuNDkwNjYgMi45Njg4NjctMi41NDA0NzNMMi4yOTE0MDctMi42NjAwMjVDMi4wMDI0OTEtMi42OTk4NzUgMS4zMjUwMzEtMi44MTk0MjcgMS4zMjUwMzEtMy4yMDc5N0MxLjMyNTAzMS0zLjQ2Njk5OSAxLjY0MzgzNi0zLjc3NTg0MSAyLjU5MDI4Ni0zLjc3NTg0MUMzLjQxNzE4Ni0zLjc3NTg0MSAzLjU1NjY2My0zLjQ3Njk2MSAzLjU4NjU1LTMuMjE3OTMzQzMuNTk2NTEzLTMuMDQ4NTY4IDMuNjE2NDM4LTIuODc5MjAzIDMuOTI1MjgtMi44NzkyMDNDNC4yNzM5NzMtMi44NzkyMDMgNC4yNzM5NzMtMy4wODg0MTggNC4yNzM5NzMtMy4yODc2NzFWLTMuOTc1MDkzQzQuMjczOTczLTQuMTM0NDk2IDQuMjczOTczLTQuMzgzNTYyIDMuOTc1MDkzLTQuMzgzNTYyQzMuNzM1OTktNC4zODM1NjIgMy42OTYxMzktNC4yNDQwODUgMy42NzYyMTQtNC4xNzQzNDZDMy4yMzc4NTgtNC4zODM1NjIgMi43OTk1MDItNC4zODM1NjIgMi42MTAyMTItNC4zODM1NjJDLjk0NjQ1MS00LjM4MzU2MiAuNzE3MzEtMy41NjY2MjUgLjcxNzMxLTMuMjA3OTdDLjcxNzMxLTIuMjkxNDA3IDEuNzYzMzg3LTIuMTIyMDQyIDIuNjc5OTUtMS45ODI1NjVDMy4xNjgxMi0xLjkwMjg2NCAzLjk2NTEzMS0xLjc3MzM1IDMuOTY1MTMxLTEuMjQ1MzNDMy45NjUxMzEtLjg3NjcxMiAzLjU5NjUxMy0uNTQ3OTQ1IDIuNjg5OTEzLS41NDc5NDVDMi4yMjE2NjktLjU0Nzk0NSAxLjY2Mzc2MS0uNjU3NTM0IDEuNDE0Njk1LTEuNDM0NjJDMS4zNjQ4ODItMS42MTM5NDggMS4zMjUwMzEtMS43MjM1MzcgMS4wNjYwMDItMS43MjM1MzdDLjcxNzMxLTEuNzIzNTM3IC43MTczMS0xLjUxNDMyMSAuNzE3MzEtMS4zMTUwNjhWLS4zNDg2OTJDLjcxNzMxLS4xODkyOSAuNzE3MzEgLjA1OTc3NiAxLjAxNjE4OSAuMDU5Nzc2QzEuMTA1ODUzIC4wNTk3NzYgMS4yNjUyNTUgLjA0OTgxMyAxLjM4NDgwNy0uMzE4ODA0QzEuODcyOTc2IC4wMzk4NTEgMi40MDA5OTYgLjA1OTc3NiAyLjY3OTk1IC4wNTk3NzZDNC4yNTQwNDcgLjA1OTc3NiA0LjU3Mjg1Mi0uNzY3MTIzIDQuNTcyODUyLTEuMjQ1MzNaIiBpZD0iZzAtOTgiLz4mI3hhOzxwYXRoIGQ9Ik0zLjIzNzg1OC0zLjY2NjI1MkMzLjIzNzg1OC00LjAzNDg2OSAyLjkzODk3OS00LjI5Mzg5OCAyLjYyMDE3NC00LjI5Mzg5OEMyLjI0MTU5NC00LjI5Mzg5OCAxLjk5MjUyOC0zLjk4NTA1NiAxLjk5MjUyOC0zLjY3NjIxNEMxLjk5MjUyOC0zLjMwNzU5NyAyLjI5MTQwNy0zLjA0ODU2OCAyLjYxMDIxMi0zLjA0ODU2OEMyLjk4ODc5Mi0zLjA0ODU2OCAzLjIzNzg1OC0zLjM1NzQxIDMuMjM3ODU4LTMuNjY2MjUyWk0zLjI4NzY3MS0uMjY4OTkxQzMuMjg3NjcxLS45MjY1MjYgMi45ODg3OTItMS4yNDUzMyAyLjYxMDIxMi0xLjI0NTMzQzIuMjUxNTU3LTEuMjQ1MzMgMS45OTI1MjgtLjk2NjM3NiAxLjk5MjUyOC0uNjI3NjQ2QzEuOTkyNTI4LS4zNDg2OTIgMi4xNjE4OTMgMCAyLjY1MDA2MiAwQzIuNTIwNTQ4IC41Mzc5ODMgMi4xNDE5NjggLjcyNzI3MyAxLjk5MjUyOCAuODA2OTc0QzEuOTMyNzUyIC44MzY4NjIgMS43OTMyNzUgLjkwNjYgMS43OTMyNzUgMS4wNjYwMDJDMS43OTMyNzUgMS4yMTU0NDIgMS45NDI3MTUgMS4zODQ4MDcgMi4xMTIwOCAxLjM4NDgwN0MyLjMzMTI1OCAxLjM4NDgwNyAzLjI4NzY3MSAuODQ2ODI0IDMuMjg3NjcxLS4yNjg5OTFaIiBpZD0iZzAtOTkiLz4mI3hhOzxwYXRoIGQ9Ik00Ljc4MjA2Ny01Ljc3ODMzMUM0Ljc4MjA2Ny02LjA4NzE3MyA0LjU0Mjk2NC02LjA4NzE3MyA0LjM4MzU2Mi02LjA4NzE3M0gxLjA5NTg5QzEuMDM2MTE1LTYuMjQ2NTc1IC44NTY3ODctNi4yNDY1NzUgLjc3NzA4Ni02LjI0NjU3NUMuNDM4MzU2LTYuMjQ2NTc1IC40MzgzNTYtNi4wMjczOTcgLjQzODM1Ni01LjgzODEwN1YtNS40MTk2NzZDLjQzODM1Ni01LjIzMDM4NiAuNDM4MzU2LTUuMDExMjA4IC43NzcwODYtNS4wMTEyMDhDMS4xMjU3NzgtNS4wMTEyMDggMS4xMjU3NzgtNS4yMDA0OTggMS4xMjU3NzgtNS40Nzk0NTJIMy43NTU5MTVDMi4wMzIzNzktMy42NDYzMjYgMS42OTM2NDktMS40NTQ1NDUgMS42OTM2NDktLjM1ODY1NUMxLjY5MzY0OS0uMjE5MTc4IDEuNjkzNjQ5IC4xMDk1ODkgMi4wNDIzNDEgLjEwOTU4OUMyLjIxMTcwNiAuMTA5NTg5IDIuMzgxMDcxIDAgMi4zODEwNzEtLjI4ODkxN0MyLjQzMDg4NC0zLjExODMwNiAzLjk1NTE2OC00Ljg1MTgwNiA0LjU2Mjg4OS01LjQzOTYwMUM0Ljc2MjE0Mi01LjYxODkyOSA0Ljc4MjA2Ny01LjYzODg1NCA0Ljc4MjA2Ny01Ljc3ODMzMVoiIGlkPSJnMC0xMDAiLz4mI3hhOzxwYXRoIGQ9Ik00LjY5MjQwMy0xLjkyMjc5QzQuNjkyNDAzLTMuMDU4NTMxIDMuODE1NjkxLTMuOTQ1MjA1IDIuNzE5ODAxLTMuOTQ1MjA1QzIuMjAxNzQzLTMuOTQ1MjA1IDEuNjgzNjg2LTMuNzc1ODQxIDEuMjM1MzY3LTMuMzY3MzcyQzEuMzc0ODQ0LTQuNzcyMTA1IDIuMzExMzMzLTUuNTg5MDQxIDMuMTg4MDQ1LTUuNTg5MDQxQzMuNTI2Nzc1LTUuNTg5MDQxIDMuNjg2MTc3LTUuNDc5NDUyIDMuNzM1OTktNS40Mjk2MzlDMy42ODYxNzctNS4zNzk4MjYgMy42MzYzNjQtNS4zMjAwNSAzLjYzNjM2NC01LjE0MDcyMkMzLjYzNjM2NC00LjkwMTYxOSAzLjgxNTY5MS00LjcwMjM2NiA0LjA3NDcyLTQuNzAyMzY2QzQuMzIzNzg2LTQuNzAyMzY2IDQuNTIzMDM5LTQuODcxNzMxIDQuNTIzMDM5LTUuMTcwNjFDNC41MjMwMzktNS42NTg3OCA0LjE2NDM4NC02LjE5Njc2MiAzLjE5ODAwNy02LjE5Njc2MkMxLjg2MzAxNC02LjE5Njc2MiAuNTI4MDItNC45OTEyODMgLjUyODAyLTIuOTc4ODI5Qy41MjgwMi0uNjE3Njg0IDEuNjQzODM2IC4xMDk1ODkgMi42MzAxMzcgLjEwOTU4OUMzLjcxNjA2NSAuMTA5NTg5IDQuNjkyNDAzLS43MjcyNzMgNC42OTI0MDMtMS45MjI3OVpNNC4wMDQ5ODEtMS45MjI3OUM0LjAwNDk4MS0xLjA2NjAwMiAzLjM0NzQ0Ny0uNDk4MTMyIDIuNjMwMTM3LS40OTgxMzJDMS45ODI1NjUtLjQ5ODEzMiAxLjU5NDAyMi0uOTg2MzAxIDEuMzk0NzctMS41OTQwMjJDMS4yOTUxNDMtMS44MzMxMjYgMS4zMTUwNjgtMi4wNzIyMjkgMS4zMTUwNjgtMi4yMTE3MDZDMS4zMTUwNjgtMi44MjkzOSAxLjkxMjgyNy0zLjMyNzUyMiAyLjY2OTk4OC0zLjMyNzUyMkMzLjQ3Njk2MS0zLjMyNzUyMiA0LjAwNDk4MS0yLjY2MDAyNSA0LjAwNDk4MS0xLjkyMjc5WiIgaWQ9ImcwLTEwMSIvPiYjeGE7PHBhdGggZD0iTTQuOTYxMzk1LTQuOTUxNDMyVi01LjY3ODcwNUM0Ljk2MTM5NS01Ljk4NzU0NyA0LjkwMTYxOS02LjA4NzE3MyA0LjU2Mjg4OS02LjA4NzE3M0guNjY3NDk3Qy4zMzg3My02LjA4NzE3MyAuMjU5MDI5LTYuMDA3NDcyIC4yNTkwMjktNS42Nzg3MDVWLTQuOTUxNDMyQy4yNTkwMjktNC43NjIxNDIgLjI1OTAyOS00LjU0Mjk2NCAuNTk3NzU4LTQuNTQyOTY0Qy45NDY0NTEtNC41NDI5NjQgLjk0NjQ1MS00Ljc1MjE3OSAuOTQ2NDUxLTQuOTUxNDMyVi01LjQ3OTQ1MkgyLjI3MTQ4MlYtLjYwNzcyMUgxLjc1MzQyNUMxLjYwMzk4NS0uNjA3NzIxIDEuMzU0OTE5LS42MDc3MjEgMS4zNTQ5MTktLjMwODg0MkMxLjM1NDkxOSAwIDEuNTk0MDIyIDAgMS43NTM0MjUgMEgzLjQ3Njk2MUMzLjYyNjQwMSAwIDMuODc1NDY3IDAgMy44NzU0NjctLjI5ODg3OUMzLjg3NTQ2Ny0uNjA3NzIxIDMuNjM2MzY0LS42MDc3MjEgMy40NzY5NjEtLjYwNzcyMUgyLjk1ODkwNFYtNS40Nzk0NTJINC4yNzM5NzNWLTQuOTUxNDMyQzQuMjczOTczLTQuNzYyMTQyIDQuMjczOTczLTQuNTQyOTY0IDQuNjEyNzAyLTQuNTQyOTY0QzQuOTYxMzk1LTQuNTQyOTY0IDQuOTYxMzk1LTQuNzUyMTc5IDQuOTYxMzk1LTQuOTUxNDMyWiIgaWQ9ImcwLTEwNCIvPiYjeGE7PHBhdGggZD0iTTQuNDczMjI1LTEuMjU1MjkzQzQuNDczMjI1LTEuNDM0NjIgNC40NzMyMjUtMS42NDM4MzYgNC4xMjQ1MzMtMS42NDM4MzZDMy43OTU3NjYtMS42NDM4MzYgMy43ODU4MDMtMS40MzQ2MiAzLjc4NTgwMy0xLjI2NTI1NUMzLjc3NTg0MS0uNjQ3NTcyIDMuMjA3OTctLjU0Nzk0NSAyLjk3ODgyOS0uNTQ3OTQ1QzIuMjExNzA2LS41NDc5NDUgMi4yMTE3MDYtMS4wNjYwMDIgMi4yMTE3MDYtMS4zMTUwNjhWLTMuNjg2MTc3SDMuODQ1NTc5QzMuOTk1MDE5LTMuNjg2MTc3IDQuMjQ0MDg1LTMuNjg2MTc3IDQuMjQ0MDg1LTMuOTg1MDU2QzQuMjQ0MDg1LTQuMjkzODk4IDQuMDA0OTgxLTQuMjkzODk4IDMuODQ1NTc5LTQuMjkzODk4SDIuMjExNzA2Vi01LjExMDgzNEMyLjIxMTcwNi01LjMwMDEyNSAyLjIxMTcwNi01LjUxOTMwMyAxLjg3Mjk3Ni01LjUxOTMwM0MxLjUyNDI4NC01LjUxOTMwMyAxLjUyNDI4NC01LjMxMDA4NyAxLjUyNDI4NC01LjExMDgzNFYtNC4yOTM4OThILjY1NzUzNEMuNDk4MTMyLTQuMjkzODk4IC4yNDkwNjYtNC4yOTM4OTggLjI0OTA2Ni0zLjk4NTA1NkMuMjQ5MDY2LTMuNjg2MTc3IC40OTgxMzItMy42ODYxNzcgLjY0NzU3Mi0zLjY4NjE3N0gxLjUyNDI4NFYtMS4yNTUyOTNDMS41MjQyODQtLjI5ODg3OSAyLjIwMTc0MyAuMDU5Nzc2IDIuOTI5MDE2IC4wNTk3NzZDMy42NjYyNTIgLjA1OTc3NiA0LjQ3MzIyNS0uMzY4NjE4IDQuNDczMjI1LTEuMjU1MjkzWiIgaWQ9ImcwLTEwNSIvPiYjeGE7PHBhdGggZD0iTTQuNzgyMDY3LTEuNzMzNDk5QzQuNzgyMDY3LTIuNDQwODQ3IDQuMzEzODIzLTMuMDI4NjQzIDMuNjU2Mjg5LTMuMzI3NTIyQzQuMjE0MTk3LTMuNjg2MTc3IDQuNDkzMTUxLTQuMjU0MDQ3IDQuNDkzMTUxLTQuNzkyMDNDNC40OTMxNTEtNS41MjkyNjUgMy43NjU4NzgtNi4xOTY3NjIgMi42MjAxNzQtNi4xOTY3NjJDMS40MjQ2NTgtNi4xOTY3NjIgLjcyNzI3My01LjcxODU1NSAuNzI3MjczLTUuMDMxMTMzQy43MjcyNzMtNC43MDIzNjYgLjk3NjMzOS00LjU2Mjg4OSAxLjE3NTU5Mi00LjU2Mjg4OUMxLjM4NDgwNy00LjU2Mjg4OSAxLjYxMzk0OC00LjczMjI1NCAxLjYxMzk0OC01LjAxMTIwOEMxLjYxMzk0OC01LjE1MDY4NSAxLjU1NDE3Mi01LjI1MDMxMSAxLjUyNDI4NC01LjI4MDE5OUMxLjgzMzEyNi01LjU4OTA0MSAyLjU0MDQ3My01LjU4OTA0MSAyLjYzMDEzNy01LjU4OTA0MUMzLjMwNzU5Ny01LjU4OTA0MSAzLjgwNTcyOS01LjIzMDM4NiAzLjgwNTcyOS00Ljc4MjA2N0MzLjgwNTcyOS00LjQ4MzE4OCAzLjY1NjI4OS00LjEzNDQ5NiAzLjM4NzI5OC0zLjkxNTMxOEMzLjA2ODQ5My0zLjY1NjI4OSAyLjgxOTQyNy0zLjYzNjM2NCAyLjQ2MDc3Mi0zLjYxNjQzOEMxLjg5MjkwMi0zLjU3NjU4OCAxLjc0MzQ2Mi0zLjU3NjU4OCAxLjc0MzQ2Mi0zLjI4NzY3MUMxLjc0MzQ2Mi0yLjk3ODgyOSAxLjk4MjU2NS0yLjk3ODgyOSAyLjE0MTk2OC0yLjk3ODgyOUgyLjYwMDI0OUMzLjU4NjU1LTIuOTc4ODI5IDQuMDk0NjQ1LTIuMzExMzMzIDQuMDk0NjQ1LTEuNzMzNDk5QzQuMDk0NjQ1LTEuMTI1Nzc4IDMuNTM2NzM3LS40OTgxMzIgMi42MzAxMzctLjQ5ODEzMkMyLjIzMTYzMS0uNDk4MTMyIDEuNDY0NTA4LS42MDc3MjEgMS4yMDU0NzktMS4wNzU5NjVDMS4yNTUyOTMtMS4xMjU3NzggMS4zMjUwMzEtMS4xODU1NTQgMS4zMjUwMzEtMS4zODQ4MDdDMS4zMjUwMzEtMS42MjM5MSAxLjEzNTc0MS0xLjgyMzE2MyAuODg2Njc1LTEuODIzMTYzQy42NTc1MzQtMS44MjMxNjMgLjQzODM1Ni0xLjY3MzcyNCAuNDM4MzU2LTEuMzU0OTE5Qy40MzgzNTYtLjQ2ODI0NCAxLjQwNDczMiAuMTA5NTg5IDIuNjMwMTM3IC4xMDk1ODlDMy45MzUyNDMgLjEwOTU4OSA0Ljc4MjA2Ny0uODA2OTc0IDQuNzgyMDY3LTEuNzMzNDk5WiIgaWQ9ImcwLTEwNiIvPiYjeGE7PHBhdGggZD0iTTQuNzAyMzY2LS40MDg0NjhWLS42Njc0OTdDNC43MDIzNjYtLjg1Njc4NyA0LjcwMjM2Ni0xLjA3NTk2NSA0LjM2MzYzNi0xLjA3NTk2NUM0LjAxNDk0NC0xLjA3NTk2NSA0LjAxNDk0NC0uODg2Njc1IDQuMDE0OTQ0LS42MDc3MjFIMS42NDM4MzZDMi4yMzE2MzEtMS4xMTU4MTYgMy4xODgwNDUtMS44NjMwMTQgMy42MTY0MzgtMi4yNjE1MTlDNC4yNDQwODUtMi44MTk0MjcgNC43MDIzNjYtMy40NTcwMzYgNC43MDIzNjYtNC4yNTQwNDdDNC43MDIzNjYtNS40NDk1NjQgMy42OTYxMzktNi4xOTY3NjIgMi40ODA2OTctNi4xOTY3NjJDMS4zMDUxMDYtNi4xOTY3NjIgLjUxODA1Ny01LjM3OTgyNiAuNTE4MDU3LTQuNTMzMDAxQy41MTgwNTctNC4xNjQzODQgLjc5NzAxMS00LjA1NDc5NSAuOTY2Mzc2LTQuMDU0Nzk1QzEuMTc1NTkyLTQuMDU0Nzk1IDEuNDA0NzMyLTQuMjI0MTU5IDEuNDA0NzMyLTQuNTAzMTEzQzEuNDA0NzMyLTQuNjIyNjY1IDEuMzU0OTE5LTQuNzUyMTc5IDEuMjY1MjU1LTQuODIxOTE4QzEuNDE0Njk1LTUuMjgwMTk5IDEuODgyOTM5LTUuNTg5MDQxIDIuNDMwODg0LTUuNTg5MDQxQzMuMjQ3ODIxLTUuNTg5MDQxIDQuMDE0OTQ0LTUuMTMwNzYgNC4wMTQ5NDQtNC4yNTQwNDdDNC4wMTQ5NDQtMy41NTY2NjMgMy41MjY3NzUtMi45Nzg4MjkgMi44NjkyNC0yLjQzMDg4NEwuNjY3NDk3LS41Nzc4MzNDLjU3NzgzMy0uNDk4MTMyIC41MTgwNTctLjQ0ODMxOSAuNTE4MDU3LS4zMDg4NDJDLjUxODA1NyAwIC43NjcxMjMgMCAuOTI2NTI2IDBINC4zMDM4NjFDNC42MzI2MjggMCA0LjcwMjM2Ni0uMDg5NjY0IDQuNzAyMzY2LS40MDg0NjhaIiBpZD0iZzAtMTA3Ii8+JiN4YTs8cGF0aCBkPSJNNS4xMDA4NzItLjMwODg0MkM1LjEwMDg3Mi0uNjA3NzIxIDQuODQxODQzLS42MDc3MjEgNC43MDIzNjYtLjYwNzcyMUg0LjI1NDA0N1YtMy44ODU0M0M0LjI1NDA0Ny00LjE5NDI3MSA0LjE5NDI3MS00LjI5Mzg5OCAzLjg1NTU0Mi00LjI5Mzg5OEgzLjEyODI2OUMyLjk2ODg2Ny00LjI5Mzg5OCAyLjcxOTgwMS00LjI5Mzg5OCAyLjcxOTgwMS0zLjk4NTA1NkMyLjcxOTgwMS0zLjY4NjE3NyAyLjk3ODgyOS0zLjY4NjE3NyAzLjExODMwNi0zLjY4NjE3N0gzLjU2NjYyNVYtMS41NjQxMzRDMy41NjY2MjUtLjY2NzQ5NyAyLjc1OTY1MS0uNTQ3OTQ1IDIuNDQwODQ3LS41NDc5NDVDMS42NTM3OTgtLjU0Nzk0NSAxLjY1Mzc5OC0uODc2NzEyIDEuNjUzNzk4LTEuMTk1NTE3Vi0zLjg4NTQzQzEuNjUzNzk4LTQuMTk0MjcxIDEuNTk0MDIyLTQuMjkzODk4IDEuMjU1MjkzLTQuMjkzODk4SC41MjgwMkMuMzY4NjE4LTQuMjkzODk4IC4xMTk1NTItNC4yOTM4OTggLjExOTU1Mi0zLjk4NTA1NkMuMTE5NTUyLTMuNjg2MTc3IC4zNzg1OC0zLjY4NjE3NyAuNTE4MDU3LTMuNjg2MTc3SC45NjYzNzZWLTEuMTM1NzQxQy45NjYzNzYtLjE3OTMyOCAxLjY1Mzc5OCAuMDU5Nzc2IDIuMzgxMDcxIC4wNTk3NzZDMi43ODk1MzkgLjA1OTc3NiAzLjE5ODAwNy0uMDM5ODUxIDMuNTY2NjI1LS4zMTg4MDRDMy41NzY1ODggMCAzLjc4NTgwMyAwIDMuOTY1MTMxIDBINC42OTI0MDNDNC44NTE4MDYgMCA1LjEwMDg3MiAwIDUuMTAwODcyLS4zMDg4NDJaIiBpZD0iZzAtMTA5Ii8+JiN4YTs8cGF0aCBkPSJNNC42NjI1MTYgMS4zMTUwNjhDNC42NjI1MTYgLjk2NjM3NiA0LjMxMzgyMyAuOTY2Mzc2IDQuMTk0MjcxIC45NjYzNzZIMS4wMjYxNTJDLjkwNjYgLjk2NjM3NiAuNTU3OTA4IC45NjYzNzYgLjU1NzkwOCAxLjMxNTA2OFMuOTA2NiAxLjY2Mzc2MSAxLjAyNjE1MiAxLjY2Mzc2MUg0LjE5NDI3MUM0LjMxMzgyMyAxLjY2Mzc2MSA0LjY2MjUxNiAxLjY2Mzc2MSA0LjY2MjUxNiAxLjMxNTA2OFoiIGlkPSJnMC0xMTAiLz4mI3hhOzxwYXRoIGQ9Ik00Ljk4MTMyLTMuOTg1MDU2QzQuOTgxMzItNC4yOTM4OTggNC43NDIyMTctNC4yOTM4OTggNC41ODI4MTQtNC4yOTM4OThIMy40MTcxODZDMy4yNjc3NDYtNC4yOTM4OTggMy4wMTg2OC00LjI5Mzg5OCAzLjAxODY4LTMuOTk1MDE5QzMuMDE4NjgtMy42ODYxNzcgMy4yNTc3ODMtMy42ODYxNzcgMy40MTcxODYtMy42ODYxNzdIMy42OTYxMzlMMi42MTAyMTItLjQ3ODIwN0wxLjUyNDI4NC0zLjY4NjE3N0gxLjgwMzIzOEMxLjk1MjY3Ny0zLjY4NjE3NyAyLjIwMTc0My0zLjY4NjE3NyAyLjIwMTc0My0zLjk4NTA1NkMyLjIwMTc0My00LjI5Mzg5OCAxLjk2MjY0LTQuMjkzODk4IDEuODAzMjM4LTQuMjkzODk4SC42Mzc2MDlDLjQ3ODIwNy00LjI5Mzg5OCAuMjM5MTAzLTQuMjkzODk4IC4yMzkxMDMtMy45ODUwNTZDLjIzOTEwMy0zLjY4NjE3NyAuNDg4MTY5LTMuNjg2MTc3IC42Mzc2MDktMy42ODYxNzdILjkzNjQ4OEwyLjA4MjE5Mi0uMjk4ODc5QzIuMjAxNzQzIC4wMzk4NTEgMi40MDA5OTYgLjAzOTg1MSAyLjYxMDIxMiAuMDM5ODUxQzIuNzk5NTAyIC4wMzk4NTEgMy4wMjg2NDMgLjAzOTg1MSAzLjEzODIzMi0uMjg4OTE3TDQuMjgzOTM1LTMuNjg2MTc3SDQuNTgyODE0QzQuNzMyMjU0LTMuNjg2MTc3IDQuOTgxMzItMy42ODYxNzcgNC45ODEzMi0zLjk4NTA1NloiIGlkPSJnMC0xMTIiLz4mI3hhOzxwYXRoIGQ9Ik00Ljk0MTQ2OS0uMjk4ODc5QzQuOTQxNDY5LS42MDc3MjEgNC42ODI0NDEtLjYwNzcyMSA0LjUzMzAwMS0uNjA3NzIxSDQuMTM0NDk2TDIuODU5Mjc4LTIuMjExNzA2TDMuOTk1MDE5LTMuNjg2MTc3SDQuMzkzNTI0QzQuNTMzMDAxLTMuNjg2MTc3IDQuODAxOTkzLTMuNjg2MTc3IDQuODAxOTkzLTMuOTg1MDU2QzQuODAxOTkzLTQuMjkzODk4IDQuNTQyOTY0LTQuMjkzODk4IDQuMzkzNTI0LTQuMjkzODk4SDMuMjI3ODk1QzMuMDc4NDU2LTQuMjkzODk4IDIuODI5MzktNC4yOTM4OTggMi44MjkzOS0zLjk5NTAxOUMyLjgyOTM5LTMuNjg2MTc3IDMuMDQ4NTY4LTMuNjg2MTc3IDMuMzE3NTU5LTMuNjg2MTc3TDIuNTgwMzI0LTIuNjc5OTVMMS44MjMxNjMtMy42ODYxNzdDMi4wODIxOTItMy42ODYxNzcgMi4zMDEzNy0zLjY4NjE3NyAyLjMwMTM3LTMuOTk1MDE5QzIuMzAxMzctNC4yOTM4OTggMi4wNTIzMDQtNC4yOTM4OTggMS45MDI4NjQtNC4yOTM4OThILjczNzIzNUMuNTg3Nzk2LTQuMjkzODk4IC4zMjg3NjctNC4yOTM4OTggLjMyODc2Ny0zLjk4NTA1NkMuMzI4NzY3LTMuNjg2MTc3IC41OTc3NTgtMy42ODYxNzcgLjczNzIzNS0zLjY4NjE3N0gxLjEzNTc0MUwyLjMxMTMzMy0yLjIxMTcwNkwxLjA3NTk2NS0uNjA3NzIxSC42Nzc0NkMuNTI4MDItLjYwNzcyMSAuMjY4OTkxLS42MDc3MjEgLjI2ODk5MS0uMjk4ODc5Qy4yNjg5OTEgMCAuNTM3OTgzIDAgLjY3NzQ2IDBIMS44NDMwODhDMS45OTI1MjggMCAyLjI0MTU5NCAwIDIuMjQxNTk0LS4yOTg4NzlDMi4yNDE1OTQtLjYwNzcyMSAyLjAzMjM3OS0uNjA3NzIxIDEuNzIzNTM3LS42MDc3MjFMMi41ODAzMjQtMS44MzMxMjZMMy40NjY5OTktLjYwNzcyMUMzLjE4ODA0NS0uNjA3NzIxIDIuOTY4ODY3LS42MDc3MjEgMi45Njg4NjctLjI5ODg3OUMyLjk2ODg2NyAwIDMuMjE3OTMzIDAgMy4zNjczNzIgMEg0LjUzMzAwMUM0LjY3MjQ3OCAwIDQuOTQxNDY5IDAgNC45NDE0NjktLjI5ODg3OVoiIGlkPSJnMC0xMTYiLz4mI3hhOzxwYXRoIGQ9Ik00Ljk4MTMyLTMuOTg1MDU2QzQuOTgxMzItNC4yOTM4OTggNC43NDIyMTctNC4yOTM4OTggNC41ODI4MTQtNC4yOTM4OThIMy40MTcxODZDMy4yNjc3NDYtNC4yOTM4OTggMy4wMTg2OC00LjI5Mzg5OCAzLjAxODY4LTMuOTk1MDE5QzMuMDE4NjgtMy42ODYxNzcgMy4yNTc3ODMtMy42ODYxNzcgMy40MTcxODYtMy42ODYxNzdIMy42OTYxMzlMMi45Nzg4MjktMS41NjQxMzRDMi44NDkzMTUtMS4xOTU1MTcgMi43ODk1MzktMS4wMTYxODkgMi43MTk4MDEtLjcwNzM0N0gyLjcwOTgzOEMyLjY2MDAyNS0uODk2NjM4IDIuNTcwMzYxLTEuMTA1ODUzIDIuNTAwNjIzLTEuMjk1MTQzTDEuNTc0MDk3LTMuNjg2MTc3SDEuODIzMTYzQzEuOTcyNjAzLTMuNjg2MTc3IDIuMjIxNjY5LTMuNjg2MTc3IDIuMjIxNjY5LTMuOTg1MDU2QzIuMjIxNjY5LTQuMjkzODk4IDEuOTgyNTY1LTQuMjkzODk4IDEuODIzMTYzLTQuMjkzODk4SC42NTc1MzRDLjQ5ODEzMi00LjI5Mzg5OCAuMjU5MDI5LTQuMjkzODk4IC4yNTkwMjktMy45ODUwNTZDLjI1OTAyOS0zLjY4NjE3NyAuNTA4MDk1LTMuNjg2MTc3IC42NTc1MzQtMy42ODYxNzdILjk2NjM3NkwyLjM4MTA3MS0uMTI5NTE0QzIuNDIwOTIyLS4wMjk4ODggMi40MjA5MjIgMCAyLjQyMDkyMiAwUzIuMTcxODU2IC44MzY4NjIgMi4wNDIzNDEgMS4wODU5MjhDMS43NTM0MjUgMS42MzM4NzMgMS4zOTQ3NyAxLjY1Mzc5OCAxLjI0NTMzIDEuNjYzNzYxQzEuMjQ1MzMgMS42NjM3NjEgMS4yOTUxNDMgMS41NzQwOTcgMS4yOTUxNDMgMS40NDQ1ODNDMS4yOTUxNDMgMS4xOTU1MTcgMS4xMTU4MTYgMS4wMTYxODkgLjg2Njc1IDEuMDE2MTg5Qy41OTc3NTggMS4wMTYxODkgLjQyODM5NCAxLjE5NTUxNyAuNDI4Mzk0IDEuNDU0NTQ1Qy40MjgzOTQgMS44NzI5NzYgLjc2NzEyMyAyLjI3MTQ4MiAxLjI1NTI5MyAyLjI3MTQ4MkMyLjI1MTU1NyAyLjI3MTQ4MiAyLjY5OTg3NSAuOTU2NDEzIDIuNzM5NzI2IC44NDY4MjRMNC4yODM5MzUtMy42ODYxNzdINC41ODI4MTRDNC43MzIyNTQtMy42ODYxNzcgNC45ODEzMi0zLjY4NjE3NyA0Ljk4MTMyLTMuOTg1MDU2WiIgaWQ9ImcwLTExOCIvPiYjeGE7PHBhdGggZD0iTTQuNzIyMjkxLTMuMDM4NjA1QzQuNzIyMjkxLTQuODkxNjU2IDMuNzA2MTAyLTYuMTk2NzYyIDIuNjEwMjEyLTYuMTk2NzYyQzEuNDk0Mzk2LTYuMTk2NzYyIC40OTgxMzItNC44NjE3NjggLjQ5ODEzMi0zLjA0ODU2OEMuNDk4MTMyLTEuMTk1NTE3IDEuNTE0MzIxIC4xMDk1ODkgMi42MTAyMTIgLjEwOTU4OUMzLjcyNjAyNyAuMTA5NTg5IDQuNzIyMjkxLTEuMjI1NDA1IDQuNzIyMjkxLTMuMDM4NjA1Wk00LjAzNDg2OS0zLjE0ODE5NEM0LjAzNDg2OS0xLjY3MzcyNCAzLjM4NzI5OC0uNDk4MTMyIDIuNjEwMjEyLS40OTgxMzJTMS4xODU1NTQtMS42NzM3MjQgMS4xODU1NTQtMy4xNDgxOTRDMS4xODU1NTQtNC42MDI3NCAxLjg3Mjk3Ni01LjU4OTA0MSAyLjYxMDIxMi01LjU4OTA0MUMzLjMzNzQ4NC01LjU4OTA0MSA0LjAzNDg2OS00LjYxMjcwMiA0LjAzNDg2OS0zLjE0ODE5NFoiIGlkPSJnMC0xMjEiLz4mI3hhOzwvZGVmcz4mI3hhOzxnIGlkPSJwYWdlMSI+JiN4YTs8dXNlIHhsaW5rOmhyZWY9IiNnMC0xMjEiIHk9Ii0zNy40NTY3OTciIHg9Ii00My42NTM1NiIvPiYjeGE7PHVzZSB4bGluazpocmVmPSIjZzAtNDQiIHk9Ii0zNy40NTY3OTciIHg9Ii0zOC40MjMxNzQiLz4mI3hhOzx1c2UgeGxpbms6aHJlZj0iI2cwLTEyMSIgeT0iLTI1LjUwMTYyOCIgeD0iLTEyLjI3MTI0NCIvPiYjeGE7PHVzZSB4bGluazpocmVmPSIjZzAtODQiIHk9Ii0yNS41MDE2MjgiIHg9IjguNjUwMzAxIi8+JiN4YTs8dXNlIHhsaW5rOmhyZWY9IiNnMC0xMDkiIHk9Ii0yNS41MDE2MjgiIHg9IjEzLjg4MDY4NyIvPiYjeGE7PHVzZSB4bGluazpocmVmPSIjZzAtOTgiIHk9Ii0yNS41MDE2MjgiIHg9IjE5LjExMTA3MyIvPiYjeGE7PHVzZSB4bGluazpocmVmPSIjZzAtNjMiIHk9Ii0yNS41MDE2MjgiIHg9IjI0LjM0MTQ1OSIvPiYjeGE7PHVzZSB4bGluazpocmVmPSIjZzAtMTEwIiB5PSItMjUuNTAxNjI4IiB4PSIyOS41NzE4NDUiLz4mI3hhOzx1c2UgeGxpbms6aHJlZj0iI2cwLTczIiB5PSItMjUuNTAxNjI4IiB4PSI0NS4yNjMwMDMiLz4mI3hhOzx1c2UgeGxpbms6aHJlZj0iI2cwLTM1IiB5PSItMjUuNTAxNjI4IiB4PSI1MC40OTMzODkiLz4mI3hhOzx1c2UgeGxpbms6aHJlZj0iI2cwLTcyIiB5PSItMjUuNTAxNjI4IiB4PSI1NS43MjM3NzUiLz4mI3hhOzx1c2UgeGxpbms6aHJlZj0iI2cwLTEwNSIgeT0iLTI1LjUwMTYyOCIgeD0iNjAuOTU0MTYxIi8+JiN4YTs8dXNlIHhsaW5rOmhyZWY9IiNnMC02NiIgeT0iLTI1LjUwMTYyOCIgeD0iNzEuNDE0OTMzIi8+JiN4YTs8dXNlIHhsaW5rOmhyZWY9IiNnMC05OCIgeT0iLTI1LjUwMTYyOCIgeD0iNzYuNjQ1MzE5Ii8+JiN4YTs8dXNlIHhsaW5rOmhyZWY9IiNnMC04OCIgeT0iLTI1LjUwMTYyOCIgeD0iODEuODc1NzA1Ii8+JiN4YTs8dXNlIHhsaW5rOmhyZWY9IiNnMC02NiIgeT0iLTI1LjUwMTYyOCIgeD0iODcuMTA2MDkxIi8+JiN4YTs8dXNlIHhsaW5rOmhyZWY9IiNnMC03NyIgeT0iLTI1LjUwMTYyOCIgeD0iOTIuMzM2NDc3Ii8+JiN4YTs8dXNlIHhsaW5rOmhyZWY9IiNnMC0xMDUiIHk9Ii0yNS41MDE2MjgiIHg9Ijk3LjU2Njg2NCIvPiYjeGE7PHVzZSB4bGluazpocmVmPSIjZzAtNTAiIHk9Ii0yNS41MDE2MjgiIHg9IjEwMi43OTcyNSIvPiYjeGE7PHVzZSB4bGluazpocmVmPSIjZzAtNTkiIHk9Ii0yNS41MDE2MjgiIHg9IjEwOC4wMjc2MzYiLz4mI3hhOzx1c2UgeGxpbms6aHJlZj0iI2cwLTUwIiB5PSItMjUuNTAxNjI4IiB4PSIxMTMuMjU4MDIyIi8+JiN4YTs8dXNlIHhsaW5rOmhyZWY9IiNnMC05NiIgeT0iLTI1LjUwMTYyOCIgeD0iMTE4LjQ4ODQwOCIvPiYjeGE7PHVzZSB4bGluazpocmVmPSIjZzAtNjEiIHk9Ii0yNS41MDE2MjgiIHg9IjEyMy43MTg3OTQiLz4mI3hhOzx1c2UgeGxpbms6aHJlZj0iI2cwLTU2IiB5PSItMTMuNTQ2NDYiIHg9Ii0xMi4yNzEyNDQiLz4mI3hhOzx1c2UgeGxpbms6aHJlZj0iI2cwLTQ3IiB5PSItMTMuNTQ2NDYiIHg9IjguNjUwMzAxIi8+JiN4YTs8dXNlIHhsaW5rOmhyZWY9IiNnMC0xMDkiIHk9Ii0xMy41NDY0NiIgeD0iMTMuODgwNjg3Ii8+JiN4YTs8dXNlIHhsaW5rOmhyZWY9IiNnMC04NCIgeT0iLTEzLjU0NjQ2IiB4PSIxOS4xMTEwNzMiLz4mI3hhOzx1c2UgeGxpbms6aHJlZj0iI2cwLTExMCIgeT0iLTEzLjU0NjQ2IiB4PSIyNC4zNDE0NTkiLz4mI3hhOzx1c2UgeGxpbms6aHJlZj0iI2cwLTEwMSIgeT0iLTEuNTkxMjkyIiB4PSItMTIuMjcxMjQ0Ii8+JiN4YTs8dXNlIHhsaW5rOmhyZWY9IiNnMC03MiIgeT0iLTEuNTkxMjkyIiB4PSI4LjY1MDMwMSIvPiYjeGE7PHVzZSB4bGluazpocmVmPSIjZzAtNDciIHk9Ii0xLjU5MTI5MiIgeD0iMTMuODgwNjg3Ii8+JiN4YTs8dXNlIHhsaW5rOmhyZWY9IiNnMC0xMTIiIHk9Ii0xLjU5MTI5MiIgeD0iMTkuMTExMDczIi8+JiN4YTs8dXNlIHhsaW5rOmhyZWY9IiNnMC0yOCIgeT0iLTEuNTkxMjkyIiB4PSIyNC4zNDE0NTkiLz4mI3hhOzx1c2UgeGxpbms6aHJlZj0iI2cwLTk2IiB5PSItMS41OTEyOTIiIHg9IjI5LjU3MTg0NSIvPiYjeGE7PHVzZSB4bGluazpocmVmPSIjZzAtMTEwIiB5PSItMS41OTEyOTIiIHg9IjM0LjgwMjIzMSIvPiYjeGE7PHVzZSB4bGluazpocmVmPSIjZzAtNzciIHk9Ii0xLjU5MTI5MiIgeD0iNDAuMDMyNjE3Ii8+JiN4YTs8dXNlIHhsaW5rOmhyZWY9IiNnMC04MSIgeT0iLTEuNTkxMjkyIiB4PSI0NS4yNjMwMDMiLz4mI3hhOzx1c2UgeGxpbms6aHJlZj0iI2cwLTU1IiB5PSItMS41OTEyOTIiIHg9IjUwLjQ5MzM4OSIvPiYjeGE7PHVzZSB4bGluazpocmVmPSIjZzAtODEiIHk9Ii0xLjU5MTI5MiIgeD0iNTUuNzIzNzc1Ii8+JiN4YTs8dXNlIHhsaW5rOmhyZWY9IiNnMC05NiIgeT0iLTEuNTkxMjkyIiB4PSI2MC45NTQxNjEiLz4mI3hhOzx1c2UgeGxpbms6aHJlZj0iI2cwLTQzIiB5PSItMS41OTEyOTIiIHg9IjY2LjE4NDU0NyIvPiYjeGE7PHVzZSB4bGluazpocmVmPSIjZzAtNTAiIHk9Ii0xLjU5MTI5MiIgeD0iNzEuNDE0OTMzIi8+JiN4YTs8dXNlIHhsaW5rOmhyZWY9IiNnMC0xMTAiIHk9Ii0xLjU5MTI5MiIgeD0iNzYuNjQ1MzE5Ii8+JiN4YTs8dXNlIHhsaW5rOmhyZWY9IiNnMC02NiIgeT0iLTEuNTkxMjkyIiB4PSI5Mi4zMzY0NzciLz4mI3hhOzx1c2UgeGxpbms6aHJlZj0iI2cwLTk4IiB5PSItMS41OTEyOTIiIHg9Ijk3LjU2Njg2NCIvPiYjeGE7PHVzZSB4bGluazpocmVmPSIjZzAtODgiIHk9Ii0xLjU5MTI5MiIgeD0iMTAyLjc5NzI1Ii8+JiN4YTs8dXNlIHhsaW5rOmhyZWY9IiNnMC02NiIgeT0iLTEuNTkxMjkyIiB4PSIxMDguMDI3NjM2Ii8+JiN4YTs8dXNlIHhsaW5rOmhyZWY9IiNnMC03NyIgeT0iLTEuNTkxMjkyIiB4PSIxMTMuMjU4MDIyIi8+JiN4YTs8dXNlIHhsaW5rOmhyZWY9IiNnMC0xMDUiIHk9Ii0xLjU5MTI5MiIgeD0iMTE4LjQ4ODQwOCIvPiYjeGE7PHVzZSB4bGluazpocmVmPSIjZzAtNTAiIHk9Ii0xLjU5MTI5MiIgeD0iMTIzLjcxODc5NCIvPiYjeGE7PHVzZSB4bGluazpocmVmPSIjZzAtNTkiIHk9Ii0xLjU5MTI5MiIgeD0iMTI4Ljk0OTE4Ii8+JiN4YTs8dXNlIHhsaW5rOmhyZWY9IiNnMC01MCIgeT0iLTEuNTkxMjkyIiB4PSIxMzQuMTc5NTY2Ii8+JiN4YTs8dXNlIHhsaW5rOmhyZWY9IiNnMC05NiIgeT0iLTEuNTkxMjkyIiB4PSIxMzkuNDA5OTUyIi8+JiN4YTs8dXNlIHhsaW5rOmhyZWY9IiNnMC04MiIgeT0iMTAuMzYzODc2IiB4PSItMTcuNTAxNjMiLz4mI3hhOzx1c2UgeGxpbms6aHJlZj0iI2cwLTgyIiB5PSIxMC4zNjM4NzYiIHg9Ii0xMi4yNzEyNDQiLz4mI3hhOzx1c2UgeGxpbms6aHJlZj0iI2cwLTY2IiB5PSIxMC4zNjM4NzYiIHg9IjguNjUwMzAxIi8+JiN4YTs8dXNlIHhsaW5rOmhyZWY9IiNnMC00NyIgeT0iMTAuMzYzODc2IiB4PSIxMy44ODA2ODciLz4mI3hhOzx1c2UgeGxpbms6aHJlZj0iI2cwLTUwIiB5PSIxMC4zNjM4NzYiIHg9IjE5LjExMTA3MyIvPiYjeGE7PHVzZSB4bGluazpocmVmPSIjZzAtNzciIHk9IjEwLjM2Mzg3NiIgeD0iMjQuMzQxNDU5Ii8+JiN4YTs8dXNlIHhsaW5rOmhyZWY9IiNnMC0xMDUiIHk9IjEwLjM2Mzg3NiIgeD0iMjkuNTcxODQ1Ii8+JiN4YTs8dXNlIHhsaW5rOmhyZWY9IiNnMC02NiIgeT0iMTAuMzYzODc2IiB4PSIzNC44MDIyMzEiLz4mI3hhOzx1c2UgeGxpbms6aHJlZj0iI2cwLTQzIiB5PSIxMC4zNjM4NzYiIHg9IjQwLjAzMjYxNyIvPiYjeGE7PHVzZSB4bGluazpocmVmPSIjZzAtMjgiIHk9IjEwLjM2Mzg3NiIgeD0iNDUuMjYzMDAzIi8+JiN4YTs8dXNlIHhsaW5rOmhyZWY9IiNnMC03MiIgeT0iMTAuMzYzODc2IiB4PSI1MC40OTMzODkiLz4mI3hhOzx1c2UgeGxpbms6aHJlZj0iI2cwLTExMCIgeT0iMTAuMzYzODc2IiB4PSI1NS43MjM3NzUiLz4mI3hhOzx1c2UgeGxpbms6aHJlZj0iI2cwLTc3IiB5PSIxMC4zNjM4NzYiIHg9IjYwLjk1NDE2MSIvPiYjeGE7PHVzZSB4bGluazpocmVmPSIjZzAtODEiIHk9IjEwLjM2Mzg3NiIgeD0iNjYuMTg0NTQ3Ii8+JiN4YTs8dXNlIHhsaW5rOmhyZWY9IiNnMC01NSIgeT0iMTAuMzYzODc2IiB4PSI3MS40MTQ5MzMiLz4mI3hhOzx1c2UgeGxpbms6aHJlZj0iI2cwLTgxIiB5PSIxMC4zNjM4NzYiIHg9Ijc2LjY0NTMxOSIvPiYjeGE7PHVzZSB4bGluazpocmVmPSIjZzAtOTYiIHk9IjEwLjM2Mzg3NiIgeD0iODEuODc1NzA1Ii8+JiN4YTs8dXNlIHhsaW5rOmhyZWY9IiNnMC00MyIgeT0iMTAuMzYzODc2IiB4PSI4Ny4xMDYwOTEiLz4mI3hhOzx1c2UgeGxpbms6aHJlZj0iI2cwLTUwIiB5PSIxMC4zNjM4NzYiIHg9IjkyLjMzNjQ3NyIvPiYjeGE7PHVzZSB4bGluazpocmVmPSIjZzAtMTEwIiB5PSIxMC4zNjM4NzYiIHg9Ijk3LjU2Njg2NCIvPiYjeGE7PHVzZSB4bGluazpocmVmPSIjZzAtODIiIHk9IjIyLjMxOTA0NCIgeD0iLTE3LjUwMTYzIi8+JiN4YTs8dXNlIHhsaW5rOmhyZWY9IiNnMC0xMDciIHk9IjIyLjMxOTA0NCIgeD0iLTEyLjI3MTI0NCIvPiYjeGE7PHVzZSB4bGluazpocmVmPSIjZzAtNDAiIHk9IjIyLjMxOTA0NCIgeD0iOC42NTAzMDEiLz4mI3hhOzx1c2UgeGxpbms6aHJlZj0iI2cwLTExMCIgeT0iMjIuMzE5MDQ0IiB4PSIxOS4xMTEwNzMiLz4mI3hhOzx1c2UgeGxpbms6aHJlZj0iI2cwLTQxIiB5PSIyMi4zMTkwNDQiIHg9IjI5LjU3MTg0NSIvPiYjeGE7PHVzZSB4bGluazpocmVmPSIjZzAtMTA0IiB5PSIyMi4zMTkwNDQiIHg9IjQwLjAzMjYxNyIvPiYjeGE7PHVzZSB4bGluazpocmVmPSIjZzAtNTAiIHk9IjIyLjMxOTA0NCIgeD0iNDUuMjYzMDAzIi8+JiN4YTs8dXNlIHhsaW5rOmhyZWY9IiNnMC05OCIgeT0iMjIuMzE5MDQ0IiB4PSI1MC40OTMzODkiLz4mI3hhOzx1c2UgeGxpbms6aHJlZj0iI2cwLTEwNSIgeT0iMjIuMzE5MDQ0IiB4PSI1NS43MjM3NzUiLz4mI3hhOzx1c2UgeGxpbms6aHJlZj0iI2cwLTc5IiB5PSIyMi4zMTkwNDQiIHg9IjYwLjk1NDE2MSIvPiYjeGE7PHVzZSB4bGluazpocmVmPSIjZzAtMTIxIiB5PSIyMi4zMTkwNDQiIHg9IjY2LjE4NDU0NyIvPiYjeGE7PHVzZSB4bGluazpocmVmPSIjZzAtODIiIHk9IjM0LjI3NDIxMiIgeD0iLTE3LjUwMTYzIi8+JiN4YTs8dXNlIHhsaW5rOmhyZWY9IiNnMC0xMDAiIHk9IjM0LjI3NDIxMiIgeD0iLTEyLjI3MTI0NCIvPiYjeGE7PHVzZSB4bGluazpocmVmPSIjZzAtMzUiIHk9IjM0LjI3NDIxMiIgeD0iOC42NTAzMDEiLz4mI3hhOzx1c2UgeGxpbms6aHJlZj0iI2cwLTk2IiB5PSIzNC4yNzQyMTIiIHg9IjEzLjg4MDY4NyIvPiYjeGE7PHVzZSB4bGluazpocmVmPSIjZzAtMTA1IiB5PSIzNC4yNzQyMTIiIHg9IjE5LjExMTA3MyIvPiYjeGE7PHVzZSB4bGluazpocmVmPSIjZzAtOTYiIHk9IjM0LjI3NDIxMiIgeD0iMjQuMzQxNDU5Ii8+JiN4YTs8dXNlIHhsaW5rOmhyZWY9IiNnMC0xMDkiIHk9IjM0LjI3NDIxMiIgeD0iMjkuNTcxODQ1Ii8+JiN4YTs8dXNlIHhsaW5rOmhyZWY9IiNnMC01MCIgeT0iMzQuMjc0MjEyIiB4PSIzNC44MDIyMzEiLz4mI3hhOzx1c2UgeGxpbms6aHJlZj0iI2cwLTExMCIgeT0iMzQuMjc0MjEyIiB4PSI0MC4wMzI2MTciLz4mI3hhOzx1c2UgeGxpbms6aHJlZj0iI2cwLTgyIiB5PSIzNC4yNzQyMTIiIHg9IjU1LjcyMzc3NSIvPiYjeGE7PHVzZSB4bGluazpocmVmPSIjZzAtMTA3IiB5PSI0Ni4yMjkzOCIgeD0iLTE3LjUwMTYzIi8+JiN4YTs8dXNlIHhsaW5rOmhyZWY9IiNnMC0xMDciIHk9IjQ2LjIyOTM4IiB4PSItMTIuMjcxMjQ0Ii8+JiN4YTs8dXNlIHhsaW5rOmhyZWY9IiNnMC04NCIgeT0iNDYuMjI5MzgiIHg9IjguNjUwMzAxIi8+JiN4YTs8dXNlIHhsaW5rOmhyZWY9IiNnMC04MSIgeT0iNDYuMjI5MzgiIHg9IjEzLjg4MDY4NyIvPiYjeGE7PHVzZSB4bGluazpocmVmPSIjZzAtODQiIHk9IjQ2LjIyOTM4IiB4PSIxOS4xMTEwNzMiLz4mI3hhOzx1c2UgeGxpbms6aHJlZj0iI2cwLTExMCIgeT0iNDYuMjI5MzgiIHg9IjI0LjM0MTQ1OSIvPiYjeGE7PHVzZSB4bGluazpocmVmPSIjZzAtMTA3IiB5PSI1OC4xODQ1NDgiIHg9Ii0xNy41MDE2MyIvPiYjeGE7PHVzZSB4bGluazpocmVmPSIjZzAtMTA2IiB5PSI1OC4xODQ1NDgiIHg9Ii0xMi4yNzEyNDQiLz4mI3hhOzx1c2UgeGxpbms6aHJlZj0iI2cwLTcyIiB5PSI1OC4xODQ1NDgiIHg9IjguNjUwMzAxIi8+JiN4YTs8dXNlIHhsaW5rOmhyZWY9IiNnMC00NyIgeT0iNTguMTg0NTQ4IiB4PSIxMy44ODA2ODciLz4mI3hhOzx1c2UgeGxpbms6aHJlZj0iI2cwLTU1IiB5PSI1OC4xODQ1NDgiIHg9IjE5LjExMTA3MyIvPiYjeGE7PHVzZSB4bGluazpocmVmPSIjZzAtMTA5IiB5PSI1OC4xODQ1NDgiIHg9IjI0LjM0MTQ1OSIvPiYjeGE7PHVzZSB4bGluazpocmVmPSIjZzAtNzciIHk9IjU4LjE4NDU0OCIgeD0iMjkuNTcxODQ1Ii8+JiN4YTs8dXNlIHhsaW5rOmhyZWY9IiNnMC0xMTAiIHk9IjU4LjE4NDU0OCIgeD0iMzQuODAyMjMxIi8+JiN4YTs8dXNlIHhsaW5rOmhyZWY9IiNnMC02NiIgeT0iNTguMTg0NTQ4IiB4PSI1MC40OTMzODkiLz4mI3hhOzx1c2UgeGxpbms6aHJlZj0iI2cwLTk4IiB5PSI1OC4xODQ1NDgiIHg9IjU1LjcyMzc3NSIvPiYjeGE7PHVzZSB4bGluazpocmVmPSIjZzAtODgiIHk9IjU4LjE4NDU0OCIgeD0iNjAuOTU0MTYxIi8+JiN4YTs8dXNlIHhsaW5rOmhyZWY9IiNnMC02NiIgeT0iNTguMTg0NTQ4IiB4PSI2Ni4xODQ1NDciLz4mI3hhOzx1c2UgeGxpbms6aHJlZj0iI2cwLTc3IiB5PSI1OC4xODQ1NDgiIHg9IjcxLjQxNDkzMyIvPiYjeGE7PHVzZSB4bGluazpocmVmPSIjZzAtMTA1IiB5PSI1OC4xODQ1NDgiIHg9Ijc2LjY0NTMxOSIvPiYjeGE7PHVzZSB4bGluazpocmVmPSIjZzAtNTAiIHk9IjU4LjE4NDU0OCIgeD0iODEuODc1NzA1Ii8+JiN4YTs8dXNlIHhsaW5rOmhyZWY9IiNnMC01OSIgeT0iNTguMTg0NTQ4IiB4PSI4Ny4xMDYwOTEiLz4mI3hhOzx1c2UgeGxpbms6aHJlZj0iI2cwLTUwIiB5PSI1OC4xODQ1NDgiIHg9IjkyLjMzNjQ3NyIvPiYjeGE7PHVzZSB4bGluazpocmVmPSIjZzAtOTYiIHk9IjU4LjE4NDU0OCIgeD0iOTcuNTY2ODY0Ii8+JiN4YTs8dXNlIHhsaW5rOmhyZWY9IiNnMC0xMDciIHk9IjcwLjEzOTcxNyIgeD0iLTE3LjUwMTYzIi8+JiN4YTs8dXNlIHhsaW5rOmhyZWY9IiNnMC01MSIgeT0iNzAuMTM5NzE3IiB4PSItMTIuMjcxMjQ0Ii8+JiN4YTs8dXNlIHhsaW5rOmhyZWY9IiNnMC00MCIgeT0iNzAuMTM5NzE3IiB4PSI4LjY1MDMwMSIvPiYjeGE7PHVzZSB4bGluazpocmVmPSIjZzAtMTIxIiB5PSI3MC4xMzk3MTciIHg9IjE5LjExMTA3MyIvPiYjeGE7PHVzZSB4bGluazpocmVmPSIjZzAtNDUiIHk9IjcwLjEzOTcxNyIgeD0iMjQuMzQxNDU5Ii8+JiN4YTs8dXNlIHhsaW5rOmhyZWY9IiNnMC03MyIgeT0iNzAuMTM5NzE3IiB4PSIzNC44MDIyMzEiLz4mI3hhOzx1c2UgeGxpbms6aHJlZj0iI2cwLTEyMSIgeT0iNzAuMTM5NzE3IiB4PSI0MC4wMzI2MTciLz4mI3hhOzx1c2UgeGxpbms6aHJlZj0iI2cwLTYxIiB5PSI3MC4xMzk3MTciIHg9IjQ1LjI2MzAwMyIvPiYjeGE7PHVzZSB4bGluazpocmVmPSIjZzAtNDUiIHk9IjcwLjEzOTcxNyIgeD0iNTAuNDkzMzg5Ii8+JiN4YTs8dXNlIHhsaW5rOmhyZWY9IiNnMC0xMTIiIHk9IjcwLjEzOTcxNyIgeD0iNjAuOTU0MTYxIi8+JiN4YTs8dXNlIHhsaW5rOmhyZWY9IiNnMC0yOCIgeT0iNzAuMTM5NzE3IiB4PSI2Ni4xODQ1NDciLz4mI3hhOzx1c2UgeGxpbms6aHJlZj0iI2cwLTcyIiB5PSI3MC4xMzk3MTciIHg9IjcxLjQxNDkzMyIvPiYjeGE7PHVzZSB4bGluazpocmVmPSIjZzAtNjYiIHk9IjcwLjEzOTcxNyIgeD0iNzYuNjQ1MzE5Ii8+JiN4YTs8dXNlIHhsaW5rOmhyZWY9IiNnMC00NyIgeT0iNzAuMTM5NzE3IiB4PSI4MS44NzU3MDUiLz4mI3hhOzx1c2UgeGxpbms6aHJlZj0iI2cwLTQxIiB5PSI3MC4xMzk3MTciIHg9Ijk3LjU2Njg2NCIvPiYjeGE7PHVzZSB4bGluazpocmVmPSIjZzAtNDIiIHk9IjcwLjEzOTcxNyIgeD0iMTA4LjAyNzYzNiIvPiYjeGE7PHVzZSB4bGluazpocmVmPSIjZzAtMjgiIHk9IjcwLjEzOTcxNyIgeD0iMTEzLjI1ODAyMiIvPiYjeGE7PHVzZSB4bGluazpocmVmPSIjZzAtNzIiIHk9IjcwLjEzOTcxNyIgeD0iMTE4LjQ4ODQwOCIvPiYjeGE7PHVzZSB4bGluazpocmVmPSIjZzAtNzIiIHk9IjcwLjEzOTcxNyIgeD0iMTIzLjcxODc5NCIvPiYjeGE7PHVzZSB4bGluazpocmVmPSIjZzAtNzkiIHk9IjcwLjEzOTcxNyIgeD0iMTI4Ljk0OTE4Ii8+JiN4YTs8dXNlIHhsaW5rOmhyZWY9IiNnMC0xMjEiIHk9IjcwLjEzOTcxNyIgeD0iMTM0LjE3OTU2NiIvPiYjeGE7PHVzZSB4bGluazpocmVmPSIjZzAtMTA2IiB5PSI4Mi4wOTQ4ODUiIHg9Ii0xNy41MDE2MyIvPiYjeGE7PHVzZSB4bGluazpocmVmPSIjZzAtMTA2IiB5PSI4Mi4wOTQ4ODUiIHg9Ii0xMi4yNzEyNDQiLz4mI3hhOzx1c2UgeGxpbms6aHJlZj0iI2cwLTc1IiB5PSI4Mi4wOTQ4ODUiIHg9IjguNjUwMzAxIi8+JiN4YTs8dXNlIHhsaW5rOmhyZWY9IiNnMC03MCIgeT0iODIuMDk0ODg1IiB4PSIxMy44ODA2ODciLz4mI3hhOzx1c2UgeGxpbms6aHJlZj0iI2cwLTExMCIgeT0iODIuMDk0ODg1IiB4PSIxOS4xMTEwNzMiLz4mI3hhOzx1c2UgeGxpbms6aHJlZj0iI2cwLTg0IiB5PSI4Mi4wOTQ4ODUiIHg9IjI0LjM0MTQ1OSIvPiYjeGE7PHVzZSB4bGluazpocmVmPSIjZzAtOTYiIHk9IjgyLjA5NDg4NSIgeD0iMjkuNTcxODQ1Ii8+JiN4YTs8dXNlIHhsaW5rOmhyZWY9IiNnMC04MSIgeT0iODIuMDk0ODg1IiB4PSIzNC44MDIyMzEiLz4mI3hhOzx1c2UgeGxpbms6aHJlZj0iI2cwLTc1IiB5PSI4Mi4wOTQ4ODUiIHg9IjQwLjAzMjYxNyIvPiYjeGE7PHVzZSB4bGluazpocmVmPSIjZzAtNjYiIHk9IjgyLjA5NDg4NSIgeD0iNDUuMjYzMDAzIi8+JiN4YTs8dXNlIHhsaW5rOmhyZWY9IiNnMC05OCIgeT0iODIuMDk0ODg1IiB4PSI1MC40OTMzODkiLz4mI3hhOzx1c2UgeGxpbms6aHJlZj0iI2cwLTUwIiB5PSI4Mi4wOTQ4ODUiIHg9IjU1LjcyMzc3NSIvPiYjeGE7PHVzZSB4bGluazpocmVmPSIjZzAtMTEwIiB5PSI4Mi4wOTQ4ODUiIHg9IjYwLjk1NDE2MSIvPiYjeGE7PHVzZSB4bGluazpocmVmPSIjZzAtMTIxIiB5PSI4Mi4wOTQ4ODUiIHg9Ijc2LjY0NTMxOSIvPiYjeGE7PHVzZSB4bGluazpocmVmPSIjZzAtMTA2IiB5PSI5NC4wNTAwNTMiIHg9Ii0xNy41MDE2MyIvPiYjeGE7PHVzZSB4bGluazpocmVmPSIjZzAtNTEiIHk9Ijk0LjA1MDA1MyIgeD0iLTEyLjI3MTI0NCIvPiYjeGE7PHVzZSB4bGluazpocmVmPSIjZzAtOTkiIHk9Ijk0LjA1MDA1MyIgeD0iOC42NTAzMDEiLz4mI3hhOzx1c2UgeGxpbms6aHJlZj0iI2cwLTY2IiB5PSI5NC4wNTAwNTMiIHg9IjE5LjExMTA3MyIvPiYjeGE7PHVzZSB4bGluazpocmVmPSIjZzAtOTgiIHk9Ijk0LjA1MDA1MyIgeD0iMjQuMzQxNDU5Ii8+JiN4YTs8dXNlIHhsaW5rOmhyZWY9IiNnMC04OCIgeT0iOTQuMDUwMDUzIiB4PSIyOS41NzE4NDUiLz4mI3hhOzx1c2UgeGxpbms6aHJlZj0iI2cwLTY2IiB5PSI5NC4wNTAwNTMiIHg9IjM0LjgwMjIzMSIvPiYjeGE7PHVzZSB4bGluazpocmVmPSIjZzAtNzciIHk9Ijk0LjA1MDA1MyIgeD0iNDAuMDMyNjE3Ii8+JiN4YTs8dXNlIHhsaW5rOmhyZWY9IiNnMC0xMDUiIHk9Ijk0LjA1MDA1MyIgeD0iNDUuMjYzMDAzIi8+JiN4YTs8dXNlIHhsaW5rOmhyZWY9IiNnMC01MCIgeT0iOTQuMDUwMDUzIiB4PSI1MC40OTMzODkiLz4mI3hhOzx1c2UgeGxpbms6aHJlZj0iI2cwLTU5IiB5PSI5NC4wNTAwNTMiIHg9IjU1LjcyMzc3NSIvPiYjeGE7PHVzZSB4bGluazpocmVmPSIjZzAtNTAiIHk9Ijk0LjA1MDA1MyIgeD0iNjAuOTU0MTYxIi8+JiN4YTs8dXNlIHhsaW5rOmhyZWY9IiNnMC05NiIgeT0iOTQuMDUwMDUzIiB4PSI2Ni4xODQ1NDciLz4mI3hhOzx1c2UgeGxpbms6aHJlZj0iI2cwLTg1IiB5PSI5NC4wNTAwNTMiIHg9IjcxLjQxNDkzMyIvPiYjeGE7PHVzZSB4bGluazpocmVmPSIjZzAtMTE2IiB5PSI5NC4wNTAwNTMiIHg9Ijc2LjY0NTMxOSIvPiYjeGE7PHVzZSB4bGluazpocmVmPSIjZzAtODYiIHk9Ijk0LjA1MDA1MyIgeD0iODEuODc1NzA1Ii8+JiN4YTs8dXNlIHhsaW5rOmhyZWY9IiNnMC00MyIgeT0iMTA2LjAwNTIyMSIgeD0iOC42NTAzMDEiLz4mI3hhOzx1c2UgeGxpbms6aHJlZj0iI2cwLTI4IiB5PSIxMDYuMDA1MjIxIiB4PSIxMy44ODA2ODciLz4mI3hhOzx1c2UgeGxpbms6aHJlZj0iI2cwLTcyIiB5PSIxMDYuMDA1MjIxIiB4PSIxOS4xMTEwNzMiLz4mI3hhOzx1c2UgeGxpbms6aHJlZj0iI2cwLTcyIiB5PSIxMDYuMDA1MjIxIiB4PSIyNC4zNDE0NTkiLz4mI3hhOzx1c2UgeGxpbms6aHJlZj0iI2cwLTExMCIgeT0iMTA2LjAwNTIyMSIgeD0iMjkuNTcxODQ1Ii8+JiN4YTs8dXNlIHhsaW5rOmhyZWY9IiNnMC04MiIgeT0iMTA2LjAwNTIyMSIgeD0iNDUuMjYzMDAzIi8+JiN4YTs8dXNlIHhsaW5rOmhyZWY9IiNnMC01NiIgeT0iMTE3Ljk2MDM4OSIgeD0iLTE3LjUwMTYzIi8+JiN4YTs8dXNlIHhsaW5rOmhyZWY9IiNnMC01NiIgeT0iMTE3Ljk2MDM4OSIgeD0iLTEyLjI3MTI0NCIvPiYjeGE7PHVzZSB4bGluazpocmVmPSIjZzAtMzUiIHk9IjExNy45NjAzODkiIHg9IjguNjUwMzAxIi8+JiN4YTs8dXNlIHhsaW5rOmhyZWY9IiNnMC05NiIgeT0iMTE3Ljk2MDM4OSIgeD0iMTMuODgwNjg3Ii8+JiN4YTs8dXNlIHhsaW5rOmhyZWY9IiNnMC0xMTAiIHk9IjExNy45NjAzODkiIHg9IjE5LjExMTA3MyIvPiYjeGE7PHVzZSB4bGluazpocmVmPSIjZzAtMTA3IiB5PSIxMTcuOTYwMzg5IiB4PSIzNC44MDIyMzEiLz4mI3hhOzx1c2UgeGxpbms6aHJlZj0iI2cwLTgyIiB5PSIxMjkuOTE1NTU3IiB4PSItNDMuNjUzNTYiLz4mI3hhOzx1c2UgeGxpbms6aHJlZj0iI2cwLTQ0IiB5PSIxMjkuOTE1NTU3IiB4PSItMzguNDIzMTc0Ii8+JiN4YTs8dXNlIHhsaW5rOmhyZWY9IiNnMC0xMDEiIHk9IjE0MS44NzA3MjUiIHg9Ii0xNy41MDE2MyIvPiYjeGE7PHVzZSB4bGluazpocmVmPSIjZzAtMTIxIiB5PSIxNDEuODcwNzI1IiB4PSItMTIuMjcxMjQ0Ii8+JiN4YTs8dXNlIHhsaW5rOmhyZWY9IiNnMC03MiIgeT0iMTQxLjg3MDcyNSIgeD0iOC42NTAzMDEiLz4mI3hhOzx1c2UgeGxpbms6aHJlZj0iI2cwLTQ3IiB5PSIxNDEuODcwNzI1IiB4PSIxMy44ODA2ODciLz4mI3hhOzx1c2UgeGxpbms6aHJlZj0iI2cwLTExMiIgeT0iMTQxLjg3MDcyNSIgeD0iMTkuMTExMDczIi8+JiN4YTs8dXNlIHhsaW5rOmhyZWY9IiNnMC0yOCIgeT0iMTQxLjg3MDcyNSIgeD0iMjQuMzQxNDU5Ii8+JiN4YTs8dXNlIHhsaW5rOmhyZWY9IiNnMC05NiIgeT0iMTQxLjg3MDcyNSIgeD0iMjkuNTcxODQ1Ii8+JiN4YTs8dXNlIHhsaW5rOmhyZWY9IiNnMC0xMTAiIHk9IjE0MS44NzA3MjUiIHg9IjM0LjgwMjIzMSIvPiYjeGE7PHVzZSB4bGluazpocmVmPSIjZzAtNDMiIHk9IjE0MS44NzA3MjUiIHg9IjQwLjAzMjYxNyIvPiYjeGE7PHVzZSB4bGluazpocmVmPSIjZzAtMjgiIHk9IjE0MS44NzA3MjUiIHg9IjQ1LjI2MzAwMyIvPiYjeGE7PHVzZSB4bGluazpocmVmPSIjZzAtNDMiIHk9IjE0MS44NzA3MjUiIHg9IjUwLjQ5MzM4OSIvPiYjeGE7PHVzZSB4bGluazpocmVmPSIjZzAtNjMiIHk9IjE0MS44NzA3MjUiIHg9IjU1LjcyMzc3NSIvPiYjeGE7PHVzZSB4bGluazpocmVmPSIjZzAtNTAiIHk9IjE0MS44NzA3MjUiIHg9IjYwLjk1NDE2MSIvPiYjeGE7PHVzZSB4bGluazpocmVmPSIjZzAtNDciIHk9IjE0MS44NzA3MjUiIHg9IjY2LjE4NDU0NyIvPiYjeGE7PHVzZSB4bGluazpocmVmPSIjZzAtMTEwIiB5PSIxNDEuODcwNzI1IiB4PSI3MS40MTQ5MzMiLz4mI3hhOzx1c2UgeGxpbms6aHJlZj0iI2cwLTExNiIgeT0iMTQxLjg3MDcyNSIgeD0iODcuMTA2MDkxIi8+JiN4YTs8dXNlIHhsaW5rOmhyZWY9IiNnMC0zOCIgeT0iMTQxLjg3MDcyNSIgeD0iOTIuMzM2NDc3Ii8+JiN4YTs8dXNlIHhsaW5rOmhyZWY9IiNnMC0xMjEiIHk9IjE0MS44NzA3MjUiIHg9Ijk3LjU2Njg2NCIvPiYjeGE7PHVzZSB4bGluazpocmVmPSIjZzAtMzkiIHk9IjE0MS44NzA3MjUiIHg9IjEwMi43OTcyNSIvPiYjeGE7PHVzZSB4bGluazpocmVmPSIjZzAtMTAxIiB5PSIxNTMuODI1ODkzIiB4PSItMTcuNTAxNjMiLz4mI3hhOzx1c2UgeGxpbms6aHJlZj0iI2cwLTc4IiB5PSIxNTMuODI1ODkzIiB4PSItMTIuMjcxMjQ0Ii8+JiN4YTs8dXNlIHhsaW5rOmhyZWY9IiNnMC00MCIgeT0iMTUzLjgyNTg5MyIgeD0iOC42NTAzMDEiLz4mI3hhOzx1c2UgeGxpbms6aHJlZj0iI2cwLTczIiB5PSIxNTMuODI1ODkzIiB4PSIxOS4xMTEwNzMiLz4mI3hhOzx1c2UgeGxpbms6aHJlZj0iI2cwLTkyIiB5PSIxNTMuODI1ODkzIiB4PSIyNC4zNDE0NTkiLz4mI3hhOzx1c2UgeGxpbms6aHJlZj0iI2cwLTYxIiB5PSIxNTMuODI1ODkzIiB4PSIyOS41NzE4NDUiLz4mI3hhOzx1c2UgeGxpbms6aHJlZj0iI2cwLTQxIiB5PSIxNTMuODI1ODkzIiB4PSI0MC4wMzI2MTciLz4mI3hhOzx1c2UgeGxpbms6aHJlZj0iI2cwLTEwNCIgeT0iMTUzLjgyNTg5MyIgeD0iNTAuNDkzMzg5Ii8+JiN4YTs8dXNlIHhsaW5rOmhyZWY9IiNnMC0xMTgiIHk9IjE1My44MjU4OTMiIHg9IjU1LjcyMzc3NSIvPiYjeGE7PHVzZSB4bGluazpocmVmPSIjZzAtODQiIHk9IjE1My44MjU4OTMiIHg9IjYwLjk1NDE2MSIvPiYjeGE7PHVzZSB4bGluazpocmVmPSIjZzAtNTAiIHk9IjE1My44MjU4OTMiIHg9IjY2LjE4NDU0NyIvPiYjeGE7PHVzZSB4bGluazpocmVmPSIjZzAtNzkiIHk9IjE1My44MjU4OTMiIHg9IjcxLjQxNDkzMyIvPiYjeGE7PHVzZSB4bGluazpocmVmPSIjZzAtODIiIHk9IjE1My44MjU4OTMiIHg9Ijc2LjY0NTMxOSIvPiYjeGE7PHVzZSB4bGluazpocmVmPSIjZzAtMTAwIiB5PSIxNjUuNzgxMDYxIiB4PSItMTcuNTAxNjMiLz4mI3hhOzx1c2UgeGxpbms6aHJlZj0iI2cwLTU3IiB5PSIxNjUuNzgxMDYxIiB4PSItMTIuMjcxMjQ0Ii8+JiN4YTs8dXNlIHhsaW5rOmhyZWY9IiNnMC05OSIgeT0iMTY1Ljc4MTA2MSIgeD0iOC42NTAzMDEiLz4mI3hhOzx1c2UgeGxpbms6aHJlZj0iI2cwLTY2IiB5PSIxNjUuNzgxMDYxIiB4PSIxOS4xMTEwNzMiLz4mI3hhOzx1c2UgeGxpbms6aHJlZj0iI2cwLTk4IiB5PSIxNjUuNzgxMDYxIiB4PSIyNC4zNDE0NTkiLz4mI3hhOzx1c2UgeGxpbms6aHJlZj0iI2cwLTg4IiB5PSIxNjUuNzgxMDYxIiB4PSIyOS41NzE4NDUiLz4mI3hhOzx1c2UgeGxpbms6aHJlZj0iI2cwLTY2IiB5PSIxNjUuNzgxMDYxIiB4PSIzNC44MDIyMzEiLz4mI3hhOzx1c2UgeGxpbms6aHJlZj0iI2cwLTc3IiB5PSIxNjUuNzgxMDYxIiB4PSI0MC4wMzI2MTciLz4mI3hhOzx1c2UgeGxpbms6aHJlZj0iI2cwLTEwNSIgeT0iMTY1Ljc4MTA2MSIgeD0iNDUuMjYzMDAzIi8+JiN4YTs8dXNlIHhsaW5rOmhyZWY9IiNnMC01MCIgeT0iMTY1Ljc4MTA2MSIgeD0iNTAuNDkzMzg5Ii8+JiN4YTs8dXNlIHhsaW5rOmhyZWY9IiNnMC01OSIgeT0iMTY1Ljc4MTA2MSIgeD0iNTUuNzIzNzc1Ii8+JiN4YTs8dXNlIHhsaW5rOmhyZWY9IiNnMC01MCIgeT0iMTY1Ljc4MTA2MSIgeD0iNjAuOTU0MTYxIi8+JiN4YTs8dXNlIHhsaW5rOmhyZWY9IiNnMC05NiIgeT0iMTY1Ljc4MTA2MSIgeD0iNjYuMTg0NTQ3Ii8+JiN4YTs8dXNlIHhsaW5rOmhyZWY9IiNnMC04NSIgeT0iMTY1Ljc4MTA2MSIgeD0iNzEuNDE0OTMzIi8+JiN4YTs8dXNlIHhsaW5rOmhyZWY9IiNnMC0xMTYiIHk9IjE2NS43ODEwNjEiIHg9Ijc2LjY0NTMxOSIvPiYjeGE7PHVzZSB4bGluazpocmVmPSIjZzAtODYiIHk9IjE2NS43ODEwNjEiIHg9IjgxLjg3NTcwNSIvPiYjeGE7PHVzZSB4bGluazpocmVmPSIjZzAtNDMiIHk9IjE3Ny43MzYyMyIgeD0iOC42NTAzMDEiLz4mI3hhOzx1c2UgeGxpbms6aHJlZj0iI2cwLTI4IiB5PSIxNzcuNzM2MjMiIHg9IjEzLjg4MDY4NyIvPiYjeGE7PHVzZSB4bGluazpocmVmPSIjZzAtNzIiIHk9IjE3Ny43MzYyMyIgeD0iMTkuMTExMDczIi8+JiN4YTs8dXNlIHhsaW5rOmhyZWY9IiNnMC03MiIgeT0iMTc3LjczNjIzIiB4PSIyNC4zNDE0NTkiLz4mI3hhOzx1c2UgeGxpbms6aHJlZj0iI2cwLTExMCIgeT0iMTc3LjczNjIzIiB4PSIyOS41NzE4NDUiLz4mI3hhOzx1c2UgeGxpbms6aHJlZj0iI2cwLTgyIiB5PSIxNzcuNzM2MjMiIHg9IjQ1LjI2MzAwMyIvPiYjeGE7PHVzZSB4bGluazpocmVmPSIjZzAtMTA3IiB5PSIxODkuNjkxMzk4IiB4PSItNDMuNjUzNTYiLz4mI3hhOzx1c2UgeGxpbms6aHJlZj0iI2cwLTQ0IiB5PSIxODkuNjkxMzk4IiB4PSItMzguNDIzMTc0Ii8+JiN4YTs8dXNlIHhsaW5rOmhyZWY9IiNnMC03OCIgeT0iMjAxLjY0NjU2NiIgeD0iLTE3LjUwMTYzIi8+JiN4YTs8dXNlIHhsaW5rOmhyZWY9IiNnMC04MiIgeT0iMjAxLjY0NjU2NiIgeD0iLTEyLjI3MTI0NCIvPiYjeGE7PHVzZSB4bGluazpocmVmPSIjZzAtNDAiIHk9IjIwMS42NDY1NjYiIHg9IjguNjUwMzAxIi8+JiN4YTs8dXNlIHhsaW5rOmhyZWY9IiNnMC03MyIgeT0iMjAxLjY0NjU2NiIgeD0iMTkuMTExMDczIi8+JiN4YTs8dXNlIHhsaW5rOmhyZWY9IiNnMC05MiIgeT0iMjAxLjY0NjU2NiIgeD0iMjQuMzQxNDU5Ii8+JiN4YTs8dXNlIHhsaW5rOmhyZWY9IiNnMC02MSIgeT0iMjAxLjY0NjU2NiIgeD0iMjkuNTcxODQ1Ii8+JiN4YTs8dXNlIHhsaW5rOmhyZWY9IiNnMC00MSIgeT0iMjAxLjY0NjU2NiIgeD0iNDAuMDMyNjE3Ii8+JiN4YTs8dXNlIHhsaW5rOmhyZWY9IiNnMC0xMDQiIHk9IjIwMS42NDY1NjYiIHg9IjUwLjQ5MzM4OSIvPiYjeGE7PHVzZSB4bGluazpocmVmPSIjZzAtMTE4IiB5PSIyMDEuNjQ2NTY2IiB4PSI1NS43MjM3NzUiLz4mI3hhOzx1c2UgeGxpbms6aHJlZj0iI2cwLTg0IiB5PSIyMDEuNjQ2NTY2IiB4PSI2MC45NTQxNjEiLz4mI3hhOzx1c2UgeGxpbms6aHJlZj0iI2cwLTUwIiB5PSIyMDEuNjQ2NTY2IiB4PSI2Ni4xODQ1NDciLz4mI3hhOzx1c2UgeGxpbms6aHJlZj0iI2cwLTc5IiB5PSIyMDEuNjQ2NTY2IiB4PSI3MS40MTQ5MzMiLz4mI3hhOzx1c2UgeGxpbms6aHJlZj0iI2cwLTEwNyIgeT0iMjAxLjY0NjU2NiIgeD0iNzYuNjQ1MzE5Ii8+JiN4YTs8dXNlIHhsaW5rOmhyZWY9IiNnMC03OCIgeT0iMjEzLjYwMTczNCIgeD0iLTE3LjUwMTYzIi8+JiN4YTs8dXNlIHhsaW5rOmhyZWY9IiNnMC0xMDEiIHk9IjIxMy42MDE3MzQiIHg9Ii0xMi4yNzEyNDQiLz4mI3hhOzx1c2UgeGxpbms6aHJlZj0iI2cwLTI4IiB5PSIyMTMuNjAxNzM0IiB4PSI4LjY1MDMwMSIvPiYjeGE7PHVzZSB4bGluazpocmVmPSIjZzAtOTgiIHk9IjIxMy42MDE3MzQiIHg9IjEzLjg4MDY4NyIvPiYjeGE7PHVzZSB4bGluazpocmVmPSIjZzAtMzUiIHk9IjIxMy42MDE3MzQiIHg9IjE5LjExMTA3MyIvPiYjeGE7PHVzZSB4bGluazpocmVmPSIjZzAtODEiIHk9IjIxMy42MDE3MzQiIHg9IjI0LjM0MTQ1OSIvPiYjeGE7PHVzZSB4bGluazpocmVmPSIjZzAtODEiIHk9IjIxMy42MDE3MzQiIHg9IjI5LjU3MTg0NSIvPiYjeGE7PHVzZSB4bGluazpocmVmPSIjZzAtNzIiIHk9IjIxMy42MDE3MzQiIHg9IjM0LjgwMjIzMSIvPiYjeGE7PHVzZSB4bGluazpocmVmPSIjZzAtMTEwIiB5PSIyMTMuNjAxNzM0IiB4PSI0MC4wMzI2MTciLz4mI3hhOzx1c2UgeGxpbms6aHJlZj0iI2cwLTc4IiB5PSIyMjUuNTU2OTAyIiB4PSItMTcuNTAxNjMiLz4mI3hhOzx1c2UgeGxpbms6aHJlZj0iI2cwLTEwMCIgeT0iMjI1LjU1NjkwMiIgeD0iLTEyLjI3MTI0NCIvPiYjeGE7PHVzZSB4bGluazpocmVmPSIjZzAtMzUiIHk9IjIyNS41NTY5MDIiIHg9IjguNjUwMzAxIi8+JiN4YTs8dXNlIHhsaW5rOmhyZWY9IiNnMC05NiIgeT0iMjI1LjU1NjkwMiIgeD0iMTMuODgwNjg3Ii8+JiN4YTs8dXNlIHhsaW5rOmhyZWY9IiNnMC0xMDUiIHk9IjIyNS41NTY5MDIiIHg9IjE5LjExMTA3MyIvPiYjeGE7PHVzZSB4bGluazpocmVmPSIjZzAtOTYiIHk9IjIyNS41NTY5MDIiIHg9IjI0LjM0MTQ1OSIvPiYjeGE7PHVzZSB4bGluazpocmVmPSIjZzAtMTA5IiB5PSIyMjUuNTU2OTAyIiB4PSIyOS41NzE4NDUiLz4mI3hhOzx1c2UgeGxpbms6aHJlZj0iI2cwLTUwIiB5PSIyMjUuNTU2OTAyIiB4PSIzNC44MDIyMzEiLz4mI3hhOzx1c2UgeGxpbms6aHJlZj0iI2cwLTExMCIgeT0iMjI1LjU1NjkwMiIgeD0iNDAuMDMyNjE3Ii8+JiN4YTs8dXNlIHhsaW5rOmhyZWY9IiNnMC0xMDYiIHk9IjIyNS41NTY5MDIiIHg9IjU1LjcyMzc3NSIvPiYjeGE7PHVzZSB4bGluazpocmVmPSIjZzAtODIiIHk9IjIzNy41MTIwNyIgeD0iLTIyLjczMjAxNiIvPiYjeGE7PHVzZSB4bGluazpocmVmPSIjZzAtMTIxIiB5PSIyMzcuNTEyMDciIHg9Ii0xNy41MDE2MyIvPiYjeGE7PHVzZSB4bGluazpocmVmPSIjZzAtMTA3IiB5PSIyMzcuNTEyMDciIHg9Ii0xMi4yNzEyNDQiLz4mI3hhOzx1c2UgeGxpbms6aHJlZj0iI2cwLTg0IiB5PSIyMzcuNTEyMDciIHg9IjguNjUwMzAxIi8+JiN4YTs8dXNlIHhsaW5rOmhyZWY9IiNnMC0xMDkiIHk9IjIzNy41MTIwNyIgeD0iMTMuODgwNjg3Ii8+JiN4YTs8dXNlIHhsaW5rOmhyZWY9IiNnMC05OCIgeT0iMjM3LjUxMjA3IiB4PSIxOS4xMTEwNzMiLz4mI3hhOzx1c2UgeGxpbms6aHJlZj0iI2cwLTYzIiB5PSIyMzcuNTEyMDciIHg9IjI0LjM0MTQ1OSIvPiYjeGE7PHVzZSB4bGluazpocmVmPSIjZzAtMTEwIiB5PSIyMzcuNTEyMDciIHg9IjI5LjU3MTg0NSIvPiYjeGE7PHVzZSB4bGluazpocmVmPSIjZzAtNTciIHk9IjIzNy41MTIwNyIgeD0iNDUuMjYzMDAzIi8+JiN4YTs8dXNlIHhsaW5rOmhyZWY9IiNnMC0xMDciIHk9IjIzNy41MTIwNyIgeD0iNTAuNDkzMzg5Ii8+JiN4YTs8dXNlIHhsaW5rOmhyZWY9IiNnMC04MiIgeT0iMjQ5LjQ2NzIzOCIgeD0iLTIyLjczMjAxNiIvPiYjeGE7PHVzZSB4bGluazpocmVmPSIjZzAtMTIxIiB5PSIyNDkuNDY3MjM4IiB4PSItMTcuNTAxNjMiLz4mI3hhOzx1c2UgeGxpbms6aHJlZj0iI2cwLTEwMCIgeT0iMjQ5LjQ2NzIzOCIgeD0iLTEyLjI3MTI0NCIvPiYjeGE7PHVzZSB4bGluazpocmVmPSIjZzAtMTEyIiB5PSIyNDkuNDY3MjM4IiB4PSI4LjY1MDMwMSIvPiYjeGE7PHVzZSB4bGluazpocmVmPSIjZzAtNjYiIHk9IjI0OS40NjcyMzgiIHg9IjEzLjg4MDY4NyIvPiYjeGE7PHVzZSB4bGluazpocmVmPSIjZzAtOTgiIHk9IjI0OS40NjcyMzgiIHg9IjE5LjExMTA3MyIvPiYjeGE7PHVzZSB4bGluazpocmVmPSIjZzAtNjYiIHk9IjI0OS40NjcyMzgiIHg9IjI0LjM0MTQ1OSIvPiYjeGE7PHVzZSB4bGluazpocmVmPSIjZzAtMzUiIHk9IjI0OS40NjcyMzgiIHg9IjI5LjU3MTg0NSIvPiYjeGE7PHVzZSB4bGluazpocmVmPSIjZzAtNzIiIHk9IjI0OS40NjcyMzgiIHg9IjM0LjgwMjIzMSIvPiYjeGE7PHVzZSB4bGluazpocmVmPSIjZzAtNTAiIHk9IjI0OS40NjcyMzgiIHg9IjQwLjAzMjYxNyIvPiYjeGE7PHVzZSB4bGluazpocmVmPSIjZzAtMTEwIiB5PSIyNDkuNDY3MjM4IiB4PSI0NS4yNjMwMDMiLz4mI3hhOzx1c2UgeGxpbms6aHJlZj0iI2cwLTgyIiB5PSIyNjEuNDIyNDA2IiB4PSItMjIuNzMyMDE2Ii8+JiN4YTs8dXNlIHhsaW5rOmhyZWY9IiNnMC0xMjEiIHk9IjI2MS40MjI0MDYiIHg9Ii0xNy41MDE2MyIvPiYjeGE7PHVzZSB4bGluazpocmVmPSIjZzAtNTEiIHk9IjI2MS40MjI0MDYiIHg9Ii0xMi4yNzEyNDQiLz4mI3hhOzx1c2UgeGxpbms6aHJlZj0iI2cwLTM1IiB5PSIyNjEuNDIyNDA2IiB4PSI4LjY1MDMwMSIvPiYjeGE7PHVzZSB4bGluazpocmVmPSIjZzAtOTYiIHk9IjI2MS40MjI0MDYiIHg9IjEzLjg4MDY4NyIvPiYjeGE7PHVzZSB4bGluazpocmVmPSIjZzAtMTEwIiB5PSIyNjEuNDIyNDA2IiB4PSIxOS4xMTEwNzMiLz4mI3hhOzx1c2UgeGxpbms6aHJlZj0iI2cwLTU3IiB5PSIyNjEuNDIyNDA2IiB4PSIzNC44MDIyMzEiLz4mI3hhOzx1c2UgeGxpbms6aHJlZj0iI2cwLTEwNiIgeT0iMjczLjM3NzU3NSIgeD0iLTQzLjY1MzU2Ii8+JiN4YTs8dXNlIHhsaW5rOmhyZWY9IiNnMC00NCIgeT0iMjczLjM3NzU3NSIgeD0iLTM4LjQyMzE3NCIvPiYjeGE7PHVzZSB4bGluazpocmVmPSIjZzAtODIiIHk9IjI4NS4zMzI3NDMiIHg9Ii0yMi43MzIwMTYiLz4mI3hhOzx1c2UgeGxpbms6aHJlZj0iI2cwLTgyIiB5PSIyODUuMzMyNzQzIiB4PSItMTcuNTAxNjMiLz4mI3hhOzx1c2UgeGxpbms6aHJlZj0iI2cwLTEwNiIgeT0iMjg1LjMzMjc0MyIgeD0iLTEyLjI3MTI0NCIvPiYjeGE7PHVzZSB4bGluazpocmVmPSIjZzAtNzIiIHk9IjI4NS4zMzI3NDMiIHg9IjguNjUwMzAxIi8+JiN4YTs8dXNlIHhsaW5rOmhyZWY9IiNnMC00NyIgeT0iMjg1LjMzMjc0MyIgeD0iMTMuODgwNjg3Ii8+JiN4YTs8dXNlIHhsaW5rOmhyZWY9IiNnMC01NSIgeT0iMjg1LjMzMjc0MyIgeD0iMTkuMTExMDczIi8+JiN4YTs8dXNlIHhsaW5rOmhyZWY9IiNnMC0xMDkiIHk9IjI4NS4zMzI3NDMiIHg9IjI0LjM0MTQ1OSIvPiYjeGE7PHVzZSB4bGluazpocmVmPSIjZzAtNzciIHk9IjI4NS4zMzI3NDMiIHg9IjI5LjU3MTg0NSIvPiYjeGE7PHVzZSB4bGluazpocmVmPSIjZzAtMTEwIiB5PSIyODUuMzMyNzQzIiB4PSIzNC44MDIyMzEiLz4mI3hhOzx1c2UgeGxpbms6aHJlZj0iI2cwLTYzIiB5PSIyODUuMzMyNzQzIiB4PSI1MC40OTMzODkiLz4mI3hhOzx1c2UgeGxpbms6aHJlZj0iI2cwLTgyIiB5PSIyOTcuMjg3OTExIiB4PSItMjIuNzMyMDE2Ii8+JiN4YTs8dXNlIHhsaW5rOmhyZWY9IiNnMC04MiIgeT0iMjk3LjI4NzkxMSIgeD0iLTE3LjUwMTYzIi8+JiN4YTs8dXNlIHhsaW5rOmhyZWY9IiNnMC01MSIgeT0iMjk3LjI4NzkxMSIgeD0iLTEyLjI3MTI0NCIvPiYjeGE7PHVzZSB4bGluazpocmVmPSIjZzAtNDAiIHk9IjI5Ny4yODc5MTEiIHg9IjguNjUwMzAxIi8+JiN4YTs8dXNlIHhsaW5rOmhyZWY9IiNnMC0xMjEiIHk9IjI5Ny4yODc5MTEiIHg9IjE5LjExMTA3MyIvPiYjeGE7PHVzZSB4bGluazpocmVmPSIjZzAtNDUiIHk9IjI5Ny4yODc5MTEiIHg9IjI0LjM0MTQ1OSIvPiYjeGE7PHVzZSB4bGluazpocmVmPSIjZzAtNzMiIHk9IjI5Ny4yODc5MTEiIHg9IjM0LjgwMjIzMSIvPiYjeGE7PHVzZSB4bGluazpocmVmPSIjZzAtMTIxIiB5PSIyOTcuMjg3OTExIiB4PSI0MC4wMzI2MTciLz4mI3hhOzx1c2UgeGxpbms6aHJlZj0iI2cwLTYxIiB5PSIyOTcuMjg3OTExIiB4PSI0NS4yNjMwMDMiLz4mI3hhOzx1c2UgeGxpbms6aHJlZj0iI2cwLTQ1IiB5PSIyOTcuMjg3OTExIiB4PSI1MC40OTMzODkiLz4mI3hhOzx1c2UgeGxpbms6aHJlZj0iI2cwLTExMiIgeT0iMjk3LjI4NzkxMSIgeD0iNjAuOTU0MTYxIi8+JiN4YTs8dXNlIHhsaW5rOmhyZWY9IiNnMC0yOCIgeT0iMjk3LjI4NzkxMSIgeD0iNjYuMTg0NTQ3Ii8+JiN4YTs8dXNlIHhsaW5rOmhyZWY9IiNnMC03MiIgeT0iMjk3LjI4NzkxMSIgeD0iNzEuNDE0OTMzIi8+JiN4YTs8dXNlIHhsaW5rOmhyZWY9IiNnMC02NiIgeT0iMjk3LjI4NzkxMSIgeD0iNzYuNjQ1MzE5Ii8+JiN4YTs8dXNlIHhsaW5rOmhyZWY9IiNnMC00NyIgeT0iMjk3LjI4NzkxMSIgeD0iODEuODc1NzA1Ii8+JiN4YTs8dXNlIHhsaW5rOmhyZWY9IiNnMC00MSIgeT0iMjk3LjI4NzkxMSIgeD0iOTcuNTY2ODY0Ii8+JiN4YTs8dXNlIHhsaW5rOmhyZWY9IiNnMC00MiIgeT0iMjk3LjI4NzkxMSIgeD0iMTA4LjAyNzYzNiIvPiYjeGE7PHVzZSB4bGluazpocmVmPSIjZzAtMjgiIHk9IjI5Ny4yODc5MTEiIHg9IjExMy4yNTgwMjIiLz4mI3hhOzx1c2UgeGxpbms6aHJlZj0iI2cwLTcyIiB5PSIyOTcuMjg3OTExIiB4PSIxMTguNDg4NDA4Ii8+JiN4YTs8dXNlIHhsaW5rOmhyZWY9IiNnMC03MiIgeT0iMjk3LjI4NzkxMSIgeD0iMTIzLjcxODc5NCIvPiYjeGE7PHVzZSB4bGluazpocmVmPSIjZzAtNzkiIHk9IjI5Ny4yODc5MTEiIHg9IjEyOC45NDkxOCIvPiYjeGE7PHVzZSB4bGluazpocmVmPSIjZzAtODIiIHk9IjI5Ny4yODc5MTEiIHg9IjEzNC4xNzk1NjYiLz4mI3hhOzx1c2UgeGxpbms6aHJlZj0iI2cwLTgyIiB5PSIzMDkuMjQzMDc5IiB4PSItMjIuNzMyMDE2Ii8+JiN4YTs8dXNlIHhsaW5rOmhyZWY9IiNnMC0xMDciIHk9IjMwOS4yNDMwNzkiIHg9Ii0xNy41MDE2MyIvPiYjeGE7PHVzZSB4bGluazpocmVmPSIjZzAtMTA2IiB5PSIzMDkuMjQzMDc5IiB4PSItMTIuMjcxMjQ0Ii8+JiN4YTs8dXNlIHhsaW5rOmhyZWY9IiNnMC03NSIgeT0iMzA5LjI0MzA3OSIgeD0iOC42NTAzMDEiLz4mI3hhOzx1c2UgeGxpbms6aHJlZj0iI2cwLTcwIiB5PSIzMDkuMjQzMDc5IiB4PSIxMy44ODA2ODciLz4mI3hhOzx1c2UgeGxpbms6aHJlZj0iI2cwLTExMCIgeT0iMzA5LjI0MzA3OSIgeD0iMTkuMTExMDczIi8+JiN4YTs8dXNlIHhsaW5rOmhyZWY9IiNnMC04NCIgeT0iMzA5LjI0MzA3OSIgeD0iMjQuMzQxNDU5Ii8+JiN4YTs8dXNlIHhsaW5rOmhyZWY9IiNnMC05NiIgeT0iMzA5LjI0MzA3OSIgeD0iMjkuNTcxODQ1Ii8+JiN4YTs8dXNlIHhsaW5rOmhyZWY9IiNnMC04MSIgeT0iMzA5LjI0MzA3OSIgeD0iMzQuODAyMjMxIi8+JiN4YTs8dXNlIHhsaW5rOmhyZWY9IiNnMC03NSIgeT0iMzA5LjI0MzA3OSIgeD0iNDAuMDMyNjE3Ii8+JiN4YTs8dXNlIHhsaW5rOmhyZWY9IiNnMC02NiIgeT0iMzA5LjI0MzA3OSIgeD0iNDUuMjYzMDAzIi8+JiN4YTs8dXNlIHhsaW5rOmhyZWY9IiNnMC05OCIgeT0iMzA5LjI0MzA3OSIgeD0iNTAuNDkzMzg5Ii8+JiN4YTs8dXNlIHhsaW5rOmhyZWY9IiNnMC01MCIgeT0iMzA5LjI0MzA3OSIgeD0iNTUuNzIzNzc1Ii8+JiN4YTs8dXNlIHhsaW5rOmhyZWY9IiNnMC0xMTAiIHk9IjMwOS4yNDMwNzkiIHg9IjYwLjk1NDE2MSIvPiYjeGE7PHVzZSB4bGluazpocmVmPSIjZzAtODIiIHk9IjMwOS4yNDMwNzkiIHg9Ijc2LjY0NTMxOSIvPiYjeGE7PHVzZSB4bGluazpocmVmPSIjZzAtODIiIHk9IjMyMS4xOTgyNDciIHg9Ii0yMi43MzIwMTYiLz4mI3hhOzx1c2UgeGxpbms6aHJlZj0iI2cwLTEwNyIgeT0iMzIxLjE5ODI0NyIgeD0iLTE3LjUwMTYzIi8+JiN4YTs8dXNlIHhsaW5rOmhyZWY9IiNnMC01MSIgeT0iMzIxLjE5ODI0NyIgeD0iLTEyLjI3MTI0NCIvPiYjeGE7PHVzZSB4bGluazpocmVmPSIjZzAtOTkiIHk9IjMyMS4xOTgyNDciIHg9IjguNjUwMzAxIi8+JiN4YTs8dXNlIHhsaW5rOmhyZWY9IiNnMC02MyIgeT0iMzIxLjE5ODI0NyIgeD0iMTkuMTExMDczIi8+JiN4YTs8dXNlIHhsaW5rOmhyZWY9IiNnMC04NSIgeT0iMzIxLjE5ODI0NyIgeD0iMjQuMzQxNDU5Ii8+JiN4YTs8dXNlIHhsaW5rOmhyZWY9IiNnMC0xMTYiIHk9IjMyMS4xOTgyNDciIHg9IjI5LjU3MTg0NSIvPiYjeGE7PHVzZSB4bGluazpocmVmPSIjZzAtODYiIHk9IjMyMS4xOTgyNDciIHg9IjM0LjgwMjIzMSIvPiYjeGE7PHVzZSB4bGluazpocmVmPSIjZzAtNDMiIHk9IjMzMy4xNTM0MTUiIHg9IjguNjUwMzAxIi8+JiN4YTs8dXNlIHhsaW5rOmhyZWY9IiNnMC0yOCIgeT0iMzMzLjE1MzQxNSIgeD0iMTMuODgwNjg3Ii8+JiN4YTs8dXNlIHhsaW5rOmhyZWY9IiNnMC03MiIgeT0iMzMzLjE1MzQxNSIgeD0iMTkuMTExMDczIi8+JiN4YTs8dXNlIHhsaW5rOmhyZWY9IiNnMC03MiIgeT0iMzMzLjE1MzQxNSIgeD0iMjQuMzQxNDU5Ii8+JiN4YTs8dXNlIHhsaW5rOmhyZWY9IiNnMC0xMTAiIHk9IjMzMy4xNTM0MTUiIHg9IjI5LjU3MTg0NSIvPiYjeGE7PHVzZSB4bGluazpocmVmPSIjZzAtODIiIHk9IjMzMy4xNTM0MTUiIHg9IjQ1LjI2MzAwMyIvPiYjeGE7PHVzZSB4bGluazpocmVmPSIjZzAtODIiIHk9IjM0NS4xMDg1ODMiIHg9Ii0yMi43MzIwMTYiLz4mI3hhOzx1c2UgeGxpbms6aHJlZj0iI2cwLTU3IiB5PSIzNDUuMTA4NTgzIiB4PSItMTcuNTAxNjMiLz4mI3hhOzx1c2UgeGxpbms6aHJlZj0iI2cwLTU2IiB5PSIzNDUuMTA4NTgzIiB4PSItMTIuMjcxMjQ0Ii8+JiN4YTs8dXNlIHhsaW5rOmhyZWY9IiNnMC00MCIgeT0iMzQ1LjEwODU4MyIgeD0iOC42NTAzMDEiLz4mI3hhOzx1c2UgeGxpbms6aHJlZj0iI2cwLTczIiB5PSIzNDUuMTA4NTgzIiB4PSIxOS4xMTEwNzMiLz4mI3hhOzx1c2UgeGxpbms6aHJlZj0iI2cwLTkyIiB5PSIzNDUuMTA4NTgzIiB4PSIyNC4zNDE0NTkiLz4mI3hhOzx1c2UgeGxpbms6aHJlZj0iI2cwLTYxIiB5PSIzNDUuMTA4NTgzIiB4PSIyOS41NzE4NDUiLz4mI3hhOzx1c2UgeGxpbms6aHJlZj0iI2cwLTQxIiB5PSIzNDUuMTA4NTgzIiB4PSI0MC4wMzI2MTciLz4mI3hhOzx1c2UgeGxpbms6aHJlZj0iI2cwLTEwNCIgeT0iMzQ1LjEwODU4MyIgeD0iNTAuNDkzMzg5Ii8+JiN4YTs8dXNlIHhsaW5rOmhyZWY9IiNnMC0xMTgiIHk9IjM0NS4xMDg1ODMiIHg9IjU1LjcyMzc3NSIvPiYjeGE7PHVzZSB4bGluazpocmVmPSIjZzAtODQiIHk9IjM0NS4xMDg1ODMiIHg9IjYwLjk1NDE2MSIvPiYjeGE7PHVzZSB4bGluazpocmVmPSIjZzAtNTAiIHk9IjM0NS4xMDg1ODMiIHg9IjY2LjE4NDU0NyIvPiYjeGE7PHVzZSB4bGluazpocmVmPSIjZzAtNzkiIHk9IjM0NS4xMDg1ODMiIHg9IjcxLjQxNDkzMyIvPiYjeGE7PHVzZSB4bGluazpocmVmPSIjZzAtNTciIHk9IjM0NS4xMDg1ODMiIHg9Ijc2LjY0NTMxOSIvPiYjeGE7PHVzZSB4bGluazpocmVmPSIjZzAtNTciIHk9IjM1Ny4wNjM3NTEiIHg9Ii00My42NTM1NiIvPiYjeGE7PHVzZSB4bGluazpocmVmPSIjZzAtNDQiIHk9IjM1Ny4wNjM3NTEiIHg9Ii0zOC40MjMxNzQiLz4mI3hhOzx1c2UgeGxpbms6aHJlZj0iI2cwLTgyIiB5PSIzNjkuMDE4OTIiIHg9Ii0yMi43MzIwMTYiLz4mI3hhOzx1c2UgeGxpbms6aHJlZj0iI2cwLTU2IiB5PSIzNjkuMDE4OTIiIHg9Ii0xNy41MDE2MyIvPiYjeGE7PHVzZSB4bGluazpocmVmPSIjZzAtMTIxIiB5PSIzNjkuMDE4OTIiIHg9Ii0xMi4yNzEyNDQiLz4mI3hhOzx1c2UgeGxpbms6aHJlZj0iI2cwLTk2IiB5PSIzNjkuMDE4OTIiIHg9IjguNjUwMzAxIi8+JiN4YTs8dXNlIHhsaW5rOmhyZWY9IiNnMC01MCIgeT0iMzY5LjAxODkyIiB4PSIxMy44ODA2ODciLz4mI3hhOzx1c2UgeGxpbms6aHJlZj0iI2cwLTEwNSIgeT0iMzY5LjAxODkyIiB4PSIxOS4xMTEwNzMiLz4mI3hhOzx1c2UgeGxpbms6aHJlZj0iI2cwLTExMCIgeT0iMzY5LjAxODkyIiB4PSIyNC4zNDE0NTkiLz4mI3hhOzx1c2UgeGxpbms6aHJlZj0iI2cwLTQwIiB5PSIzOTIuOTI5MjU2IiB4PSItNDMuNjUzNTYiLz4mI3hhOzx1c2UgeGxpbms6aHJlZj0iI2cwLTgzIiB5PSIzOTIuOTI5MjU2IiB4PSItMzguNDIzMTc0Ii8+JiN4YTs8dXNlIHhsaW5rOmhyZWY9IiNnMC05NiIgeT0iMzkyLjkyOTI1NiIgeD0iLTMzLjE5Mjc4OCIvPiYjeGE7PHVzZSB4bGluazpocmVmPSIjZzAtODEiIHk9IjM5Mi45MjkyNTYiIHg9Ii0yNy45NjI0MDIiLz4mI3hhOzx1c2UgeGxpbms6aHJlZj0iI2cwLTc1IiB5PSIzOTIuOTI5MjU2IiB4PSItMjIuNzMyMDE2Ii8+JiN4YTs8dXNlIHhsaW5rOmhyZWY9IiNnMC04NSIgeT0iMzkyLjkyOTI1NiIgeD0iLTEyLjI3MTI0NCIvPiYjeGE7PHVzZSB4bGluazpocmVmPSIjZzAtNjYiIHk9IjM5Mi45MjkyNTYiIHg9Ii03LjA0MDg1OCIvPiYjeGE7PHVzZSB4bGluazpocmVmPSIjZzAtNzciIHk9IjM5Mi45MjkyNTYiIHg9Ii0xLjgxMDQ3MSIvPiYjeGE7PHVzZSB4bGluazpocmVmPSIjZzAtNDciIHk9IjM5Mi45MjkyNTYiIHg9IjMuNDE5OTE1Ii8+JiN4YTs8dXNlIHhsaW5rOmhyZWY9IiNnMC01MCIgeT0iMzkyLjkyOTI1NiIgeD0iOC42NTAzMDEiLz4mI3hhOzx1c2UgeGxpbms6aHJlZj0iI2cwLTExNiIgeT0iMzkyLjkyOTI1NiIgeD0iMTMuODgwNjg3Ii8+JiN4YTs8dXNlIHhsaW5rOmhyZWY9IiNnMC0xMjEiIHk9IjM5Mi45MjkyNTYiIHg9IjI0LjM0MTQ1OSIvPiYjeGE7PHVzZSB4bGluazpocmVmPSIjZzAtODYiIHk9IjM5Mi45MjkyNTYiIHg9IjI5LjU3MTg0NSIvPiYjeGE7PHVzZSB4bGluazpocmVmPSIjZzAtNDEiIHk9IjM5Mi45MjkyNTYiIHg9IjM0LjgwMjIzMSIvPiYjeGE7PHVzZSB4bGluazpocmVmPSIjZzAtMTIxIiB5PSI0MDQuODg0NDI0IiB4PSItNDMuNjUzNTYiLz4mI3hhOzx1c2UgeGxpbms6aHJlZj0iI2cwLTQ0IiB5PSI0MDQuODg0NDI0IiB4PSItMzguNDIzMTc0Ii8+JiN4YTs8dXNlIHhsaW5rOmhyZWY9IiNnMC0xMjEiIHk9IjQxNi44Mzk1OTIiIHg9Ii0xMi4yNzEyNDQiLz4mI3hhOzx1c2UgeGxpbms6aHJlZj0iI2cwLTcyIiB5PSI0MTYuODM5NTkyIiB4PSI4LjY1MDMwMSIvPiYjeGE7PHVzZSB4bGluazpocmVmPSIjZzAtNDciIHk9IjQxNi44Mzk1OTIiIHg9IjEzLjg4MDY4NyIvPiYjeGE7PHVzZSB4bGluazpocmVmPSIjZzAtMTEyIiB5PSI0MTYuODM5NTkyIiB4PSIxOS4xMTEwNzMiLz4mI3hhOzx1c2UgeGxpbms6aHJlZj0iI2cwLTI4IiB5PSI0MTYuODM5NTkyIiB4PSIyNC4zNDE0NTkiLz4mI3hhOzx1c2UgeGxpbms6aHJlZj0iI2cwLTk2IiB5PSI0MTYuODM5NTkyIiB4PSIyOS41NzE4NDUiLz4mI3hhOzx1c2UgeGxpbms6aHJlZj0iI2cwLTExMCIgeT0iNDE2LjgzOTU5MiIgeD0iMzQuODAyMjMxIi8+JiN4YTs8dXNlIHhsaW5rOmhyZWY9IiNnMC0xMTYiIHk9IjQxNi44Mzk1OTIiIHg9IjUwLjQ5MzM4OSIvPiYjeGE7PHVzZSB4bGluazpocmVmPSIjZzAtNTYiIHk9IjQyOC43OTQ3NiIgeD0iLTEyLjI3MTI0NCIvPiYjeGE7PHVzZSB4bGluazpocmVmPSIjZzAtNDAiIHk9IjQyOC43OTQ3NiIgeD0iOC42NTAzMDEiLz4mI3hhOzx1c2UgeGxpbms6aHJlZj0iI2cwLTczIiB5PSI0MjguNzk0NzYiIHg9IjE5LjExMTA3MyIvPiYjeGE7PHVzZSB4bGluazpocmVmPSIjZzAtOTIiIHk9IjQyOC43OTQ3NiIgeD0iMjQuMzQxNDU5Ii8+JiN4YTs8dXNlIHhsaW5rOmhyZWY9IiNnMC02MSIgeT0iNDI4Ljc5NDc2IiB4PSIyOS41NzE4NDUiLz4mI3hhOzx1c2UgeGxpbms6aHJlZj0iI2cwLTQxIiB5PSI0MjguNzk0NzYiIHg9IjQwLjAzMjYxNyIvPiYjeGE7PHVzZSB4bGluazpocmVmPSIjZzAtMTA0IiB5PSI0MjguNzk0NzYiIHg9IjUwLjQ5MzM4OSIvPiYjeGE7PHVzZSB4bGluazpocmVmPSIjZzAtMTE4IiB5PSI0MjguNzk0NzYiIHg9IjU1LjcyMzc3NSIvPiYjeGE7PHVzZSB4bGluazpocmVmPSIjZzAtODQiIHk9IjQyOC43OTQ3NiIgeD0iNjAuOTU0MTYxIi8+JiN4YTs8dXNlIHhsaW5rOmhyZWY9IiNnMC01MCIgeT0iNDI4Ljc5NDc2IiB4PSI2Ni4xODQ1NDciLz4mI3hhOzx1c2UgeGxpbms6aHJlZj0iI2cwLTc5IiB5PSI0MjguNzk0NzYiIHg9IjcxLjQxNDkzMyIvPiYjeGE7PHVzZSB4bGluazpocmVmPSIjZzAtMTIxIiB5PSI0MjguNzk0NzYiIHg9Ijc2LjY0NTMxOSIvPiYjeGE7PHVzZSB4bGluazpocmVmPSIjZzAtODIiIHk9IjQ0MC43NDk5MjgiIHg9Ii0xNy41MDE2MyIvPiYjeGE7PHVzZSB4bGluazpocmVmPSIjZzAtMTIxIiB5PSI0NDAuNzQ5OTI4IiB4PSItMTIuMjcxMjQ0Ii8+JiN4YTs8dXNlIHhsaW5rOmhyZWY9IiNnMC05NiIgeT0iNDQwLjc0OTkyOCIgeD0iOC42NTAzMDEiLz4mI3hhOzx1c2UgeGxpbms6aHJlZj0iI2cwLTUwIiB5PSI0NDAuNzQ5OTI4IiB4PSIxMy44ODA2ODciLz4mI3hhOzx1c2UgeGxpbms6aHJlZj0iI2cwLTEwNSIgeT0iNDQwLjc0OTkyOCIgeD0iMTkuMTExMDczIi8+JiN4YTs8dXNlIHhsaW5rOmhyZWY9IiNnMC0xMTAiIHk9IjQ0MC43NDk5MjgiIHg9IjI0LjM0MTQ1OSIvPiYjeGE7PHVzZSB4bGluazpocmVmPSIjZzAtNDAiIHk9IjQ2NC42NjAyNjQiIHg9Ii00My42NTM1NiIvPiYjeGE7PHVzZSB4bGluazpocmVmPSIjZzAtODMiIHk9IjQ2NC42NjAyNjQiIHg9Ii0zOC40MjMxNzQiLz4mI3hhOzx1c2UgeGxpbms6aHJlZj0iI2cwLTk2IiB5PSI0NjQuNjYwMjY0IiB4PSItMzMuMTkyNzg4Ii8+JiN4YTs8dXNlIHhsaW5rOmhyZWY9IiNnMC04MSIgeT0iNDY0LjY2MDI2NCIgeD0iLTI3Ljk2MjQwMiIvPiYjeGE7PHVzZSB4bGluazpocmVmPSIjZzAtNzUiIHk9IjQ2NC42NjAyNjQiIHg9Ii0yMi43MzIwMTYiLz4mI3hhOzx1c2UgeGxpbms6aHJlZj0iI2cwLTg1IiB5PSI0NjQuNjYwMjY0IiB4PSItMTIuMjcxMjQ0Ii8+JiN4YTs8dXNlIHhsaW5rOmhyZWY9IiNnMC02NiIgeT0iNDY0LjY2MDI2NCIgeD0iLTcuMDQwODU4Ii8+JiN4YTs8dXNlIHhsaW5rOmhyZWY9IiNnMC03NyIgeT0iNDY0LjY2MDI2NCIgeD0iLTEuODEwNDcxIi8+JiN4YTs8dXNlIHhsaW5rOmhyZWY9IiNnMC00NyIgeT0iNDY0LjY2MDI2NCIgeD0iMy40MTk5MTUiLz4mI3hhOzx1c2UgeGxpbms6aHJlZj0iI2cwLTUwIiB5PSI0NjQuNjYwMjY0IiB4PSI4LjY1MDMwMSIvPiYjeGE7PHVzZSB4bGluazpocmVmPSIjZzAtMTE2IiB5PSI0NjQuNjYwMjY0IiB4PSIxMy44ODA2ODciLz4mI3hhOzx1c2UgeGxpbms6aHJlZj0iI2cwLTgyIiB5PSI0NjQuNjYwMjY0IiB4PSIyNC4zNDE0NTkiLz4mI3hhOzx1c2UgeGxpbms6aHJlZj0iI2cwLTg2IiB5PSI0NjQuNjYwMjY0IiB4PSIyOS41NzE4NDUiLz4mI3hhOzx1c2UgeGxpbms6aHJlZj0iI2cwLTQxIiB5PSI0NjQuNjYwMjY0IiB4PSIzNC44MDIyMzEiLz4mI3hhOzx1c2UgeGxpbms6aHJlZj0iI2cwLTEyMSIgeT0iNDc2LjYxNTQzMyIgeD0iLTQzLjY1MzU2Ii8+JiN4YTs8dXNlIHhsaW5rOmhyZWY9IiNnMC00NCIgeT0iNDc2LjYxNTQzMyIgeD0iLTM4LjQyMzE3NCIvPiYjeGE7PHVzZSB4bGluazpocmVmPSIjZzAtMTIxIiB5PSI0ODguNTcwNjAxIiB4PSItMTIuMjcxMjQ0Ii8+JiN4YTs8dXNlIHhsaW5rOmhyZWY9IiNnMC03MiIgeT0iNDg4LjU3MDYwMSIgeD0iOC42NTAzMDEiLz4mI3hhOzx1c2UgeGxpbms6aHJlZj0iI2cwLTQ3IiB5PSI0ODguNTcwNjAxIiB4PSIxMy44ODA2ODciLz4mI3hhOzx1c2UgeGxpbms6aHJlZj0iI2cwLTExMiIgeT0iNDg4LjU3MDYwMSIgeD0iMTkuMTExMDczIi8+JiN4YTs8dXNlIHhsaW5rOmhyZWY9IiNnMC0yOCIgeT0iNDg4LjU3MDYwMSIgeD0iMjQuMzQxNDU5Ii8+JiN4YTs8dXNlIHhsaW5rOmhyZWY9IiNnMC05NiIgeT0iNDg4LjU3MDYwMSIgeD0iMjkuNTcxODQ1Ii8+JiN4YTs8dXNlIHhsaW5rOmhyZWY9IiNnMC0xMTAiIHk9IjQ4OC41NzA2MDEiIHg9IjM0LjgwMjIzMSIvPiYjeGE7PHVzZSB4bGluazpocmVmPSIjZzAtMTE2IiB5PSI0ODguNTcwNjAxIiB4PSI1MC40OTMzODkiLz4mI3hhOzx1c2UgeGxpbms6aHJlZj0iI2cwLTU2IiB5PSI1MDAuNTI1NzY5IiB4PSItMTIuMjcxMjQ0Ii8+JiN4YTs8dXNlIHhsaW5rOmhyZWY9IiNnMC00MCIgeT0iNTAwLjUyNTc2OSIgeD0iOC42NTAzMDEiLz4mI3hhOzx1c2UgeGxpbms6aHJlZj0iI2cwLTczIiB5PSI1MDAuNTI1NzY5IiB4PSIxOS4xMTEwNzMiLz4mI3hhOzx1c2UgeGxpbms6aHJlZj0iI2cwLTkyIiB5PSI1MDAuNTI1NzY5IiB4PSIyNC4zNDE0NTkiLz4mI3hhOzx1c2UgeGxpbms6aHJlZj0iI2cwLTYxIiB5PSI1MDAuNTI1NzY5IiB4PSIyOS41NzE4NDUiLz4mI3hhOzx1c2UgeGxpbms6aHJlZj0iI2cwLTQxIiB5PSI1MDAuNTI1NzY5IiB4PSI0MC4wMzI2MTciLz4mI3hhOzx1c2UgeGxpbms6aHJlZj0iI2cwLTEwNCIgeT0iNTAwLjUyNTc2OSIgeD0iNTAuNDkzMzg5Ii8+JiN4YTs8dXNlIHhsaW5rOmhyZWY9IiNnMC0xMTgiIHk9IjUwMC41MjU3NjkiIHg9IjU1LjcyMzc3NSIvPiYjeGE7PHVzZSB4bGluazpocmVmPSIjZzAtODQiIHk9IjUwMC41MjU3NjkiIHg9IjYwLjk1NDE2MSIvPiYjeGE7PHVzZSB4bGluazpocmVmPSIjZzAtNTAiIHk9IjUwMC41MjU3NjkiIHg9IjY2LjE4NDU0NyIvPiYjeGE7PHVzZSB4bGluazpocmVmPSIjZzAtNzkiIHk9IjUwMC41MjU3NjkiIHg9IjcxLjQxNDkzMyIvPiYjeGE7PHVzZSB4bGluazpocmVmPSIjZzAtMTA2IiB5PSI1MDAuNTI1NzY5IiB4PSI3Ni42NDUzMTkiLz4mI3hhOzx1c2UgeGxpbms6aHJlZj0iI2cwLTgyIiB5PSI1MTIuNDgwOTM3IiB4PSItMTcuNTAxNjMiLz4mI3hhOzx1c2UgeGxpbms6aHJlZj0iI2cwLTEyMSIgeT0iNTEyLjQ4MDkzNyIgeD0iLTEyLjI3MTI0NCIvPiYjeGE7PHVzZSB4bGluazpocmVmPSIjZzAtOTYiIHk9IjUxMi40ODA5MzciIHg9IjguNjUwMzAxIi8+JiN4YTs8dXNlIHhsaW5rOmhyZWY9IiNnMC01MCIgeT0iNTEyLjQ4MDkzNyIgeD0iMTMuODgwNjg3Ii8+JiN4YTs8dXNlIHhsaW5rOmhyZWY9IiNnMC0xMDUiIHk9IjUxMi40ODA5MzciIHg9IjE5LjExMTA3MyIvPiYjeGE7PHVzZSB4bGluazpocmVmPSIjZzAtMTEwIiB5PSI1MTIuNDgwOTM3IiB4PSIyNC4zNDE0NTkiLz4mI3hhOzwvZz4mI3hhOzwvc3ZnPg==;fontFamily=LM Roman 10;fontSize=14;" parent="1" vertex="1">
          <mxGeometry x="50" y="370" width="283" height="840" as="geometry" />
        </mxCell>
        <mxCell id="nKrELA4dg6fPKe1PAYPH-19" style="edgeStyle=orthogonalEdgeStyle;rounded=0;orthogonalLoop=1;jettySize=auto;html=1;exitX=0.001;exitY=0.532;exitDx=0;exitDy=0;exitPerimeter=0;entryX=0;entryY=1;entryDx=0;entryDy=0;fontFamily=LM Roman 10;fontSize=14;" parent="1" source="nKrELA4dg6fPKe1PAYPH-14" target="nKrELA4dg6fPKe1PAYPH-8" edge="1">
          <mxGeometry relative="1" as="geometry">
            <mxPoint x="330" y="190" as="targetPoint" />
            <mxPoint x="190" y="100" as="sourcePoint" />
            <Array as="points">
              <mxPoint x="20" y="86" />
              <mxPoint x="20" y="190" />
            </Array>
          </mxGeometry>
        </mxCell>
        <mxCell id="nKrELA4dg6fPKe1PAYPH-21" style="edgeStyle=orthogonalEdgeStyle;rounded=0;orthogonalLoop=1;jettySize=auto;html=1;entryX=0;entryY=0.5;entryDx=0;entryDy=0;entryPerimeter=0;fontFamily=LM Roman 10;fontSize=14;" parent="1" target="nKrELA4dg6fPKe1PAYPH-24" edge="1">
          <mxGeometry relative="1" as="geometry">
            <mxPoint x="10" y="260.0000000000001" as="targetPoint" />
            <Array as="points">
              <mxPoint x="10" y="115" />
              <mxPoint x="10" y="250" />
            </Array>
            <mxPoint x="49" y="115" as="sourcePoint" />
          </mxGeometry>
        </mxCell>
        <mxCell id="nKrELA4dg6fPKe1PAYPH-24" value="" style="strokeWidth=1;html=1;shape=mxgraph.flowchart.annotation_2;align=left;labelPosition=right;pointerEvents=1;direction=east;fontFamily=LM Roman 10;fontSize=14;" parent="1" vertex="1">
          <mxGeometry x="20" y="200" width="20" height="100" as="geometry" />
        </mxCell>
        <mxCell id="nKrELA4dg6fPKe1PAYPH-59" style="edgeStyle=orthogonalEdgeStyle;rounded=0;orthogonalLoop=1;jettySize=auto;html=1;exitX=0.97;exitY=0.53;exitDx=0;exitDy=0;entryX=0;entryY=1;entryDx=0;entryDy=0;exitPerimeter=0;fontFamily=LM Roman 10;fontSize=14;" parent="1" source="nKrELA4dg6fPKe1PAYPH-56" edge="1">
          <mxGeometry relative="1" as="geometry">
            <mxPoint x="665.0000000000001" y="614.6100000000001" as="sourcePoint" />
            <mxPoint x="689.6500000000001" y="690" as="targetPoint" />
            <Array as="points">
              <mxPoint x="705" y="616" />
              <mxPoint x="705" y="690" />
            </Array>
          </mxGeometry>
        </mxCell>
        <mxCell id="nKrELA4dg6fPKe1PAYPH-60" style="edgeStyle=orthogonalEdgeStyle;rounded=0;orthogonalLoop=1;jettySize=auto;html=1;entryX=0;entryY=1;entryDx=0;entryDy=0;exitX=1.012;exitY=0.551;exitDx=0;exitDy=0;exitPerimeter=0;fontFamily=LM Roman 10;fontSize=14;" parent="1" source="nKrELA4dg6fPKe1PAYPH-57" edge="1">
          <mxGeometry relative="1" as="geometry">
            <mxPoint x="655" y="645" as="sourcePoint" />
            <mxPoint x="690" y="750" as="targetPoint" />
            <Array as="points">
              <mxPoint x="715" y="646" />
              <mxPoint x="715" y="750" />
            </Array>
          </mxGeometry>
        </mxCell>
        <mxCell id="nKrELA4dg6fPKe1PAYPH-61" style="edgeStyle=orthogonalEdgeStyle;rounded=0;orthogonalLoop=1;jettySize=auto;html=1;exitX=1.003;exitY=0.527;exitDx=0;exitDy=0;exitPerimeter=0;entryX=0;entryY=1;entryDx=0;entryDy=0;fontFamily=LM Roman 10;fontSize=14;" parent="1" source="nKrELA4dg6fPKe1PAYPH-58" edge="1">
          <mxGeometry relative="1" as="geometry">
            <mxPoint x="660" y="675.78" as="sourcePoint" />
            <mxPoint x="690.1200000000001" y="780" as="targetPoint" />
            <Array as="points">
              <mxPoint x="725" y="676" />
              <mxPoint x="725" y="780" />
            </Array>
          </mxGeometry>
        </mxCell>
        <mxCell id="nKrELA4dg6fPKe1PAYPH-65" value="DispatchTable" style="text;html=1;align=center;verticalAlign=middle;resizable=0;points=[];autosize=1;strokeColor=none;fillColor=none;fontFamily=LM Roman 10;fontStyle=1;fontSize=14;" parent="1" vertex="1">
          <mxGeometry x="45" y="10" width="110" height="30" as="geometry" />
        </mxCell>
        <mxCell id="nKrELA4dg6fPKe1PAYPH-66" value="TypeFeedback" style="text;html=1;align=center;verticalAlign=middle;resizable=0;points=[];autosize=1;strokeColor=none;fillColor=none;fontFamily=LM Roman 10;fontStyle=1;fontSize=14;" parent="1" vertex="1">
          <mxGeometry x="575" y="430" width="110" height="30" as="geometry" />
        </mxCell>
        <mxCell id="nKrELA4dg6fPKe1PAYPH-68" value="Code" style="text;html=1;align=center;verticalAlign=middle;resizable=0;points=[];autosize=1;strokeColor=none;fillColor=none;fontFamily=LM Roman 10;fontStyle=1;fontSize=14;" parent="1" vertex="1">
          <mxGeometry x="75" y="340" width="60" height="30" as="geometry" />
        </mxCell>
        <mxCell id="saBZGnL8zDT00RnZJ5Cs-46" value="Function" style="text;html=1;align=center;verticalAlign=middle;resizable=0;points=[];autosize=1;strokeColor=none;fillColor=none;fontFamily=LM Roman 10;fontStyle=1;fontSize=14;" parent="1" vertex="1">
          <mxGeometry x="370" width="80" height="30" as="geometry" />
        </mxCell>
        <mxCell id="saBZGnL8zDT00RnZJ5Cs-47" style="edgeStyle=orthogonalEdgeStyle;rounded=0;orthogonalLoop=1;jettySize=auto;html=1;exitX=0.5;exitY=0;exitDx=0;exitDy=0;entryX=0;entryY=1;entryDx=0;entryDy=0;fontFamily=LM Roman 10;fontSize=14;" parent="1" source="nKrELA4dg6fPKe1PAYPH-8" edge="1">
          <mxGeometry relative="1" as="geometry">
            <Array as="points">
              <mxPoint x="200" y="205" />
              <mxPoint x="200" y="30" />
            </Array>
            <mxPoint x="350" y="30" as="targetPoint" />
          </mxGeometry>
        </mxCell>
        <mxCell id="saBZGnL8zDT00RnZJ5Cs-53" style="edgeStyle=orthogonalEdgeStyle;rounded=0;orthogonalLoop=1;jettySize=auto;html=1;exitX=0.5;exitY=1;exitDx=0;exitDy=0;entryX=1;entryY=0;entryDx=0;entryDy=0;fontFamily=LM Roman 10;fontSize=14;" parent="1" source="saBZGnL8zDT00RnZJ5Cs-50" target="nKrELA4dg6fPKe1PAYPH-73" edge="1">
          <mxGeometry relative="1" as="geometry">
            <Array as="points">
              <mxPoint x="280" y="255" />
              <mxPoint x="280" y="70" />
            </Array>
          </mxGeometry>
        </mxCell>
        <mxCell id="saBZGnL8zDT00RnZJ5Cs-61" value="(non-owning pointer)" style="edgeLabel;html=1;align=center;verticalAlign=middle;resizable=0;points=[];fontFamily=LM Roman 10;fontSize=14;" parent="saBZGnL8zDT00RnZJ5Cs-53" vertex="1" connectable="0">
          <mxGeometry x="0.0171" relative="1" as="geometry">
            <mxPoint y="12" as="offset" />
          </mxGeometry>
        </mxCell>
        <mxCell id="saBZGnL8zDT00RnZJ5Cs-60" style="edgeStyle=orthogonalEdgeStyle;rounded=0;orthogonalLoop=1;jettySize=auto;html=1;exitX=0.5;exitY=1;exitDx=0;exitDy=0;entryX=1.001;entryY=0.53;entryDx=0;entryDy=0;entryPerimeter=0;fontFamily=LM Roman 10;fontSize=14;" parent="1" source="saBZGnL8zDT00RnZJ5Cs-52" target="nKrELA4dg6fPKe1PAYPH-68" edge="1">
          <mxGeometry relative="1" as="geometry" />
        </mxCell>
        <mxCell id="saBZGnL8zDT00RnZJ5Cs-62" style="edgeStyle=orthogonalEdgeStyle;rounded=0;orthogonalLoop=1;jettySize=auto;html=1;exitX=0.5;exitY=0;exitDx=0;exitDy=0;entryX=0;entryY=0;entryDx=0;entryDy=0;fontFamily=LM Roman 10;fontSize=14;" parent="1" source="saBZGnL8zDT00RnZJ5Cs-54" target="_FOgOhI5XCwtI4hoziWZ-7" edge="1">
          <mxGeometry relative="1" as="geometry">
            <Array as="points">
              <mxPoint x="510" y="315" />
              <mxPoint x="510" y="460" />
            </Array>
          </mxGeometry>
        </mxCell>
        <mxCell id="saBZGnL8zDT00RnZJ5Cs-63" style="edgeStyle=orthogonalEdgeStyle;rounded=0;orthogonalLoop=1;jettySize=auto;html=1;exitX=0.5;exitY=0;exitDx=0;exitDy=0;entryX=0;entryY=0;entryDx=0;entryDy=0;fontFamily=LM Roman 10;fontSize=14;" parent="1" source="nKrELA4dg6fPKe1PAYPH-31" target="saBZGnL8zDT00RnZJ5Cs-31" edge="1">
          <mxGeometry relative="1" as="geometry">
            <Array as="points">
              <mxPoint x="690" y="595" />
              <mxPoint x="720" y="595" />
              <mxPoint x="720" y="60" />
            </Array>
          </mxGeometry>
        </mxCell>
        <mxCell id="saBZGnL8zDT00RnZJ5Cs-64" value="(non-owning pointer)" style="edgeLabel;html=1;align=center;verticalAlign=middle;resizable=0;points=[];fontFamily=LM Roman 10;fontSize=14;" parent="saBZGnL8zDT00RnZJ5Cs-63" vertex="1" connectable="0">
          <mxGeometry x="-0.1113" y="2" relative="1" as="geometry">
            <mxPoint as="offset" />
          </mxGeometry>
        </mxCell>
        <mxCell id="saBZGnL8zDT00RnZJ5Cs-70" value="" style="endArrow=classic;html=1;rounded=0;entryX=0.5;entryY=1;entryDx=0;entryDy=0;edgeStyle=orthogonalEdgeStyle;fontFamily=LM Roman 10;fontSize=14;" parent="1" target="nKrELA4dg6fPKe1PAYPH-46" edge="1">
          <mxGeometry width="50" height="50" relative="1" as="geometry">
            <mxPoint x="228" y="465" as="sourcePoint" />
            <mxPoint x="470" y="952" as="targetPoint" />
            <Array as="points">
              <mxPoint x="350" y="466" />
              <mxPoint x="350" y="765" />
            </Array>
          </mxGeometry>
        </mxCell>
        <mxCell id="saBZGnL8zDT00RnZJ5Cs-80" value="" style="endArrow=classic;html=1;rounded=0;entryX=0.5;entryY=1;entryDx=0;entryDy=0;edgeStyle=orthogonalEdgeStyle;fontFamily=LM Roman 10;fontSize=14;" parent="1" target="nKrELA4dg6fPKe1PAYPH-44" edge="1">
          <mxGeometry width="50" height="50" relative="1" as="geometry">
            <mxPoint x="328" y="537" as="sourcePoint" />
            <mxPoint x="585" y="877" as="targetPoint" />
          </mxGeometry>
        </mxCell>
        <mxCell id="saBZGnL8zDT00RnZJ5Cs-83" value="" style="endArrow=classic;html=1;rounded=0;entryX=0.5;entryY=1;entryDx=0;entryDy=0;edgeStyle=orthogonalEdgeStyle;fontFamily=LM Roman 10;fontSize=14;" parent="1" target="nKrELA4dg6fPKe1PAYPH-49" edge="1">
          <mxGeometry width="50" height="50" relative="1" as="geometry">
            <mxPoint x="243" y="735" as="sourcePoint" />
            <mxPoint x="482" y="860" as="targetPoint" />
            <Array as="points">
              <mxPoint x="310" y="735" />
              <mxPoint x="310" y="855" />
            </Array>
          </mxGeometry>
        </mxCell>
        <mxCell id="saBZGnL8zDT00RnZJ5Cs-87" value="" style="endArrow=classic;html=1;rounded=0;entryX=0.5;entryY=1;entryDx=0;entryDy=0;edgeStyle=orthogonalEdgeStyle;fontFamily=LM Roman 10;fontSize=14;" parent="1" target="nKrELA4dg6fPKe1PAYPH-45" edge="1">
          <mxGeometry width="50" height="50" relative="1" as="geometry">
            <mxPoint x="328" y="880" as="sourcePoint" />
            <mxPoint x="492" y="870" as="targetPoint" />
            <Array as="points">
              <mxPoint x="380" y="880" />
              <mxPoint x="380" y="735" />
            </Array>
          </mxGeometry>
        </mxCell>
        <mxCell id="saBZGnL8zDT00RnZJ5Cs-88" value="" style="endArrow=classic;html=1;rounded=0;entryX=0.5;entryY=1;entryDx=0;entryDy=0;edgeStyle=orthogonalEdgeStyle;fontFamily=LM Roman 10;fontSize=14;" parent="1" target="nKrELA4dg6fPKe1PAYPH-47" edge="1">
          <mxGeometry width="50" height="50" relative="1" as="geometry">
            <mxPoint x="242" y="1076" as="sourcePoint" />
            <mxPoint x="400" y="790" as="targetPoint" />
            <Array as="points">
              <mxPoint x="400" y="1076" />
              <mxPoint x="400" y="795" />
            </Array>
          </mxGeometry>
        </mxCell>
        <mxCell id="saBZGnL8zDT00RnZJ5Cs-89" value="" style="endArrow=classic;html=1;rounded=0;entryX=0.5;entryY=1;entryDx=0;entryDy=0;edgeStyle=orthogonalEdgeStyle;fontFamily=LM Roman 10;fontSize=14;" parent="1" target="nKrELA4dg6fPKe1PAYPH-50" edge="1">
          <mxGeometry width="50" height="50" relative="1" as="geometry">
            <mxPoint x="242" y="1185" as="sourcePoint" />
            <mxPoint x="495" y="845" as="targetPoint" />
            <Array as="points">
              <mxPoint x="420" y="1186" />
              <mxPoint x="420" y="885" />
            </Array>
          </mxGeometry>
        </mxCell>
        <mxCell id="saBZGnL8zDT00RnZJ5Cs-90" value="" style="endArrow=classic;html=1;rounded=0;entryX=0.5;entryY=1;entryDx=0;entryDy=0;edgeStyle=orthogonalEdgeStyle;fontFamily=LM Roman 10;fontSize=14;" parent="1" target="nKrELA4dg6fPKe1PAYPH-51" edge="1">
          <mxGeometry width="50" height="50" relative="1" as="geometry">
            <mxPoint x="243" y="951" as="sourcePoint" />
            <mxPoint x="430" y="850" as="targetPoint" />
            <Array as="points">
              <mxPoint x="327" y="951" />
              <mxPoint x="327" y="915" />
            </Array>
          </mxGeometry>
        </mxCell>
        <mxCell id="saBZGnL8zDT00RnZJ5Cs-37" value="&lt;span style=&quot;text-wrap-mode: nowrap;&quot;&gt;Magic number&lt;/span&gt;" style="shape=partialRectangle;whiteSpace=wrap;html=1;right=1;top=1;bottom=1;fillColor=#FFE599;routingCenterX=-0.5;direction=south;strokeColor=default;fontFamily=LM Roman 10;fontSize=14;" parent="1" vertex="1">
          <mxGeometry x="350" y="120" width="120" height="30" as="geometry" />
        </mxCell>
        <mxCell id="TjYSmC08l95K0QjeQ2nx-1" value="" style="endArrow=classic;html=1;rounded=0;entryX=0.5;entryY=1;entryDx=0;entryDy=0;edgeStyle=orthogonalEdgeStyle;fontFamily=LM Roman 10;fontSize=14;" edge="1" parent="1" target="nKrELA4dg6fPKe1PAYPH-48">
          <mxGeometry width="50" height="50" relative="1" as="geometry">
            <mxPoint x="243" y="663" as="sourcePoint" />
            <mxPoint x="580" y="865" as="targetPoint" />
            <Array as="points">
              <mxPoint x="330" y="663" />
              <mxPoint x="330" y="825" />
            </Array>
          </mxGeometry>
        </mxCell>
      </root>
    </mxGraphModel>
  </diagram>
  <diagram id="ctz3kgYXTCS-iivNj1qZ" name="ObservedTest lattice">
    <mxGraphModel dx="988" dy="603" grid="1" gridSize="10" guides="1" tooltips="1" connect="1" arrows="1" fold="1" page="1" pageScale="1" pageWidth="850" pageHeight="1100" math="1" shadow="0">
      <root>
        <mxCell id="0" />
        <mxCell id="1" parent="0" />
        <mxCell id="c-scTtEXp6z64Y4qxkXh-1" value="Both" style="text;html=1;align=center;verticalAlign=middle;resizable=0;points=[];autosize=1;strokeColor=none;fillColor=none;fontFamily=LM Roman 10;" parent="1" vertex="1">
          <mxGeometry x="394" y="430" width="50" height="30" as="geometry" />
        </mxCell>
        <mxCell id="c-scTtEXp6z64Y4qxkXh-3" value="ObservedTrue" style="text;html=1;align=center;verticalAlign=middle;resizable=0;points=[];autosize=1;strokeColor=none;fillColor=none;fontFamily=LM Roman 10;" parent="1" vertex="1">
          <mxGeometry x="300" y="473" width="100" height="30" as="geometry" />
        </mxCell>
        <mxCell id="c-scTtEXp6z64Y4qxkXh-4" value="ObservedFalse" style="text;html=1;align=center;verticalAlign=middle;resizable=0;points=[];autosize=1;strokeColor=none;fillColor=none;fontFamily=LM Roman 10;" parent="1" vertex="1">
          <mxGeometry x="440" y="473" width="100" height="30" as="geometry" />
        </mxCell>
        <mxCell id="c-scTtEXp6z64Y4qxkXh-5" value="None" style="text;html=1;align=center;verticalAlign=middle;resizable=0;points=[];autosize=1;strokeColor=none;fillColor=none;fontFamily=LM Roman 10;" parent="1" vertex="1">
          <mxGeometry x="394" y="520" width="50" height="30" as="geometry" />
        </mxCell>
        <mxCell id="c-scTtEXp6z64Y4qxkXh-12" value="" style="endArrow=classic;html=1;rounded=0;fontFamily=LM Roman 10;" parent="1" edge="1">
          <mxGeometry width="50" height="50" relative="1" as="geometry">
            <mxPoint x="360" y="480" as="sourcePoint" />
            <mxPoint x="417" y="455" as="targetPoint" />
          </mxGeometry>
        </mxCell>
        <mxCell id="c-scTtEXp6z64Y4qxkXh-13" value="" style="endArrow=classic;html=1;rounded=0;fontFamily=LM Roman 10;" parent="1" edge="1">
          <mxGeometry width="50" height="50" relative="1" as="geometry">
            <mxPoint x="480" y="480" as="sourcePoint" />
            <mxPoint x="423" y="455" as="targetPoint" />
          </mxGeometry>
        </mxCell>
        <mxCell id="c-scTtEXp6z64Y4qxkXh-15" value="" style="endArrow=classic;html=1;rounded=0;fontFamily=LM Roman 10;" parent="1" edge="1">
          <mxGeometry width="50" height="50" relative="1" as="geometry">
            <mxPoint x="423" y="525" as="sourcePoint" />
            <mxPoint x="480" y="500" as="targetPoint" />
          </mxGeometry>
        </mxCell>
        <mxCell id="c-scTtEXp6z64Y4qxkXh-16" value="" style="endArrow=classic;html=1;rounded=0;fontFamily=LM Roman 10;" parent="1" edge="1">
          <mxGeometry width="50" height="50" relative="1" as="geometry">
            <mxPoint x="417" y="525" as="sourcePoint" />
            <mxPoint x="360" y="500" as="targetPoint" />
          </mxGeometry>
        </mxCell>
      </root>
    </mxGraphModel>
  </diagram>
</mxfile>
